<svg width="20" height="20" viewBox="0 0 20 20" fill="none" xmlns="http://www.w3.org/2000/svg">
<path fill-rule="evenodd" clip-rule="evenodd" d="M10.3489 1.39558C8.8067 1.39558 7.32765 2.00822 6.23714 3.09873C5.14664 4.18923 4.534 5.66828 4.534 7.21049V11.8624C4.534 12.6217 4.28651 13.3554 3.83622 13.9558H16.8616C16.4113 13.3554 16.1638 12.6217 16.1638 11.8624V7.21049C16.1638 5.66828 15.5512 4.18923 14.4607 3.09873C13.3702 2.00822 11.8911 1.39558 10.3489 1.39558ZM19.6528 13.9558C19.0976 13.9558 18.5651 13.7352 18.1725 13.3427C17.7799 12.9501 17.5594 12.4176 17.5594 11.8624V7.21049C17.5594 5.29815 16.7997 3.46413 15.4475 2.1119C14.0953 0.759674 12.2612 0 10.3489 0C8.43657 0 6.60255 0.759674 5.25032 2.1119C3.89809 3.46413 3.13842 5.29815 3.13842 7.21049V11.8624C3.13842 12.4176 2.91787 12.9501 2.52528 13.3427C2.1327 13.7352 1.60024 13.9558 1.04505 13.9558C0.65967 13.9558 0.34726 14.2682 0.34726 14.6536C0.34726 15.039 0.65967 15.3514 1.04505 15.3514H19.6528V13.9558ZM8.38921 17.7715C8.72256 17.5782 9.14956 17.6916 9.34293 18.025C9.44516 18.2012 9.5919 18.3475 9.76845 18.4492C9.945 18.5509 10.1452 18.6044 10.3489 18.6044C10.5527 18.6044 10.7528 18.5509 10.9294 18.4492C11.1059 18.3475 11.2527 18.2012 11.3549 18.025C11.5483 17.6916 11.9753 17.5782 12.3086 17.7715C12.642 17.9649 12.7554 18.3919 12.5621 18.7253C12.3372 19.113 12.0143 19.4348 11.6259 19.6585C11.2375 19.8822 10.7971 20 10.3489 20C9.90068 20 9.46031 19.8822 9.0719 19.6585C8.68349 19.4348 8.36066 19.113 8.13575 18.7253C7.94238 18.3919 8.05586 17.9649 8.38921 17.7715Z" fill="#332F2E"/>
</svg>
