<svg width="14" height="12" viewBox="0 0 14 12" fill="none" xmlns="http://www.w3.org/2000/svg">
<path fill-rule="evenodd" clip-rule="evenodd" d="M12.1163 0.553529C12.3167 0.743444 12.3253 1.05991 12.1354 1.26038L11.4695 1.96327C12.9645 2.35586 13.9125 2.9399 13.9125 3.59206C13.9125 3.66525 13.9005 3.73759 13.8772 3.8089V7.87287C13.8772 7.8729 13.8772 7.87293 13.8772 7.87297H13.8775C13.8775 8.36709 13.6051 8.77584 13.2379 9.08738C12.8712 9.39847 12.3652 9.6544 11.7703 9.85921C10.5764 10.2702 8.91198 10.5133 6.95632 10.5133C5.71477 10.5133 4.59058 10.4154 3.62965 10.2386L2.50367 11.4272C2.31375 11.6277 1.99729 11.6362 1.79682 11.4463C1.59635 11.2564 1.5878 10.9399 1.77772 10.7394L2.50286 9.97402C2.37835 9.93737 2.25811 9.89908 2.1423 9.85921C1.54738 9.6544 1.04145 9.39847 0.674757 9.08738C0.307545 8.77584 0.0351732 8.36709 0.0351732 7.87297C0.0351732 7.87293 0.0351732 7.8729 0.0351732 7.87287V3.80864C0.0119126 3.73742 0 3.66517 0 3.59206C0 2.40996 3.11441 1.45168 6.95624 1.45168C8.17784 1.45168 9.32589 1.54857 10.3237 1.71873L11.4094 0.572633C11.5993 0.372166 11.9158 0.363613 12.1163 0.553529ZM1.03517 7.87297C1.03517 7.9699 1.08522 8.12421 1.32168 8.32482C1.55867 8.52588 1.93768 8.73116 2.46782 8.91368C2.71473 8.99868 2.9884 9.07671 3.28693 9.14638L6.52503 5.7284C4.2036 5.68471 2.18988 5.29071 1.03517 4.71603V7.87287C1.03517 7.8729 1.03517 7.87293 1.03517 7.87297ZM4.46355 9.35842C5.20261 9.45755 6.03927 9.51335 6.95632 9.51335C8.84248 9.51335 10.3886 9.27731 11.4448 8.91368C11.975 8.73116 12.354 8.52588 12.591 8.32482C12.8199 8.13055 12.8741 7.9797 12.8773 7.88233C12.8773 7.87918 12.8772 7.87603 12.8772 7.87287V4.71607C11.8114 5.24648 10.0138 5.62297 7.91791 5.71215L4.46355 9.35842ZM6.95624 2.45168C7.86113 2.45168 8.71471 2.5072 9.48405 2.60498L7.47435 4.72633C7.30372 4.73037 7.13094 4.73244 6.95624 4.73244C5.10651 4.73244 3.4712 4.50043 2.33152 4.14976C1.75556 3.97254 1.36228 3.78192 1.13493 3.61653C1.12323 3.60802 1.11233 3.59986 1.10218 3.59206C1.11233 3.58426 1.12323 3.5761 1.13493 3.56759C1.36228 3.4022 1.75556 3.21158 2.33152 3.03436C3.4712 2.68369 5.10651 2.45168 6.95624 2.45168ZM10.674 2.80297L8.93325 4.64041C9.96354 4.54159 10.869 4.36883 11.581 4.14976C12.1569 3.97254 12.5502 3.78192 12.7775 3.61653C12.7892 3.60802 12.8001 3.59986 12.8103 3.59206C12.8001 3.58426 12.7892 3.5761 12.7775 3.56759C12.5502 3.4022 12.1569 3.21158 11.581 3.03436C11.3061 2.9498 11.0025 2.87214 10.674 2.80297Z" fill="#332F2E"/>
</svg>
