<svg width="19" height="20" viewBox="0 0 19 20" fill="none" xmlns="http://www.w3.org/2000/svg">
<path fill-rule="evenodd" clip-rule="evenodd" d="M13.5254 0.75C13.5254 0.335786 13.1896 0 12.7754 0C12.3612 0 12.0254 0.335786 12.0254 0.75V1.84987H6.12517V0.75C6.12517 0.335786 5.78939 0 5.37517 0C4.96096 0 4.62517 0.335786 4.62517 0.75V1.84987H2.60007C1.16409 1.84987 0 3.01397 0 4.44994V17.4004C0 18.8364 1.16409 20.0005 2.60007 20.0005H15.5506C16.9865 20.0005 18.1506 18.8364 18.1506 17.4004V10.559C18.3041 10.4217 18.4006 10.2221 18.4006 10C18.4006 9.77787 18.3041 9.5783 18.1506 9.44097V4.44994C18.1506 3.01397 16.9865 1.84987 15.5506 1.84987H13.5254V0.75ZM16.6506 9.25V4.44994C16.6506 3.84239 16.1581 3.34987 15.5506 3.34987H13.5254V4.45014C13.5254 4.86435 13.1896 5.20014 12.7754 5.20014C12.3612 5.20014 12.0254 4.86435 12.0254 4.45014V3.34987H6.12517V4.45014C6.12517 4.86435 5.78939 5.20014 5.37517 5.20014C4.96096 5.20014 4.62517 4.86435 4.62517 4.45014V3.34987H2.60007C1.99252 3.34987 1.5 3.84239 1.5 4.44994V9.25H16.6506ZM1.5 10.75V17.4004C1.5 18.008 1.99252 18.5005 2.60007 18.5005H15.5506C16.1581 18.5005 16.6506 18.008 16.6506 17.4004V10.75H1.5Z" fill="#F0D12F"/>
</svg>
