<svg width="20" height="20" viewBox="0 0 20 20" fill="none" xmlns="http://www.w3.org/2000/svg">
<path fill-rule="evenodd" clip-rule="evenodd" d="M1.5 10C1.5 5.30559 5.30559 1.5 10 1.5C14.6945 1.5 18.5 5.30559 18.5 10C18.5 14.6945 14.6945 18.5 10 18.5C5.30559 18.5 1.5 14.6945 1.5 10ZM10 0C4.47716 0 0 4.47716 0 10C0 15.5229 4.47716 20 10 20C15.5229 20 20 15.5229 20 10C20 4.47716 15.5229 0 10 0ZM10.7497 4.44979C10.7497 4.03558 10.4139 3.69979 9.99971 3.69979C9.5855 3.69979 9.24971 4.03558 9.24971 4.44979V9.99981C9.24971 10.2839 9.41021 10.5436 9.6643 10.6706L13.3643 12.5206C13.7348 12.7059 14.1853 12.5557 14.3705 12.1852C14.5558 11.8147 14.4056 11.3642 14.0351 11.179L10.7497 9.53628V4.44979Z" fill="#F0D12F"/>
</svg>
