<svg width="20" height="20" viewBox="0 0 20 20" fill="none" xmlns="http://www.w3.org/2000/svg">
<path fill-rule="evenodd" clip-rule="evenodd" d="M1.5 10.0003C1.5 5.30571 5.30571 1.5 10.0003 1.5C14.6949 1.5 18.5006 5.30571 18.5006 10.0003C18.5006 14.6949 14.6949 18.5006 10.0003 18.5006C5.30571 18.5006 1.5 14.6949 1.5 10.0003ZM10.0003 0C4.47728 0 0 4.47728 0 10.0003C0 15.5233 4.47728 20.0006 10.0003 20.0006C15.5233 20.0006 20.0006 15.5233 20.0006 10.0003C20.0006 4.47728 15.5233 0 10.0003 0ZM10.75 4.44992C10.75 4.03571 10.4142 3.69992 10 3.69992C9.58579 3.69992 9.25 4.03571 9.25 4.44992V10.0001C9.25 10.2842 9.4105 10.5439 9.66459 10.6709L13.3647 12.521C13.7352 12.7062 14.1857 12.5561 14.3709 12.1856C14.5562 11.8151 14.406 11.3646 14.0355 11.1793L10.75 9.53657V4.44992Z" fill="#332F2E"/>
</svg>
