<svg width="22" height="22" viewBox="0 0 22 22" fill="none" xmlns="http://www.w3.org/2000/svg">
<path fill-rule="evenodd" clip-rule="evenodd" d="M1.22182 2.2803C0.928928 1.98741 0.928928 1.51253 1.22182 1.21964C1.51472 0.926746 1.98959 0.926746 2.28248 1.21964L11.0011 9.93823L19.7197 1.21964C20.0126 0.926747 20.4874 0.926747 20.7803 1.21964C21.0732 1.51253 21.0732 1.98741 20.7803 2.2803L12.0617 10.9989L20.7803 19.7175C21.0732 20.0104 21.0732 20.4853 20.7803 20.7781C20.4874 21.071 20.0126 21.071 19.7197 20.7781L11.0011 12.0596L2.28248 20.7781C1.98959 21.071 1.51472 21.071 1.22182 20.7781C0.928928 20.4853 0.928928 20.0104 1.22182 19.7175L9.94042 10.9989L1.22182 2.2803Z" fill="white"/>
<path d="M1.22182 1.21964L0.868267 0.866086L0.868268 0.866085L1.22182 1.21964ZM1.22182 2.2803L0.868267 2.63385L0.868267 2.63385L1.22182 2.2803ZM2.28248 1.21964L2.63603 0.866085L2.63604 0.866086L2.28248 1.21964ZM11.0011 9.93823L11.3546 10.2918C11.1594 10.487 10.8428 10.487 10.6475 10.2918L11.0011 9.93823ZM19.7197 1.21964L20.0732 1.57319L20.0732 1.57319L19.7197 1.21964ZM20.7803 1.21964L20.4268 1.57319L20.4268 1.57319L20.7803 1.21964ZM20.7803 2.2803L21.1339 2.63385L20.7803 2.2803ZM12.0617 10.9989L11.7082 11.3524C11.6144 11.2587 11.5617 11.1315 11.5617 10.9989C11.5617 10.8663 11.6144 10.7391 11.7082 10.6453L12.0617 10.9989ZM20.7803 19.7175L21.1339 19.3639L21.1339 19.3639L20.7803 19.7175ZM20.7803 20.7781L21.1339 21.1317L21.1339 21.1317L20.7803 20.7781ZM19.7197 20.7781L19.3661 21.1317L19.3661 21.1317L19.7197 20.7781ZM11.0011 12.0596L10.6475 11.706C10.8428 11.5107 11.1594 11.5107 11.3546 11.706L11.0011 12.0596ZM2.28248 20.7781L2.63604 21.1317L2.63603 21.1317L2.28248 20.7781ZM1.22182 20.7781L0.868269 21.1317L0.868266 21.1317L1.22182 20.7781ZM1.22182 19.7175L0.868266 19.3639L0.868267 19.3639L1.22182 19.7175ZM9.94042 10.9989L10.294 10.6453C10.3877 10.7391 10.4404 10.8663 10.4404 10.9989C10.4404 11.1315 10.3877 11.2587 10.294 11.3524L9.94042 10.9989ZM1.57537 1.57319C1.47774 1.67082 1.47774 1.82912 1.57537 1.92675L0.868267 2.63385C0.380113 2.1457 0.380113 1.35424 0.868267 0.866086L1.57537 1.57319ZM1.92893 1.57319C1.8313 1.47556 1.67301 1.47556 1.57537 1.57319L0.868268 0.866085C1.35642 0.377931 2.14788 0.377931 2.63603 0.866085L1.92893 1.57319ZM10.6475 10.2918L1.92893 1.57319L2.63604 0.866086L11.3546 9.58468L10.6475 10.2918ZM20.0732 1.57319L11.3546 10.2918L10.6475 9.58468L19.3661 0.866086L20.0732 1.57319ZM20.4268 1.57319C20.3291 1.47556 20.1709 1.47556 20.0732 1.57319L19.3661 0.866086C19.8543 0.377931 20.6457 0.377931 21.1339 0.866086L20.4268 1.57319ZM20.4268 1.92675C20.5244 1.82912 20.5244 1.67082 20.4268 1.57319L21.1339 0.866086C21.622 1.35424 21.622 2.1457 21.1339 2.63385L20.4268 1.92675ZM11.7082 10.6453L20.4268 1.92675L21.1339 2.63385L12.4153 11.3524L11.7082 10.6453ZM20.4268 20.071L11.7082 11.3524L12.4153 10.6453L21.1339 19.3639L20.4268 20.071ZM20.4268 20.4246C20.5244 20.327 20.5244 20.1687 20.4268 20.071L21.1339 19.3639C21.622 19.8521 21.622 20.6435 21.1339 21.1317L20.4268 20.4246ZM20.0732 20.4246C20.1709 20.5222 20.3291 20.5222 20.4268 20.4246L21.1339 21.1317C20.6457 21.6199 19.8543 21.6199 19.3661 21.1317L20.0732 20.4246ZM11.3546 11.706L20.0732 20.4246L19.3661 21.1317L10.6475 12.4131L11.3546 11.706ZM1.92893 20.4246L10.6475 11.706L11.3546 12.4131L2.63604 21.1317L1.92893 20.4246ZM1.57537 20.4246C1.67301 20.5222 1.8313 20.5222 1.92893 20.4246L2.63603 21.1317C2.14788 21.6199 1.35642 21.6199 0.868269 21.1317L1.57537 20.4246ZM1.57538 20.071C1.47774 20.1687 1.47774 20.327 1.57538 20.4246L0.868266 21.1317C0.380113 20.6435 0.380113 19.8521 0.868266 19.3639L1.57538 20.071ZM10.294 11.3524L1.57537 20.071L0.868267 19.3639L9.58686 10.6453L10.294 11.3524ZM1.57537 1.92675L10.294 10.6453L9.58686 11.3524L0.868267 2.63385L1.57537 1.92675Z" fill="white"/>
</svg>
