<svg width="22" height="21" viewBox="0 0 22 21" fill="none" xmlns="http://www.w3.org/2000/svg">
<path fill-rule="evenodd" clip-rule="evenodd" d="M20.7781 1.78033C21.071 1.48744 21.071 1.01256 20.7781 0.71967C20.4852 0.426777 20.0103 0.426777 19.7174 0.71967L10.9988 9.43826L2.28022 0.71967C1.98733 0.426777 1.51246 0.426777 1.21956 0.71967C0.92667 1.01256 0.92667 1.48744 1.21956 1.78033L9.93816 10.4989L1.21956 19.2175C0.92667 19.5104 0.92667 19.9853 1.21956 20.2782C1.51246 20.5711 1.98733 20.5711 2.28022 20.2782L10.9988 11.5596L19.7174 20.2782C20.0103 20.5711 20.4852 20.5711 20.7781 20.2782C21.071 19.9853 21.071 19.5104 20.7781 19.2175L12.0595 10.4989L20.7781 1.78033Z" fill="#332F2E"/>
<path d="M20.7781 0.71967L21.1316 0.366117L21.1316 0.366116L20.7781 0.71967ZM20.7781 1.78033L21.1316 2.13388V2.13388L20.7781 1.78033ZM19.7174 0.71967L19.3639 0.366116L19.3639 0.366117L19.7174 0.71967ZM10.9988 9.43826L10.6453 9.79182C10.8405 9.98708 11.1571 9.98708 11.3524 9.79182L10.9988 9.43826ZM2.28022 0.71967L1.92667 1.07322L2.28022 0.71967ZM1.21956 0.71967L1.57312 1.07322H1.57312L1.21956 0.71967ZM1.21956 1.78033L0.86601 2.13388L1.21956 1.78033ZM9.93816 10.4989L10.2917 10.8525C10.3855 10.7587 10.4382 10.6315 10.4382 10.4989C10.4382 10.3663 10.3855 10.2391 10.2917 10.1454L9.93816 10.4989ZM1.21956 19.2175L0.86601 18.864L0.866009 18.864L1.21956 19.2175ZM1.21956 20.2782L0.866009 20.6317L0.866011 20.6317L1.21956 20.2782ZM2.28022 20.2782L2.63378 20.6317H2.63378L2.28022 20.2782ZM10.9988 11.5596L11.3524 11.206C11.1571 11.0108 10.8405 11.0108 10.6453 11.206L10.9988 11.5596ZM19.7174 20.2782L19.3639 20.6317H19.3639L19.7174 20.2782ZM20.7781 20.2782L21.1316 20.6317L21.1316 20.6317L20.7781 20.2782ZM20.7781 19.2175L21.1316 18.864V18.864L20.7781 19.2175ZM12.0595 10.4989L11.7059 10.1454C11.6122 10.2391 11.5595 10.3663 11.5595 10.4989C11.5595 10.6315 11.6122 10.7587 11.7059 10.8525L12.0595 10.4989ZM20.4245 1.07322C20.5222 1.17085 20.5222 1.32915 20.4245 1.42678L21.1316 2.13388C21.6198 1.64573 21.6198 0.854272 21.1316 0.366117L20.4245 1.07322ZM20.071 1.07322C20.1686 0.975592 20.3269 0.975592 20.4245 1.07322L21.1316 0.366116C20.6435 -0.122039 19.852 -0.122039 19.3639 0.366116L20.071 1.07322ZM11.3524 9.79182L20.071 1.07322L19.3639 0.366117L10.6453 9.08471L11.3524 9.79182ZM1.92667 1.07322L10.6453 9.79182L11.3524 9.08471L2.63378 0.366117L1.92667 1.07322ZM1.57312 1.07322C1.67075 0.975593 1.82904 0.975593 1.92667 1.07322L2.63378 0.366117C2.14562 -0.122038 1.35417 -0.122038 0.86601 0.366117L1.57312 1.07322ZM1.57312 1.42678C1.47549 1.32915 1.47549 1.17085 1.57312 1.07322L0.86601 0.366117C0.377854 0.854272 0.377854 1.64573 0.86601 2.13388L1.57312 1.42678ZM10.2917 10.1454L1.57312 1.42678L0.86601 2.13388L9.5846 10.8525L10.2917 10.1454ZM1.57312 19.5711L10.2917 10.8525L9.5846 10.1454L0.86601 18.864L1.57312 19.5711ZM1.57312 19.9246C1.47549 19.827 1.47549 19.6687 1.57312 19.5711L0.866009 18.864C0.377855 19.3521 0.377855 20.1436 0.866009 20.6317L1.57312 19.9246ZM1.92667 19.9246C1.82904 20.0223 1.67075 20.0223 1.57312 19.9246L0.866011 20.6317C1.35417 21.1199 2.14562 21.1199 2.63378 20.6317L1.92667 19.9246ZM10.6453 11.206L1.92667 19.9246L2.63378 20.6317L11.3524 11.9131L10.6453 11.206ZM20.071 19.9246L11.3524 11.206L10.6453 11.9131L19.3639 20.6317L20.071 19.9246ZM20.4245 19.9246C20.3269 20.0223 20.1686 20.0223 20.071 19.9246L19.3639 20.6317C19.852 21.1199 20.6435 21.1199 21.1316 20.6317L20.4245 19.9246ZM20.4245 19.5711C20.5222 19.6687 20.5222 19.827 20.4245 19.9246L21.1316 20.6317C21.6198 20.1436 21.6198 19.3521 21.1316 18.864L20.4245 19.5711ZM11.7059 10.8525L20.4245 19.5711L21.1316 18.864L12.413 10.1454L11.7059 10.8525ZM20.4245 1.42678L11.7059 10.1454L12.413 10.8525L21.1316 2.13388L20.4245 1.42678Z" fill="#332F2E"/>
</svg>
