<svg width="20" height="20" viewBox="0 0 20 20" fill="none" xmlns="http://www.w3.org/2000/svg">
<path fill-rule="evenodd" clip-rule="evenodd" d="M1.73592 1.73592C1.95399 1.51786 2.24975 1.39535 2.55814 1.39535H10.9302C11.2386 1.39535 11.5344 1.51786 11.7524 1.73592C11.9705 1.95399 12.093 2.24975 12.093 2.55814V3.48837C12.093 3.87369 12.4054 4.18605 12.7907 4.18605C13.176 4.18605 13.4884 3.87369 13.4884 3.48837V2.55814C13.4884 1.87968 13.2189 1.22901 12.7391 0.749262C12.2594 0.269517 11.6087 0 10.9302 0H2.55814C1.87968 0 1.22901 0.269517 0.749262 0.749262C0.269517 1.22901 0 1.87968 0 2.55814V10.9302C0 11.6087 0.269517 12.2594 0.749262 12.7391C1.22901 13.2189 1.87968 13.4884 2.55814 13.4884H3.48837C3.87369 13.4884 4.18605 13.176 4.18605 12.7907C4.18605 12.4054 3.87369 12.093 3.48837 12.093H2.55814C2.24975 12.093 1.95399 11.9705 1.73592 11.7524C1.51786 11.5344 1.39535 11.2386 1.39535 10.9302V2.55814C1.39535 2.24975 1.51786 1.95399 1.73592 1.73592ZM7.90688 9.06968C7.90688 8.42748 8.42748 7.90688 9.06968 7.90688H17.4418C18.084 7.90688 18.6046 8.42748 18.6046 9.06968V17.4418C18.6046 18.084 18.084 18.6046 17.4418 18.6046H9.06968C8.42748 18.6046 7.90688 18.084 7.90688 17.4418V9.06968ZM9.06968 6.51154C7.65685 6.51154 6.51154 7.65685 6.51154 9.06968V17.4418C6.51154 18.8546 7.65685 19.9999 9.06968 19.9999H17.4418C18.8546 19.9999 19.9999 18.8546 19.9999 17.4418V9.06968C19.9999 7.65685 18.8546 6.51154 17.4418 6.51154H9.06968Z" fill="#F0D12F"/>
</svg>
