<svg width="22" height="19" viewBox="0 0 22 19" fill="none" xmlns="http://www.w3.org/2000/svg">
<path fill-rule="evenodd" clip-rule="evenodd" d="M13.6826 1.90615L14.8147 3.72935C15.1291 3.7531 15.4546 3.83621 15.746 4.02303C16.3362 4.40145 18.0681 5.61385 19.3938 6.5493C19.3456 6.46063 19.2991 6.37785 19.2555 6.30383C18.9533 5.79047 18.7564 5.49368 18.3031 5.1534C16.9598 4.14514 15.3628 3.05501 14.3582 2.36921C14.0826 2.18109 13.8516 2.02339 13.6826 1.90615ZM20.8711 7.80854C20.6866 7.40293 20.2377 6.45426 19.9171 5.90973C19.5985 5.36851 19.3392 4.96611 18.7629 4.53355C17.4033 3.51301 15.7646 2.39438 14.7628 1.71049C14.4139 1.47234 14.1423 1.28691 13.9865 1.1767C13.6207 0.917791 13.1872 0.853183 12.8109 0.864959C12.3367 0.879802 11.8884 1.01744 11.6229 1.13534C9.66167 1.88695 5.45255 3.50609 4.25309 3.99025C3.76602 4.18686 3.38607 4.42646 3.09535 4.67265C2.62176 5.07369 2.37362 5.50308 2.30376 5.79723L2.30203 5.80487C1.96886 7.34528 1.27131 10.5594 1.13917 11.1267C1 11.7242 0.937869 12.1359 1.08303 12.783C1.14152 13.0438 1.30652 13.6333 1.45258 14.1437C1.52648 14.402 1.59688 14.6447 1.64878 14.8227L1.71096 15.0354L1.72038 15.0675C1.72563 15.0871 1.7314 15.1066 1.73769 15.1258C1.83159 15.4126 2.03147 15.6301 2.24394 15.7878C2.45516 15.9447 2.70118 16.0596 2.9367 16.1382C3.94607 16.5266 7.54381 17.8266 8.16799 18.0122C8.86348 18.2189 9.58088 18.1475 10.0829 17.9454C11.6005 17.3346 14.5122 16.1455 15.7957 15.6214C16.0135 15.5325 16.1844 15.4627 16.2936 15.4181C16.3183 15.4081 16.343 15.398 16.3678 15.388C16.9415 15.1549 17.529 14.9162 17.9696 14.2249C18.3121 13.6877 18.9382 12.5353 19.5147 11.4572C19.7107 11.0905 19.9011 10.7322 20.0742 10.4067C20.4165 9.76263 20.6908 9.24673 20.8059 9.04715C21.0744 8.58154 21.0329 8.14188 20.8711 7.80854ZM4.66182 15.9543C6.05938 16.4646 7.8762 17.1133 8.35143 17.26C8.3388 17.254 8.32614 17.248 8.31347 17.2419C7.56224 16.8844 6.75042 16.4962 6.54941 16.3926C6.45143 16.3422 6.27738 16.2449 6.09736 16.1161C5.98157 16.0332 5.84987 15.9279 5.7333 15.8039C5.39163 15.854 5.01747 15.906 4.66182 15.9543ZM5.46158 15.062C5.46481 15.0172 5.46982 14.974 5.47558 14.9335C5.49774 14.7778 5.53825 14.6186 5.56394 14.5177C5.56828 14.5006 5.5722 14.4852 5.57554 14.4718C5.73279 13.8382 5.91478 13.2003 6.05703 12.7221C6.12825 12.4826 6.1897 12.2825 6.23341 12.1421C6.25527 12.0719 6.2727 12.0166 6.2847 11.9787L6.29721 11.9393C6.33647 11.7592 6.42236 11.5205 6.56468 11.2691L4.01277 8.73242C3.86371 8.91554 3.76518 9.10453 3.71248 9.2893C3.47464 10.1231 3.15751 11.3796 2.89973 12.497C2.7709 13.0554 2.65761 13.576 2.57675 13.9895C2.49243 14.4208 2.45231 14.6935 2.45231 14.7851C2.45231 14.8115 2.4554 14.8363 2.46127 14.8603L2.46952 14.8884C2.49838 14.9724 2.56947 15.0683 2.70054 15.1656C2.8133 15.2493 2.95456 15.3219 3.10707 15.3788L3.29828 15.3543C3.47385 15.3317 3.71982 15.2998 4.00138 15.2625C4.44611 15.2037 4.97828 15.1316 5.46158 15.062ZM1.96839 13.1357C2.02403 12.8789 2.08556 12.6047 2.15074 12.3222C2.41038 11.1967 2.73079 9.92658 2.97341 9.07601C3.07967 8.70346 3.29134 8.35597 3.58813 8.05179L3.12399 5.80824C3.08284 5.88253 3.06081 5.94016 3.05232 5.97403C2.71981 7.51138 2.02162 10.7286 1.88779 11.3031C1.76087 11.8481 1.72444 12.1285 1.83307 12.6128C1.8582 12.7249 1.90749 12.913 1.96839 13.1357ZM3.76816 5.12572L4.26375 7.52131C4.48035 7.38985 4.7198 7.2731 4.98027 7.17343L13.0025 4.10377C13.2251 3.99548 13.5636 3.86831 13.9467 3.79146L12.6205 1.6556C12.3384 1.69234 12.0802 1.77675 11.9266 1.84591L11.9166 1.85041L11.9064 1.85433C9.9458 2.60568 5.73292 4.22628 4.53944 4.70802C4.22479 4.83503 3.97095 4.97972 3.76816 5.12572ZM14.1738 4.53552C13.8301 4.59556 13.5158 4.71156 13.3253 4.8059L13.3091 4.81395L5.25365 7.8963C5.0045 7.99163 4.78519 8.1027 4.59552 8.22436L7.03514 10.6494C7.24885 10.436 7.51572 10.2388 7.84396 10.0924C8.75272 9.68726 11.3466 8.85432 12.5277 8.48838C12.8325 8.36542 13.3331 8.21822 13.8562 8.18306L14.1738 4.53552ZM14.624 8.22854C14.8737 8.28164 15.1204 8.38024 15.3338 8.54936C15.9891 9.06881 17.2925 10.0002 17.8662 10.4036L17.9611 10.4703L18.0036 10.5786C18.0151 10.6078 18.0267 10.6397 18.0384 10.674L20.1642 8.61563C20.2654 8.41439 20.2362 8.26194 20.1791 8.14563C20.124 8.03362 20.0372 7.94884 19.9795 7.90928L19.9745 7.90579C18.732 7.02386 16.0769 5.15236 15.3327 4.67524C15.2207 4.60345 15.0907 4.55443 14.9465 4.52589L14.624 8.22854ZM18.967 10.8484L18.201 11.59C18.209 11.9131 18.1617 12.2805 17.9833 12.6088C17.8262 12.8978 17.5419 13.4012 17.2509 13.9119C17.2752 13.8788 17.299 13.8441 17.3224 13.8074C17.6452 13.3011 18.2553 12.1795 18.8375 11.0908C18.8809 11.0097 18.9241 10.9288 18.967 10.8484ZM15.8826 14.7512C16.2763 14.0677 17.0182 12.7722 17.3087 12.2378C17.42 12.0329 17.4502 11.7574 17.4242 11.4696C17.4066 11.2739 17.3649 11.095 17.3246 10.9663C16.7102 10.5326 15.4958 9.66248 14.8579 9.15683C14.7033 9.03431 14.4768 8.96492 14.1905 8.95117C13.6825 8.92678 13.1124 9.08381 12.8017 9.2112L12.7859 9.21766L12.7696 9.22269C11.5779 9.59168 9.01673 10.4155 8.15553 10.7995C7.80263 10.9568 7.54656 11.1977 7.36702 11.4437C7.1684 11.7159 7.07308 11.9816 7.04599 12.1158L7.04168 12.1371L7.03502 12.1578L7.03058 12.1717L7.0173 12.2135C7.00566 12.2502 6.98862 12.3043 6.96718 12.3732C6.92428 12.511 6.8638 12.7079 6.79366 12.9437C6.6532 13.416 6.47484 14.0414 6.32153 14.6591C6.31676 14.6783 6.31179 14.698 6.30673 14.718C6.2807 14.8209 6.2524 14.9329 6.23672 15.0431C6.22756 15.1075 6.22525 15.1558 6.22737 15.1882C6.22757 15.1913 6.22781 15.1941 6.22805 15.1966C6.29364 15.2865 6.40618 15.3879 6.54312 15.4859C6.68488 15.5874 6.82504 15.6657 6.89993 15.7043C7.08699 15.8006 7.88287 16.1814 8.64233 16.5428C9.01978 16.7225 9.38515 16.8959 9.65617 17.0244L9.95247 17.1648C11.5037 16.5394 14.2636 15.4124 15.5053 14.9053C15.6546 14.8443 15.7819 14.7923 15.8826 14.7512ZM6.23002 15.2097C6.23001 15.2097 6.22988 15.2092 6.22969 15.2083L6.23002 15.2097Z" fill="#332F2E"/>
<path d="M6.23002 15.2097C6.23001 15.2097 6.22988 15.2092 6.22969 15.2083M14.8147 3.72935L13.6826 1.90615C13.8516 2.02339 14.0826 2.18109 14.3582 2.36921C15.3628 3.05501 16.9598 4.14514 18.3031 5.1534C18.7564 5.49368 18.9533 5.79047 19.2555 6.30383C19.2991 6.37785 19.3456 6.46063 19.3938 6.5493C18.0681 5.61385 16.3362 4.40145 15.746 4.02303C15.4546 3.83621 15.1291 3.7531 14.8147 3.72935ZM20.8711 7.80854C20.6866 7.40293 20.2377 6.45426 19.9171 5.90973C19.5985 5.36851 19.3392 4.96611 18.7629 4.53355C17.4033 3.51301 15.7646 2.39438 14.7628 1.71049C14.4139 1.47234 14.1423 1.28691 13.9865 1.1767C13.6207 0.917791 13.1872 0.853183 12.8109 0.864959C12.3367 0.879802 11.8884 1.01744 11.6229 1.13534C9.66167 1.88695 5.45255 3.50609 4.25309 3.99025C3.76602 4.18686 3.38607 4.42646 3.09535 4.67265C2.62176 5.07369 2.37362 5.50308 2.30376 5.79723L2.30203 5.80487C1.96886 7.34528 1.27131 10.5594 1.13917 11.1267C1 11.7242 0.937869 12.1359 1.08303 12.783C1.14152 13.0438 1.30652 13.6333 1.45258 14.1437C1.52648 14.402 1.59688 14.6447 1.64878 14.8227L1.71096 15.0354L1.72038 15.0675C1.72563 15.0871 1.7314 15.1066 1.73769 15.1258C1.83159 15.4126 2.03147 15.6301 2.24394 15.7878C2.45516 15.9447 2.70118 16.0596 2.9367 16.1382C3.94607 16.5266 7.54381 17.8266 8.16799 18.0122C8.86348 18.2189 9.58088 18.1475 10.0829 17.9454C11.6005 17.3346 14.5122 16.1455 15.7957 15.6214C16.0135 15.5325 16.1844 15.4627 16.2936 15.4181C16.3183 15.4081 16.343 15.398 16.3678 15.388C16.9415 15.1549 17.529 14.9162 17.9696 14.2249C18.3121 13.6877 18.9382 12.5353 19.5147 11.4572C19.7107 11.0905 19.9011 10.7322 20.0742 10.4067C20.4165 9.76263 20.6908 9.24673 20.8059 9.04715C21.0744 8.58154 21.0329 8.14188 20.8711 7.80854ZM8.35143 17.26C7.8762 17.1133 6.05938 16.4646 4.66182 15.9543C5.01747 15.906 5.39163 15.854 5.7333 15.8039C5.84987 15.9279 5.98157 16.0332 6.09736 16.1161C6.27738 16.2449 6.45143 16.3422 6.54941 16.3926C6.75042 16.4962 7.56224 16.8844 8.31347 17.2419C8.32614 17.248 8.3388 17.254 8.35143 17.26ZM5.47558 14.9335C5.46982 14.974 5.46481 15.0172 5.46158 15.062C4.97828 15.1316 4.44611 15.2037 4.00138 15.2625C3.71982 15.2998 3.47385 15.3317 3.29828 15.3543L3.10707 15.3788C2.95456 15.3219 2.8133 15.2493 2.70054 15.1656C2.56947 15.0683 2.49838 14.9724 2.46952 14.8884L2.46127 14.8603C2.4554 14.8363 2.45231 14.8115 2.45231 14.7851C2.45231 14.6935 2.49243 14.4208 2.57675 13.9895C2.65761 13.576 2.7709 13.0554 2.89973 12.497C3.1575 11.3796 3.47464 10.1231 3.71248 9.2893C3.76518 9.10453 3.86371 8.91554 4.01277 8.73242L6.56468 11.2691C6.42236 11.5205 6.33647 11.7592 6.29721 11.9393L6.2847 11.9787C6.2727 12.0166 6.25527 12.0719 6.23341 12.1421C6.1897 12.2825 6.12825 12.4826 6.05703 12.7221C5.91478 13.2003 5.73279 13.8382 5.57554 14.4718C5.5722 14.4852 5.56828 14.5006 5.56394 14.5177C5.53825 14.6186 5.49774 14.7778 5.47558 14.9335ZM2.15074 12.3222C2.08556 12.6047 2.02403 12.8789 1.96839 13.1357C1.90749 12.913 1.8582 12.7249 1.83307 12.6128C1.72444 12.1285 1.76087 11.8481 1.88779 11.3031C2.02162 10.7286 2.71981 7.51138 3.05232 5.97403C3.06081 5.94016 3.08284 5.88253 3.12399 5.80824L3.58813 8.05179C3.29134 8.35597 3.07967 8.70346 2.97341 9.07601C2.73079 9.92658 2.41038 11.1967 2.15074 12.3222ZM4.26375 7.52131L3.76816 5.12572C3.97095 4.97972 4.22479 4.83503 4.53944 4.70802C5.73292 4.22628 9.9458 2.60568 11.9064 1.85433L11.9166 1.85041L11.9266 1.84591C12.0802 1.77675 12.3384 1.69234 12.6205 1.6556L13.9467 3.79146C13.5636 3.86831 13.2251 3.99548 13.0025 4.10377L4.98027 7.17343C4.7198 7.2731 4.48035 7.38985 4.26375 7.52131ZM13.3253 4.8059C13.5158 4.71156 13.8301 4.59556 14.1738 4.53552L13.8562 8.18307C13.3331 8.21822 12.8325 8.36542 12.5277 8.48838C11.3466 8.85432 8.75272 9.68726 7.84396 10.0924C7.51572 10.2388 7.24885 10.436 7.03514 10.6494L4.59552 8.22436C4.78519 8.1027 5.0045 7.99163 5.25365 7.8963L13.3091 4.81395L13.3253 4.8059ZM15.3338 8.54936C15.1204 8.38024 14.8737 8.28164 14.624 8.22854L14.9465 4.52589C15.0907 4.55443 15.2207 4.60345 15.3327 4.67524C16.0769 5.15236 18.732 7.02386 19.9745 7.90579L19.9795 7.90928C20.0372 7.94884 20.124 8.03362 20.1791 8.14563C20.2362 8.26194 20.2654 8.41439 20.1642 8.61563L18.0384 10.674C18.0267 10.6397 18.0151 10.6078 18.0036 10.5786L17.9611 10.4703L17.8662 10.4036C17.2925 10.0002 15.9891 9.06881 15.3338 8.54936ZM18.201 11.59L18.967 10.8484C18.9241 10.9288 18.8809 11.0097 18.8375 11.0908C18.2553 12.1795 17.6452 13.3011 17.3224 13.8074C17.299 13.8441 17.2752 13.8788 17.2509 13.9119C17.5419 13.4012 17.8262 12.8978 17.9833 12.6088C18.1617 12.2805 18.209 11.9131 18.201 11.59ZM17.3087 12.2378C17.0182 12.7722 16.2763 14.0677 15.8826 14.7512C15.7819 14.7923 15.6546 14.8443 15.5053 14.9053C14.2636 15.4124 11.5037 16.5394 9.95247 17.1648L9.65617 17.0244C9.38515 16.8959 9.01978 16.7225 8.64233 16.5428C7.88287 16.1814 7.08699 15.8006 6.89993 15.7043C6.82504 15.6657 6.68487 15.5874 6.54312 15.4859C6.40618 15.3879 6.29364 15.2865 6.22805 15.1966C6.22781 15.1941 6.22757 15.1913 6.22737 15.1882C6.22525 15.1558 6.22756 15.1075 6.23672 15.0431C6.2524 14.9329 6.2807 14.8209 6.30673 14.718C6.31179 14.698 6.31676 14.6783 6.32153 14.6591C6.47484 14.0414 6.6532 13.416 6.79366 12.9437C6.8638 12.7079 6.92428 12.511 6.96718 12.3732C6.98862 12.3043 7.00566 12.2502 7.0173 12.2135L7.03058 12.1717L7.03502 12.1578L7.04168 12.1371L7.04599 12.1158C7.07308 11.9816 7.1684 11.7159 7.36702 11.4437C7.54656 11.1977 7.80263 10.9568 8.15553 10.7995C9.01673 10.4155 11.5779 9.59168 12.7696 9.22269L12.7859 9.21766L12.8017 9.2112C13.1124 9.08381 13.6825 8.92678 14.1905 8.95117C14.4768 8.96492 14.7033 9.03431 14.8579 9.15683C15.4958 9.66248 16.7102 10.5326 17.3246 10.9663C17.3649 11.095 17.4066 11.2739 17.4242 11.4696C17.4502 11.7574 17.42 12.0329 17.3087 12.2378Z" stroke="#332F2E" stroke-width="0.3"/>
</svg>
