<svg width="18" height="20" viewBox="0 0 18 20" fill="none" xmlns="http://www.w3.org/2000/svg">
<path d="M16.6923 1.30437H10.9231V0.652224C10.923 0.255895 10.5778 -0.0493391 10.1913 0.00663744L1.21699 1.31093C0.901183 1.35683 0.666656 1.63195 0.666656 1.95652V18.0427C0.666656 18.3673 0.901221 18.6424 1.21699 18.6883C10.7782 20.0779 10.214 19.9992 10.282 19.9992C10.6361 19.9992 10.9231 19.7069 10.9231 19.347V18.6949H16.6923C17.0463 18.6949 17.3333 18.4029 17.3333 18.0427V1.95652C17.3333 1.59636 17.0463 1.30437 16.6923 1.30437ZM9.641 18.595L1.94868 17.4771V2.52211L9.641 1.40418V18.595ZM10.923 5.21723H13.4871V14.782H10.923V5.21723ZM16.0512 17.3906H10.923V16.0863H14.1281C14.4822 16.0863 14.7692 15.7943 14.7692 15.4341V4.56508C14.7692 4.20492 14.4822 3.91293 14.1281 3.91293H10.923V2.60863H16.0512V17.3906Z" fill="#332F2E"/>
</svg>
