<svg width="18" height="18" viewBox="0 0 18 18" fill="none" xmlns="http://www.w3.org/2000/svg">
<path d="M1 17L17 1" stroke="#BDBDBD" stroke-linecap="square" stroke-linejoin="round"/>
<path d="M10.5385 2.5435H10.0385V2.0435V1.52183L10.5385 2.5435ZM10.5385 2.5435H15.1539C15.1553 2.5435 15.1556 2.54368 15.1559 2.54378C15.1564 2.54403 15.158 2.54486 15.1599 2.54681C15.1618 2.54877 15.1635 2.55127 15.1647 2.5541C15.1658 2.55662 15.1667 2.56008 15.1667 2.56522V15.4342C15.1667 15.4393 15.1658 15.4428 15.1647 15.4453C15.1635 15.4481 15.1618 15.4506 15.1599 15.4526C15.158 15.4546 15.1564 15.4554 15.1559 15.4556L15.1558 15.4556C15.1556 15.4558 15.1552 15.4559 15.1539 15.4559H10.5385H10.0385V15.9559V16.4776C10.0385 16.4827 10.0376 16.4861 10.0365 16.4886C10.0353 16.4915 10.0336 16.494 10.0317 16.496C10.0307 16.4969 10.0299 16.4976 10.0292 16.4981C10.029 16.4983 10.0288 16.4984 10.0286 16.4985C10.024 16.4979 10.0185 16.4972 10.0122 16.4963C9.93029 16.4853 9.74552 16.4588 9.31932 16.397C8.90006 16.3363 8.24991 16.2417 7.23963 16.0948C6.20173 15.9438 4.78374 15.7375 2.84556 15.4559C2.84445 15.4557 2.84389 15.4555 2.84326 15.4551C2.84242 15.4546 2.84094 15.4536 2.83928 15.4517C2.83598 15.4478 2.83337 15.4422 2.83337 15.4342V2.56522C2.83337 2.55722 2.83599 2.5516 2.83927 2.54775C2.84093 2.5458 2.84241 2.54477 2.84324 2.5443C2.84387 2.54395 2.84443 2.54371 2.84556 2.54355L2.77763 2.07614M10.5385 2.5435L2.77763 2.07614M2.77763 2.07614L2.84556 2.54355L10.0248 1.50015L10.0263 1.5M2.77763 2.07614L10.0263 1.5M10.0263 1.5L10.0266 1.50001M10.0263 1.5L10.0266 1.50001M10.0266 1.50001L10.0266 1.5M10.0266 1.50001L10.0266 1.5M10.0266 1.5C10.0266 1.5 10.0266 1.5 10.0267 1.50002M10.0266 1.5L10.0267 1.50002M10.0267 1.50002C10.0269 1.5001 10.0286 1.50069 10.0308 1.50267M10.0267 1.50002L10.0308 1.50267M10.0308 1.50267C10.0331 1.50466 10.035 1.50722 10.0363 1.51002M10.0308 1.50267L10.0363 1.51002M10.0363 1.51002C10.0373 1.51234 10.0385 1.51586 10.0385 1.52178L10.0363 1.51002ZM9.44094 16.3708L10.0128 16.454V15.876V2.12334V1.54542L9.44094 1.62854L3.28708 2.52288L2.85899 2.5851V3.01769V14.9817V15.4142L3.28708 15.4765L9.44094 16.3708ZM10.5385 4.67378H10.0385V5.17378V12.8256V13.3256H10.5385H12.5898H13.0898V12.8256V5.17378V4.67378H12.5898H10.5385ZM14.641 15.4125H15.141V14.9125V3.0869V2.5869H14.641H10.5385H10.0385V3.0869V4.13034V4.63034H10.5385H13.1026C13.1039 4.63034 13.1042 4.6305 13.1045 4.6306L13.1045 4.63062C13.1051 4.63088 13.1067 4.6317 13.1086 4.63366C13.1105 4.63561 13.1122 4.63812 13.1134 4.64095C13.1144 4.64347 13.1154 4.64692 13.1154 4.65206V13.3473C13.1154 13.3525 13.1144 13.3559 13.1134 13.3584C13.1122 13.3613 13.1105 13.3638 13.1086 13.3657C13.1067 13.3677 13.1051 13.3685 13.1045 13.3688L13.1045 13.3688C13.1042 13.3689 13.1039 13.369 13.1026 13.369H10.5385H10.0385V13.869V14.9125V15.4125H10.5385H14.641Z" fill="#E12032" stroke="#BDBDBD"/>
</svg>
