<svg width="18" height="18" viewBox="0 0 18 18" fill="none" xmlns="http://www.w3.org/2000/svg">
<path fill-rule="evenodd" clip-rule="evenodd" d="M16.9702 1.56071C17.1655 1.36544 17.1655 1.04886 16.9702 0.8536C16.775 0.658338 16.4584 0.658338 16.2631 0.8536L14.8653 2.25143C14.8386 2.24704 14.8112 2.24475 14.7832 2.24475H11.1939H10.1939V1.72598C10.1939 1.67588 10.187 1.62761 10.1741 1.58203C10.1234 1.40314 9.98093 1.26572 9.8052 1.22192C9.74396 1.20665 9.67869 1.20275 9.61187 1.21243L2.473 2.24997C2.4069 2.25958 2.34527 2.28181 2.29035 2.31406C2.17665 2.38081 2.09165 2.49049 2.05504 2.61999C2.04211 2.66571 2.03522 2.71388 2.03522 2.76352V15.0815L0.3536 16.7631C0.158338 16.9584 0.158338 17.275 0.3536 17.4702C0.548862 17.6655 0.865445 17.6655 1.06071 17.4702L2.45977 16.0712C2.46416 16.0719 2.46857 16.0726 2.473 16.0733C4.39994 16.3533 5.80987 16.5584 6.84196 16.7085C9.64352 17.116 9.66102 17.1186 9.67793 17.1164L9.67825 17.1164C9.6796 17.1162 9.68106 17.116 9.68402 17.116C9.72576 17.116 9.76632 17.1109 9.80515 17.1013C9.98268 17.0572 10.1238 16.9186 10.1741 16.741C10.187 16.6953 10.1939 16.6471 10.1939 16.5973V16.0785H11.1939H14.7832C15.0648 16.0785 15.2931 15.8462 15.2931 15.5597V3.23778L16.9702 1.56071ZM13.8345 3.28226H13.2733H11.1939H10.1939V3.31979V4.28226V4.31979H11.1939H12.7435C12.7607 4.31979 12.7776 4.32066 12.7944 4.32234L13.8345 3.28226ZM13.2534 5.27751L14.2733 4.25766V4.28226V14.0409V15.0409H13.2733H11.1939H10.1939V15.0034V14.0409V14.0034H11.1939H12.7435C12.811 14.0034 12.8754 13.9901 12.9343 13.9659C13.0786 13.9066 13.1901 13.7821 13.2336 13.6283C13.2465 13.5827 13.2534 13.5345 13.2534 13.4846V5.27751ZM11.7594 5.35733H11.2336H11.1939H10.1939V5.31979H10.1741V5.35733H10.1939V6.35733V6.92281L11.7594 5.35733ZM10.1939 8.33702L12.2336 6.29733V6.35733V11.9659V12.9659H11.2336H11.1939H10.1939V11.9659V8.33702ZM9.17409 7.94263V3.33465V2.32414L8.17409 2.46947L3.05504 3.21343V14.0617L9.17409 7.94263ZM3.37472 15.1562L9.17409 9.35684V14.9886V15.9991L8.17409 15.8537L3.37472 15.1562ZM14.2733 15.0409H14.2931V15.0785H14.2733V15.0409Z" fill="#332F2E"/>
</svg>
