<svg width="17" height="20" viewBox="0 0 17 20" fill="none" xmlns="http://www.w3.org/2000/svg">
<path fill-rule="evenodd" clip-rule="evenodd" d="M11.0132 5.94732C11.0132 6.28306 11.2853 6.55522 11.6211 6.55522C11.9568 6.55522 12.229 6.28306 12.229 5.94732V4.12361H15.6738C16.0095 4.12361 16.2817 3.85145 16.2817 3.51571C16.2817 3.17997 16.0095 2.90781 15.6738 2.90781L12.229 2.90781V1.0841C12.229 0.748364 11.9568 0.476196 11.6211 0.476196C11.2853 0.476196 11.0132 0.748364 11.0132 1.0841V3.51571V5.94732ZM8.37893 9.3921C8.0432 9.3921 7.77103 9.66427 7.77103 10C7.77103 10.3357 8.0432 10.6079 8.37893 10.6079H15.6738C16.0095 10.6079 16.2817 10.3357 16.2817 10C16.2817 9.66427 16.0095 9.3921 15.6738 9.3921H8.37893ZM0.476196 16.4843C0.476196 16.1486 0.748364 15.8764 1.0841 15.8764H6.75786C7.09359 15.8764 7.36576 16.1486 7.36576 16.4843C7.36576 16.82 7.09359 17.0922 6.75786 17.0922H1.0841C0.748364 17.0922 0.476196 16.82 0.476196 16.4843ZM10.6079 15.8764V14.0527C10.6079 13.717 10.3357 13.4448 10 13.4448C9.66427 13.4448 9.3921 13.717 9.3921 14.0527V16.4843V18.9159C9.3921 19.2516 9.66427 19.5238 10 19.5238C10.3357 19.5238 10.6079 19.2516 10.6079 18.9159V17.0922H15.6738C16.0095 17.0922 16.2817 16.82 16.2817 16.4843C16.2817 16.1486 16.0095 15.8764 15.6738 15.8764H10.6079ZM0.476196 10C0.476196 9.66427 0.748364 9.3921 1.0841 9.3921H4.52888V7.5684C4.52888 7.23266 4.80105 6.96049 5.13678 6.96049C5.47252 6.96049 5.74469 7.23266 5.74469 7.5684V10V12.4316C5.74469 12.7674 5.47252 13.0395 5.13678 13.0395C4.80105 13.0395 4.52888 12.7674 4.52888 12.4316V10.6079H1.0841C0.748364 10.6079 0.476196 10.3357 0.476196 10ZM0.476196 3.51575C0.476196 3.18002 0.748364 2.90785 1.0841 2.90785L8.37893 2.90785C8.71467 2.90785 8.98683 3.18002 8.98683 3.51575C8.98683 3.85149 8.71467 4.12366 8.37893 4.12366L1.0841 4.12366C0.748364 4.12366 0.476196 3.85149 0.476196 3.51575Z" fill="#332F2E"/>
<path fill-rule="evenodd" clip-rule="evenodd" d="M11.6211 0.952381C11.5483 0.952381 11.4894 1.01135 11.4894 1.08409V5.94732C11.4894 6.02006 11.5483 6.07903 11.6211 6.07903C11.6938 6.07903 11.7528 6.02006 11.7528 5.94732V4.12361C11.7528 3.86061 11.966 3.64742 12.229 3.64742H15.6738C15.7465 3.64742 15.8055 3.58845 15.8055 3.5157C15.8055 3.44296 15.7465 3.38399 15.6738 3.38399L12.229 3.38399C12.1027 3.38399 11.9816 3.33382 11.8923 3.24452C11.803 3.15522 11.7528 3.0341 11.7528 2.9078V1.08409C11.7528 1.01135 11.6938 0.952381 11.6211 0.952381ZM10.537 1.08409C10.537 0.485365 11.0223 0 11.6211 0C12.2198 0 12.7052 0.485366 12.7052 1.08409V2.43161L15.6738 2.43161C16.2725 2.43161 16.7579 2.91698 16.7579 3.5157C16.7579 4.11443 16.2725 4.5998 15.6738 4.5998H12.7052V5.94732C12.7052 6.54604 12.2198 7.03141 11.6211 7.03141C11.0223 7.03141 10.537 6.54604 10.537 5.94732V1.08409ZM1.08409 2.43166L8.37893 2.43166C8.97765 2.43166 9.46302 2.91702 9.46302 3.51575C9.46302 4.11448 8.97765 4.59984 8.37893 4.59984L1.08409 4.59984C0.485365 4.59984 0 4.11448 0 3.51575C0 2.91702 0.485365 2.43166 1.08409 2.43166ZM8.37893 3.38404L1.08409 3.38404C1.01135 3.38404 0.952381 3.44301 0.952381 3.51575C0.952381 3.58849 1.01135 3.64746 1.08409 3.64746L8.37893 3.64746C8.45167 3.64746 8.51064 3.58849 8.51064 3.51575C8.51064 3.44301 8.45167 3.38404 8.37893 3.38404ZM4.05268 7.56839C4.05268 6.96966 4.53805 6.4843 5.13678 6.4843C5.73551 6.4843 6.22087 6.96966 6.22087 7.56839V12.4316C6.22087 13.0303 5.73551 13.5157 5.13678 13.5157C4.53805 13.5157 4.05268 13.0303 4.05268 12.4316V11.0841H1.08409C0.485365 11.0841 0 10.5987 0 10C0 9.40127 0.485365 8.91591 1.08409 8.91591H4.05268V7.56839ZM5.13678 7.43668C5.06403 7.43668 5.00507 7.49565 5.00507 7.56839V9.3921C5.00507 9.65509 4.79187 9.86829 4.52887 9.86829H1.08409C1.01135 9.86829 0.952381 9.92726 0.952381 10C0.952381 10.0727 1.01135 10.1317 1.08409 10.1317H4.52888C4.79187 10.1317 5.00507 10.3449 5.00507 10.6079V12.4316C5.00507 12.5044 5.06404 12.5633 5.13678 12.5633C5.20952 12.5633 5.26849 12.5044 5.26849 12.4316V7.56839C5.26849 7.49565 5.20952 7.43668 5.13678 7.43668ZM8.37893 9.86829C8.30618 9.86829 8.24721 9.92726 8.24721 10C8.24721 10.0727 8.30618 10.1317 8.37893 10.1317H15.6738C15.7465 10.1317 15.8055 10.0727 15.8055 10C15.8055 9.92726 15.7465 9.86829 15.6738 9.86829H8.37893ZM7.29483 10C7.29483 9.40127 7.7802 8.91591 8.37893 8.91591H15.6738C16.2725 8.91591 16.7579 9.40127 16.7579 10C16.7579 10.5987 16.2725 11.0841 15.6738 11.0841H8.37893C7.7802 11.0841 7.29483 10.5987 7.29483 10ZM10 13.921C9.92726 13.921 9.86829 13.9799 9.86829 14.0527V18.9159C9.86829 18.9886 9.92726 19.0476 10 19.0476C10.0727 19.0476 10.1317 18.9886 10.1317 18.9159V17.0922C10.1317 16.8292 10.3449 16.616 10.6079 16.616H15.6738C15.7465 16.616 15.8055 16.557 15.8055 16.4843C15.8055 16.4116 15.7465 16.3526 15.6738 16.3526H10.6079C10.3449 16.3526 10.1317 16.1394 10.1317 15.8764V14.0527C10.1317 13.9799 10.0727 13.921 10 13.921ZM8.91591 14.0527C8.91591 13.454 9.40127 12.9686 10 12.9686C10.5987 12.9686 11.0841 13.454 11.0841 14.0527V15.4002H15.6738C16.2725 15.4002 16.7579 15.8856 16.7579 16.4843C16.7579 17.083 16.2725 17.5684 15.6738 17.5684H11.0841V18.9159C11.0841 19.5146 10.5987 20 10 20C9.40127 20 8.91591 19.5146 8.91591 18.9159V14.0527ZM0 16.4843C0 15.8856 0.485365 15.4002 1.08409 15.4002H6.75785C7.35658 15.4002 7.84195 15.8856 7.84195 16.4843C7.84195 17.083 7.35658 17.5684 6.75785 17.5684H1.08409C0.485365 17.5684 0 17.083 0 16.4843ZM1.08409 16.3526C1.01135 16.3526 0.952381 16.4116 0.952381 16.4843C0.952381 16.557 1.01135 16.616 1.08409 16.616H6.75785C6.83059 16.616 6.88956 16.557 6.88956 16.4843C6.88956 16.4116 6.83059 16.3526 6.75785 16.3526H1.08409Z" fill="#332F2E"/>
</svg>
