<svg width="24" height="23" viewBox="0 0 24 23" fill="none" xmlns="http://www.w3.org/2000/svg">
<path fill-rule="evenodd" clip-rule="evenodd" d="M11.0131 8.44732C11.0131 8.78306 11.2852 9.05522 11.621 9.05522C11.9567 9.05522 12.2289 8.78306 12.2289 8.44732V6.62361H15.6736C16.0094 6.62361 16.2815 6.35145 16.2815 6.01571C16.2815 5.67997 16.0094 5.40781 15.6736 5.40781L12.2289 5.40781V3.5841C12.2289 3.24836 11.9567 2.9762 11.621 2.9762C11.2852 2.9762 11.0131 3.24836 11.0131 3.5841V6.01571V8.44732ZM8.37881 11.8921C8.04307 11.8921 7.77091 12.1643 7.77091 12.5C7.77091 12.8357 8.04307 13.1079 8.37881 13.1079H15.6736C16.0094 13.1079 16.2815 12.8357 16.2815 12.5C16.2815 12.1643 16.0094 11.8921 15.6736 11.8921H8.37881ZM0.476074 18.9843C0.476074 18.6486 0.748241 18.3764 1.08398 18.3764H6.75774C7.09347 18.3764 7.36564 18.6486 7.36564 18.9843C7.36564 19.32 7.09347 19.5922 6.75774 19.5922H1.08398C0.748242 19.5922 0.476074 19.32 0.476074 18.9843ZM10.6078 18.3764V16.5527C10.6078 16.217 10.3356 15.9448 9.99988 15.9448C9.66415 15.9448 9.39198 16.217 9.39198 16.5527V18.9843V21.4159C9.39198 21.7516 9.66415 22.0238 9.99988 22.0238C10.3356 22.0238 10.6078 21.7516 10.6078 21.4159V19.5922H15.6736C16.0094 19.5922 16.2815 19.32 16.2815 18.9843C16.2815 18.6486 16.0094 18.3764 15.6736 18.3764H10.6078ZM0.476074 12.5C0.476074 12.1643 0.748241 11.8921 1.08398 11.8921H4.52876V10.0684C4.52876 9.73266 4.80093 9.46049 5.13666 9.46049C5.4724 9.46049 5.74456 9.73266 5.74456 10.0684V12.5V14.9316C5.74456 15.2674 5.4724 15.5395 5.13666 15.5395C4.80093 15.5395 4.52876 15.2674 4.52876 14.9316V13.1079H1.08398C0.748242 13.1079 0.476074 12.8357 0.476074 12.5ZM0.476074 6.01575C0.476074 5.68002 0.748241 5.40785 1.08398 5.40785L8.37881 5.40785C8.71455 5.40785 8.98671 5.68002 8.98671 6.01575C8.98671 6.35149 8.71455 6.62366 8.37881 6.62366L1.08398 6.62366C0.748242 6.62366 0.476074 6.35149 0.476074 6.01575Z" fill="#332F2E"/>
<path fill-rule="evenodd" clip-rule="evenodd" d="M11.6211 3.45238C11.5483 3.45238 11.4894 3.51135 11.4894 3.58409V8.44732C11.4894 8.52006 11.5483 8.57903 11.6211 8.57903C11.6938 8.57903 11.7528 8.52006 11.7528 8.44732V6.62361C11.7528 6.36061 11.966 6.14742 12.229 6.14742H15.6738C15.7465 6.14742 15.8055 6.08845 15.8055 6.0157C15.8055 5.94296 15.7465 5.88399 15.6738 5.88399L12.229 5.88399C12.1027 5.88399 11.9816 5.83382 11.8923 5.74452C11.803 5.65522 11.7528 5.5341 11.7528 5.4078V3.58409C11.7528 3.51135 11.6938 3.45238 11.6211 3.45238ZM10.537 3.58409C10.537 2.98537 11.0223 2.5 11.6211 2.5C12.2198 2.5 12.7052 2.98537 12.7052 3.58409V4.93161L15.6738 4.93161C16.2725 4.93161 16.7579 5.41698 16.7579 6.0157C16.7579 6.61443 16.2725 7.0998 15.6738 7.0998H12.7052V8.44732C12.7052 9.04604 12.2198 9.53141 11.6211 9.53141C11.0223 9.53141 10.537 9.04604 10.537 8.44732V3.58409ZM1.08409 4.93166L8.37893 4.93166C8.97765 4.93166 9.46302 5.41702 9.46302 6.01575C9.46302 6.61448 8.97765 7.09984 8.37893 7.09984L1.08409 7.09984C0.485365 7.09984 0 6.61448 0 6.01575C0 5.41702 0.485365 4.93166 1.08409 4.93166ZM8.37893 5.88404L1.08409 5.88404C1.01135 5.88404 0.952381 5.94301 0.952381 6.01575C0.952381 6.08849 1.01135 6.14746 1.08409 6.14746L8.37893 6.14746C8.45167 6.14746 8.51064 6.08849 8.51064 6.01575C8.51064 5.94301 8.45167 5.88404 8.37893 5.88404ZM4.05268 10.0684C4.05268 9.46966 4.53805 8.9843 5.13678 8.9843C5.73551 8.9843 6.22087 9.46966 6.22087 10.0684V14.9316C6.22087 15.5303 5.73551 16.0157 5.13678 16.0157C4.53805 16.0157 4.05268 15.5303 4.05268 14.9316V13.5841H1.08409C0.485365 13.5841 0 13.0987 0 12.5C0 11.9013 0.485365 11.4159 1.08409 11.4159H4.05268V10.0684ZM5.13678 9.93668C5.06403 9.93668 5.00507 9.99565 5.00507 10.0684V11.8921C5.00507 12.1551 4.79187 12.3683 4.52887 12.3683H1.08409C1.01135 12.3683 0.952381 12.4273 0.952381 12.5C0.952381 12.5727 1.01135 12.6317 1.08409 12.6317H4.52888C4.79187 12.6317 5.00507 12.8449 5.00507 13.1079V14.9316C5.00507 15.0044 5.06404 15.0633 5.13678 15.0633C5.20952 15.0633 5.26849 15.0044 5.26849 14.9316V10.0684C5.26849 9.99565 5.20952 9.93668 5.13678 9.93668ZM8.37893 12.3683C8.30618 12.3683 8.24721 12.4273 8.24721 12.5C8.24721 12.5727 8.30618 12.6317 8.37893 12.6317H15.6738C15.7465 12.6317 15.8055 12.5727 15.8055 12.5C15.8055 12.4273 15.7465 12.3683 15.6738 12.3683H8.37893ZM7.29483 12.5C7.29483 11.9013 7.7802 11.4159 8.37893 11.4159H15.6738C16.2725 11.4159 16.7579 11.9013 16.7579 12.5C16.7579 13.0987 16.2725 13.5841 15.6738 13.5841H8.37893C7.7802 13.5841 7.29483 13.0987 7.29483 12.5ZM10 16.421C9.92726 16.421 9.86829 16.4799 9.86829 16.5527V21.4159C9.86829 21.4886 9.92726 21.5476 10 21.5476C10.0727 21.5476 10.1317 21.4886 10.1317 21.4159V19.5922C10.1317 19.3292 10.3449 19.116 10.6079 19.116H15.6738C15.7465 19.116 15.8055 19.057 15.8055 18.9843C15.8055 18.9116 15.7465 18.8526 15.6738 18.8526H10.6079C10.3449 18.8526 10.1317 18.6394 10.1317 18.3764V16.5527C10.1317 16.4799 10.0727 16.421 10 16.421ZM8.91591 16.5527C8.91591 15.954 9.40127 15.4686 10 15.4686C10.5987 15.4686 11.0841 15.954 11.0841 16.5527V17.9002H15.6738C16.2725 17.9002 16.7579 18.3856 16.7579 18.9843C16.7579 19.583 16.2725 20.0684 15.6738 20.0684H11.0841V21.4159C11.0841 22.0146 10.5987 22.5 10 22.5C9.40127 22.5 8.91591 22.0146 8.91591 21.4159V16.5527ZM0 18.9843C0 18.3856 0.485365 17.9002 1.08409 17.9002H6.75785C7.35658 17.9002 7.84195 18.3856 7.84195 18.9843C7.84195 19.583 7.35658 20.0684 6.75785 20.0684H1.08409C0.485365 20.0684 0 19.583 0 18.9843ZM1.08409 18.8526C1.01135 18.8526 0.952381 18.9116 0.952381 18.9843C0.952381 19.057 1.01135 19.116 1.08409 19.116H6.75785C6.83059 19.116 6.88956 19.057 6.88956 18.9843C6.88956 18.9116 6.83059 18.8526 6.75785 18.8526H1.08409Z" fill="#332F2E"/>
<circle cx="22" cy="2.5" r="2" fill="#732F37"/>
</svg>
