<svg width="12" height="8" viewBox="0 0 12 8" fill="none" xmlns="http://www.w3.org/2000/svg">
<path fill-rule="evenodd" clip-rule="evenodd" d="M0 1.9175C0 1.77132 0.0627309 1.63979 0.162741 1.54836C0.717858 0.713215 3.11929 0.0849609 5.99761 0.0849609C8.87594 0.0849609 11.2774 0.713216 11.8325 1.54837C11.9325 1.63979 11.9952 1.77132 11.9952 1.9175V5.58257C11.9952 6.03419 11.746 6.40245 11.4222 6.67716C11.099 6.95142 10.6567 7.17418 10.1427 7.35114C9.11055 7.70647 7.67699 7.91511 5.99761 7.91511C4.31823 7.91511 2.88467 7.70647 1.85257 7.35114C1.33856 7.17418 0.896265 6.95142 0.572985 6.67716C0.249186 6.40245 0 6.03419 0 5.58257V1.9175ZM1 5.58257C1 5.637 1.02686 5.75082 1.21991 5.9146C1.41349 6.07883 1.72886 6.25094 2.17809 6.40561C3.07248 6.71352 4.38773 6.91511 5.99761 6.91511C7.6075 6.91511 8.92274 6.71352 9.81713 6.40561C10.2664 6.25094 10.5817 6.07883 10.7753 5.9146C10.9684 5.75082 10.9952 5.637 10.9952 5.58257V2.91468C9.93334 3.4175 8.09168 3.75004 5.99761 3.75004C3.90354 3.75004 2.06189 3.4175 1 2.91468V5.58257ZM11.0027 1.72964C11.003 1.72966 11.0012 1.7325 10.9962 1.73808C10.9999 1.7324 11.0024 1.72961 11.0027 1.72964ZM10.7477 1.9175C10.5601 1.81043 10.2858 1.69159 9.91488 1.57748C8.95625 1.28251 7.57107 1.08496 5.99761 1.08496C4.42416 1.08496 3.03898 1.28251 2.08035 1.57748C1.70947 1.69159 1.43515 1.81043 1.24751 1.9175C1.43515 2.02456 1.70947 2.1434 2.08035 2.25752C3.03898 2.55248 4.42416 2.75004 5.99761 2.75004C7.57107 2.75004 8.95625 2.55248 9.91488 2.25752C10.2858 2.1434 10.5601 2.02457 10.7477 1.9175ZM0.992532 1.72964C0.992848 1.72961 0.995329 1.7324 0.999024 1.73808C0.994063 1.7325 0.992215 1.72966 0.992532 1.72964Z" fill="#27AE60"/>
</svg>
