<svg width="14" height="14" viewBox="0 0 14 14" fill="none" xmlns="http://www.w3.org/2000/svg">
<path fill-rule="evenodd" clip-rule="evenodd" d="M2.81175 2.81175C3.92254 1.70096 5.4291 1.07692 7 1.07692C8.5709 1.07692 10.0775 1.70096 11.1882 2.81175C12.299 3.92254 12.9231 5.4291 12.9231 7V7.89744H11.3077C10.7841 7.89744 10.2819 8.10545 9.91161 8.47571C9.54135 8.84598 9.33333 9.34816 9.33333 9.8718V12.0256C9.33333 12.5493 9.54135 13.0515 9.91161 13.4217C10.2819 13.792 10.7841 14 11.3077 14H12.0256C12.5493 14 13.0515 13.792 13.4217 13.4217C13.792 13.0515 14 12.5493 14 12.0256V11.3077V8.4359V7C14 5.14348 13.2625 3.36301 11.9497 2.05025C10.637 0.737498 8.85652 0 7 0C5.14348 0 3.36301 0.737498 2.05025 2.05025C0.737498 3.36301 0 5.14348 0 7V8.4359V11.3077V12.0256C0 12.5493 0.208012 13.0515 0.578276 13.4217C0.94854 13.792 1.45073 14 1.97436 14H2.69231C3.21594 14 3.71813 13.792 4.08839 13.4217C4.45865 13.0515 4.66667 12.5493 4.66667 12.0256V9.8718C4.66667 9.34816 4.45865 8.84598 4.08839 8.47571C3.71813 8.10545 3.21594 7.89744 2.69231 7.89744H1.07692V7C1.07692 5.4291 1.70096 3.92254 2.81175 2.81175ZM1.07692 8.97436V11.3077V12.0256C1.07692 12.2637 1.17147 12.4919 1.33978 12.6602C1.50808 12.8285 1.73634 12.9231 1.97436 12.9231H2.69231C2.93032 12.9231 3.15859 12.8285 3.32689 12.6602C3.49519 12.4919 3.58974 12.2637 3.58974 12.0256V9.8718C3.58974 9.63378 3.49519 9.40552 3.32689 9.23721C3.15859 9.06891 2.93032 8.97436 2.69231 8.97436H1.07692ZM12.9231 8.97436H11.3077C11.0697 8.97436 10.8414 9.06891 10.6731 9.23721C10.5048 9.40552 10.4103 9.63378 10.4103 9.8718V12.0256C10.4103 12.2637 10.5048 12.4919 10.6731 12.6602C10.8414 12.8285 11.0697 12.9231 11.3077 12.9231H12.0256C12.2637 12.9231 12.4919 12.8285 12.6602 12.6602C12.8285 12.4919 12.9231 12.2637 12.9231 12.0256V11.3077V8.97436Z" fill="white"/>
</svg>
