<svg width="24" height="21" viewBox="0 0 24 21" fill="none" xmlns="http://www.w3.org/2000/svg">
<path d="M15.168 6.6044H13.8642C13.6242 6.6044 13.4296 6.40983 13.4296 6.1698C13.4296 5.92977 13.6242 5.7352 13.8642 5.7352H15.168V4.4314C15.168 4.19137 15.3626 3.9968 15.6026 3.9968C15.8426 3.9968 16.0372 4.19137 16.0372 4.4314V5.7352H17.341C17.581 5.7352 17.7756 5.92977 17.7756 6.1698C17.7756 6.40983 17.581 6.6044 17.341 6.6044H16.0372V7.90821C16.0372 8.14824 15.8426 8.34281 15.6026 8.34281C15.3626 8.34281 15.168 8.14824 15.168 7.90821V6.6044Z" fill="#332F2E"/>
<path fill-rule="evenodd" clip-rule="evenodd" d="M15.3689 11.7482C15.4415 11.7959 15.5246 11.8197 15.6078 11.8197C15.691 11.8197 15.7742 11.7959 15.8467 11.7482C22.2217 7.55381 22.4318 4.45028 21.9895 2.97364C21.5055 1.35744 19.9428 0.511841 18.6492 0.511841C17.1211 0.511841 16.1113 1.38508 15.6079 1.96715C15.1045 1.38508 14.0947 0.511841 12.567 0.511841C11.2748 0.511841 9.71303 1.35888 9.22819 2.97785C8.7862 4.4535 8.99633 7.55516 15.3689 11.7482ZM10.0608 3.22723C10.4199 2.02812 11.6201 1.38109 12.5669 1.38109C14.3002 1.38109 15.1939 2.84752 15.2333 2.91362C15.3114 3.0463 15.4538 3.12775 15.6078 3.12775C15.7622 3.12775 15.905 3.04583 15.983 2.91258C15.9919 2.89723 16.8991 1.38109 18.6492 1.38109C19.5974 1.38109 20.7986 2.02664 21.1569 3.22301C21.4531 4.21225 21.4928 6.91964 15.6078 10.8635C9.7252 6.92103 9.76479 4.21568 10.0608 3.22723Z" fill="#332F2E"/>
<path fill-rule="evenodd" clip-rule="evenodd" d="M1.4346 18.8045H5.17217C5.27177 18.8045 5.2887 18.8045 5.30549 18.803C5.30892 18.8027 5.31235 18.8023 5.31649 18.8019C5.34081 18.7992 5.38947 18.7939 5.60677 18.7833C7.0117 18.8475 7.94232 19.2196 8.92217 19.6116C10.0287 20.0542 11.1729 20.5118 12.995 20.5118C13.6999 20.5118 17.4984 19.1922 19.4484 18.5147L19.4502 18.5141C19.7135 18.4226 19.943 18.3429 20.1266 18.2797C20.138 18.2758 20.1491 18.2714 20.1599 18.2667C20.1713 18.2628 20.1827 18.2583 20.1939 18.2534C21.0489 17.8771 21.6146 17.6102 22.2569 17.3031C22.8611 17.0167 23.2516 16.3997 23.2516 15.7312C23.2516 14.7727 22.4717 13.9928 21.5132 13.9928C21.2979 13.9928 21.0873 14.0319 20.8874 14.1092L16.8807 15.5902C16.8974 15.4942 16.9064 15.396 16.9064 15.2966C16.9064 14.3381 16.1265 13.5582 15.168 13.5582H12.3535C12.2789 13.5582 12.2052 13.539 12.1403 13.5024L10.042 12.322C8.32612 11.3569 7.0375 11.9449 6.0966 12.3743C5.72673 12.5431 5.40704 12.689 5.17217 12.689H1.4346C1.19461 12.689 1 12.8836 1 13.1236V18.3699C1 18.6099 1.19461 18.8045 1.4346 18.8045ZM20.8052 17.0257C20.5208 17.1562 20.1974 17.3022 19.8438 17.4578C19.6217 17.5342 19.3238 17.6384 18.9759 17.76C17.0497 18.4335 13.5912 19.6426 12.995 19.6426C11.3403 19.6426 10.3225 19.2355 9.24499 18.8045C8.2292 18.3982 7.18129 17.9795 5.60677 17.9135V13.4979C5.88535 13.4258 6.16601 13.2981 6.45728 13.1651C7.31391 12.7742 8.28507 12.331 9.61583 13.0795L11.7138 14.2598C11.9085 14.3695 12.1297 14.4274 12.3535 14.4274H15.168C15.6473 14.4274 16.0372 14.8174 16.0372 15.2966C16.0372 15.6526 15.8145 15.9781 15.4815 16.1071C15.382 16.1461 15.2765 16.1658 15.168 16.1658H10.7498C10.5099 16.1658 10.3152 16.3604 10.3152 16.6004C10.3152 16.8405 10.5099 17.035 10.7498 17.035H15.168C15.3793 17.035 15.5856 16.997 15.7802 16.9232C15.7836 16.922 15.7872 16.9212 15.7906 16.9199L21.1986 14.9207C21.2989 14.8818 21.4047 14.862 21.5132 14.862C21.9924 14.862 22.3824 15.2519 22.3824 15.7312C22.3824 16.0656 22.187 16.3742 21.8857 16.517L21.8509 16.5338C21.7866 16.5648 21.7146 16.5996 21.593 16.6575C21.4125 16.7478 21.1564 16.865 20.9299 16.9686L20.8052 17.0257ZM1.8692 13.5582H4.73757V17.9135H1.8692V13.5582Z" fill="#332F2E"/>
<path d="M15.168 6.6044H13.8642C13.6242 6.6044 13.4296 6.40983 13.4296 6.1698C13.4296 5.92977 13.6242 5.7352 13.8642 5.7352H15.168V4.4314C15.168 4.19137 15.3626 3.9968 15.6026 3.9968C15.8426 3.9968 16.0372 4.19137 16.0372 4.4314V5.7352H17.341C17.581 5.7352 17.7756 5.92977 17.7756 6.1698C17.7756 6.40983 17.581 6.6044 17.341 6.6044H16.0372V7.90821C16.0372 8.14824 15.8426 8.34281 15.6026 8.34281C15.3626 8.34281 15.168 8.14824 15.168 7.90821V6.6044Z" stroke="#332F2E" stroke-width="0.5"/>
<path fill-rule="evenodd" clip-rule="evenodd" d="M15.3689 11.7482C15.4415 11.7959 15.5246 11.8197 15.6078 11.8197C15.691 11.8197 15.7742 11.7959 15.8467 11.7482C22.2217 7.55381 22.4318 4.45028 21.9895 2.97364C21.5055 1.35744 19.9428 0.511841 18.6492 0.511841C17.1211 0.511841 16.1113 1.38508 15.6079 1.96715C15.1045 1.38508 14.0947 0.511841 12.567 0.511841C11.2748 0.511841 9.71303 1.35888 9.22819 2.97785C8.7862 4.4535 8.99633 7.55516 15.3689 11.7482ZM10.0608 3.22723C10.4199 2.02812 11.6201 1.38109 12.5669 1.38109C14.3002 1.38109 15.1939 2.84752 15.2333 2.91362C15.3114 3.0463 15.4538 3.12775 15.6078 3.12775C15.7622 3.12775 15.905 3.04583 15.983 2.91258C15.9919 2.89723 16.8991 1.38109 18.6492 1.38109C19.5974 1.38109 20.7986 2.02664 21.1569 3.22301C21.4531 4.21225 21.4928 6.91964 15.6078 10.8635C9.7252 6.92103 9.76479 4.21568 10.0608 3.22723Z" stroke="#332F2E" stroke-width="0.5"/>
<path fill-rule="evenodd" clip-rule="evenodd" d="M1.4346 18.8045H5.17217C5.27177 18.8045 5.2887 18.8045 5.30549 18.803C5.30892 18.8027 5.31235 18.8023 5.31649 18.8019C5.34081 18.7992 5.38947 18.7939 5.60677 18.7833C7.0117 18.8475 7.94232 19.2196 8.92217 19.6116C10.0287 20.0542 11.1729 20.5118 12.995 20.5118C13.6999 20.5118 17.4984 19.1922 19.4484 18.5147L19.4502 18.5141C19.7135 18.4226 19.943 18.3429 20.1266 18.2797C20.138 18.2758 20.1491 18.2714 20.1599 18.2667C20.1713 18.2628 20.1827 18.2583 20.1939 18.2534C21.0489 17.8771 21.6146 17.6102 22.2569 17.3031C22.8611 17.0167 23.2516 16.3997 23.2516 15.7312C23.2516 14.7727 22.4717 13.9928 21.5132 13.9928C21.2979 13.9928 21.0873 14.0319 20.8874 14.1092L16.8807 15.5902C16.8974 15.4942 16.9064 15.396 16.9064 15.2966C16.9064 14.3381 16.1265 13.5582 15.168 13.5582H12.3535C12.2789 13.5582 12.2052 13.539 12.1403 13.5024L10.042 12.322C8.32612 11.3569 7.0375 11.9449 6.0966 12.3743C5.72673 12.5431 5.40704 12.689 5.17217 12.689H1.4346C1.19461 12.689 1 12.8836 1 13.1236V18.3699C1 18.6099 1.19461 18.8045 1.4346 18.8045ZM20.8052 17.0257C20.5208 17.1562 20.1974 17.3022 19.8438 17.4578C19.6217 17.5342 19.3238 17.6384 18.9759 17.76C17.0497 18.4335 13.5912 19.6426 12.995 19.6426C11.3403 19.6426 10.3225 19.2355 9.24499 18.8045C8.2292 18.3982 7.18129 17.9795 5.60677 17.9135V13.4979C5.88535 13.4258 6.16601 13.2981 6.45728 13.1651C7.31391 12.7742 8.28507 12.331 9.61583 13.0795L11.7138 14.2598C11.9085 14.3695 12.1297 14.4274 12.3535 14.4274H15.168C15.6473 14.4274 16.0372 14.8174 16.0372 15.2966C16.0372 15.6526 15.8145 15.9781 15.4815 16.1071C15.382 16.1461 15.2765 16.1658 15.168 16.1658H10.7498C10.5099 16.1658 10.3152 16.3604 10.3152 16.6004C10.3152 16.8405 10.5099 17.035 10.7498 17.035H15.168C15.3793 17.035 15.5856 16.997 15.7802 16.9232C15.7836 16.922 15.7872 16.9212 15.7906 16.9199L21.1986 14.9207C21.2989 14.8818 21.4047 14.862 21.5132 14.862C21.9924 14.862 22.3824 15.2519 22.3824 15.7312C22.3824 16.0656 22.187 16.3742 21.8857 16.517L21.8509 16.5338C21.7866 16.5648 21.7146 16.5996 21.593 16.6575C21.4125 16.7478 21.1564 16.865 20.9299 16.9686L20.8052 17.0257ZM1.8692 13.5582H4.73757V17.9135H1.8692V13.5582Z" stroke="#332F2E" stroke-width="0.5"/>
</svg>
