<svg width="14" height="14" viewBox="0 0 14 14" fill="none" xmlns="http://www.w3.org/2000/svg">
<path fill-rule="evenodd" clip-rule="evenodd" d="M7 13.0233C3.67345 13.0233 0.976744 10.3266 0.976744 7C0.976744 3.67345 3.67345 0.976744 7 0.976744C10.3266 0.976744 13.0233 3.67345 13.0233 7C13.0233 10.3266 10.3266 13.0233 7 13.0233ZM0 7C0 10.866 3.13401 14 7 14C10.866 14 14 10.866 14 7C14 3.13401 10.866 0 7 0C3.13401 0 0 3.13401 0 7Z" fill="#BDBDBD"/>
<path fill-rule="evenodd" clip-rule="evenodd" d="M6.99994 10.0931C7.26966 10.0931 7.48831 9.87449 7.48831 9.60477V7.00012C7.48831 6.7304 7.26966 6.51174 6.99994 6.51174C6.73022 6.51174 6.51157 6.7304 6.51157 7.00012V9.60477C6.51157 9.87449 6.73022 10.0931 6.99994 10.0931Z" fill="#BDBDBD"/>
<path d="M7.6512 4.39535C7.6512 4.03572 7.35967 3.74418 7.00004 3.74418C6.64041 3.74418 6.34888 4.03572 6.34888 4.39535C6.34888 4.75497 6.64041 5.04651 7.00004 5.04651C7.35967 5.04651 7.6512 4.75497 7.6512 4.39535Z" fill="#BDBDBD"/>
<path fill-rule="evenodd" clip-rule="evenodd" d="M7.00004 4.72093C6.82023 4.72093 6.67446 4.57516 6.67446 4.39535C6.67446 4.21553 6.82023 4.06976 7.00004 4.06976C7.17985 4.06976 7.32562 4.21553 7.32562 4.39535C7.32562 4.57516 7.17985 4.72093 7.00004 4.72093ZM7.00004 3.74418C7.35967 3.74418 7.6512 4.03572 7.6512 4.39535C7.6512 4.75497 7.35967 5.04651 7.00004 5.04651C6.64041 5.04651 6.34888 4.75497 6.34888 4.39535C6.34888 4.03572 6.64041 3.74418 7.00004 3.74418Z" fill="#BDBDBD"/>
</svg>
