<svg width="20" height="20" viewBox="0 0 20 20" fill="none" xmlns="http://www.w3.org/2000/svg">
<path fill-rule="evenodd" clip-rule="evenodd" d="M1.39535 10C1.39535 14.7522 5.24778 18.6047 10 18.6047C14.7522 18.6047 18.6047 14.7522 18.6047 10C18.6047 5.24778 14.7522 1.39535 10 1.39535C5.24778 1.39535 1.39535 5.24778 1.39535 10ZM10 20C4.47715 20 0 15.5228 0 10C0 4.47715 4.47715 0 10 0C15.5228 0 20 4.47715 20 10C20 15.5228 15.5228 20 10 20ZM10.6977 9.99996C10.6977 10.3853 10.3854 10.6976 10 10.6976C9.61473 10.6976 9.30237 10.3853 9.30237 9.99996V6.27903C9.30237 5.89371 9.61473 5.58135 10 5.58135C10.3854 5.58135 10.6977 5.89371 10.6977 6.27903V9.99996ZM10.9303 13.721C10.9303 13.2072 10.5138 12.7907 10.0001 12.7907C9.4863 12.7907 9.06982 13.2072 9.06982 13.721C9.06982 14.2347 9.4863 14.6512 10.0001 14.6512C10.5138 14.6512 10.9303 14.2347 10.9303 13.721Z" fill="#BDBDBD"/>
</svg>
