<svg width="18" height="20" viewBox="0 0 18 20" fill="none" xmlns="http://www.w3.org/2000/svg">
<path fill-rule="evenodd" clip-rule="evenodd" d="M4.03519 3.3331C5.35194 2.01635 7.13784 1.2766 9.00001 1.2766C10.8622 1.2766 12.6481 2.01635 13.9648 3.3331C15.2816 4.64985 16.0213 6.43575 16.0213 8.29792C16.0213 11.0201 14.256 13.6305 12.3664 15.6249C11.4347 16.6084 10.5009 17.4128 9.79921 17.9715C9.47385 18.2306 9.19953 18.436 9.00001 18.581C8.80048 18.436 8.52617 18.2306 8.20081 17.9715C7.49915 17.4128 6.56528 16.6084 5.63358 15.6249C3.74407 13.6305 1.97869 11.0201 1.97869 8.29792C1.97869 6.43575 2.71843 4.64985 4.03519 3.3331ZM8.64558 19.8927C8.64577 19.8928 8.64594 19.8929 9.00001 19.3618L9.35408 19.8929C9.13967 20.0359 8.85998 20.0356 8.64558 19.8927ZM8.64558 19.8927L9.00001 19.3618C9.35408 19.8929 9.35479 19.8924 9.35499 19.8923L9.35659 19.8912L9.36189 19.8877L9.38062 19.875C9.39667 19.8641 9.41978 19.8483 9.44946 19.8278C9.50882 19.7866 9.59454 19.7264 9.70285 19.6482C9.91941 19.4918 10.2267 19.263 10.5944 18.9702C11.329 18.3853 12.31 17.5407 13.2932 16.5029C15.2335 14.4548 17.2979 11.5332 17.2979 8.29792C17.2979 6.09718 16.4237 3.98657 14.8675 2.4304C13.3114 0.874243 11.2008 0 9.00001 0C6.79926 0 4.68865 0.874243 3.13249 2.4304C1.57633 3.98657 0.702087 6.09718 0.702087 8.29792C0.702087 11.5332 2.76652 14.4548 4.70682 16.5029C5.69002 17.5407 6.67106 18.3853 7.40558 18.9702C7.77334 19.263 8.0806 19.4918 8.29716 19.6482C8.40548 19.7264 8.4912 19.7866 8.55056 19.8278C8.58024 19.8483 8.60335 19.8641 8.6194 19.875L8.63813 19.8877L8.64342 19.8912L8.64558 19.8927ZM7.0851 8.29792C7.0851 7.24035 7.94244 6.38302 9.00001 6.38302C10.0576 6.38302 10.9149 7.24035 10.9149 8.29792C10.9149 9.35549 10.0576 10.2128 9.00001 10.2128C7.94244 10.2128 7.0851 9.35549 7.0851 8.29792ZM9.00001 5.10641C7.23739 5.10641 5.8085 6.5353 5.8085 8.29792C5.8085 10.0605 7.23739 11.4894 9.00001 11.4894C10.7626 11.4894 12.1915 10.0605 12.1915 8.29792C12.1915 6.5353 10.7626 5.10641 9.00001 5.10641Z" fill="#332F2E"/>
</svg>
