<svg width="21" height="20" viewBox="0 0 21 20" fill="none" xmlns="http://www.w3.org/2000/svg">
<path fill-rule="evenodd" clip-rule="evenodd" d="M3.32051 1.53846C2.98049 1.53846 2.6544 1.67353 2.41397 1.91397C2.17353 2.1544 2.03846 2.48049 2.03846 2.82051V17.1795C2.03846 17.5195 2.17353 17.8456 2.41397 18.086C2.6544 18.3265 2.98049 18.4615 3.32051 18.4615H7.42308C7.84791 18.4615 8.19231 18.8059 8.19231 19.2308C8.19231 19.6556 7.84791 20 7.42308 20H3.32051C2.57247 20 1.85506 19.7028 1.32611 19.1739C0.79716 18.6449 0.5 17.9275 0.5 17.1795V2.82051C0.5 2.07247 0.79716 1.35506 1.32611 0.826109C1.85506 0.29716 2.57247 0 3.32051 0H7.42308C7.84791 0 8.19231 0.344396 8.19231 0.769231C8.19231 1.19407 7.84791 1.53846 7.42308 1.53846H3.32051Z" fill="#EB5757"/>
<path fill-rule="evenodd" clip-rule="evenodd" d="M14.0583 4.32784C14.3587 4.02744 14.8458 4.02744 15.1462 4.32784L20.2744 9.45605C20.5748 9.75645 20.5748 10.2435 20.2744 10.5439L15.1462 15.6721C14.8458 15.9725 14.3587 15.9725 14.0583 15.6721C13.7579 15.3717 13.7579 14.8847 14.0583 14.5843L18.6426 9.99997L14.0583 5.4157C13.7579 5.11529 13.7579 4.62824 14.0583 4.32784Z" fill="#EB5757"/>
<path fill-rule="evenodd" clip-rule="evenodd" d="M6.65381 9.99994C6.65381 9.57511 6.9982 9.23071 7.42304 9.23071H19.7307C20.1556 9.23071 20.5 9.57511 20.5 9.99994C20.5 10.4248 20.1556 10.7692 19.7307 10.7692H7.42304C6.9982 10.7692 6.65381 10.4248 6.65381 9.99994Z" fill="#EB5757"/>
</svg>
