<svg width="18" height="15" viewBox="0 0 18 15" fill="none" xmlns="http://www.w3.org/2000/svg">
<path fill-rule="evenodd" clip-rule="evenodd" d="M1.29917 2.00567C1.42833 1.57409 1.83104 1.25581 2.30233 1.25581H15.6977C16.169 1.25581 16.5717 1.57412 16.7009 2.00574L9.00005 7.39629L1.29917 2.00567ZM1.25581 3.50824V12.3488C1.25581 12.923 1.72818 13.3953 2.30233 13.3953H15.6977C16.2718 13.3953 16.7442 12.923 16.7442 12.3488V3.50832L9.36014 8.67715C9.14393 8.8285 8.85617 8.8285 8.63997 8.67715L1.25581 3.50824ZM18 2.3134V12.3488C18 13.6166 16.9654 14.6512 15.6977 14.6512H2.30233C1.03461 14.6512 0 13.6166 0 12.3488V2.30233C0 1.03461 1.03461 0 2.30233 0H15.6977C16.9606 0 17.9921 1.02676 18 2.28787C18.0001 2.29638 18.0002 2.3049 18 2.3134Z" fill="#332F2E"/>
</svg>
