<svg width="17" height="16" viewBox="0 0 17 16" fill="none" xmlns="http://www.w3.org/2000/svg">
<path fill-rule="evenodd" clip-rule="evenodd" d="M0.251754 1.0475C0.747969 0.217583 1.61472 0 2.06414 0H4.29669C4.60799 0 5.09211 0.134747 5.50483 0.429544C5.94353 0.742903 6.34321 1.2705 6.34321 2.04651C6.34321 2.20349 6.40449 2.5125 6.52043 2.91736C6.63076 3.30256 6.77329 3.71734 6.89874 4.0563C6.99735 4.32277 7.16153 4.82061 6.92816 5.30636C6.67246 5.83856 6.13861 6.29819 5.80556 6.58223C5.78024 6.60382 5.77194 6.62527 5.76983 6.63758C5.76876 6.64383 5.76902 6.64881 5.76984 6.65287C5.7706 6.65662 5.77238 6.66243 5.77765 6.67053C6.5391 7.8411 8.14092 9.39485 9.23873 10.1599C9.2543 10.1708 9.27056 10.1765 9.30313 10.1685C9.34272 10.1588 9.39793 10.1278 9.44303 10.0678C9.83317 9.54936 10.2135 9.22379 10.571 9.04963C10.9074 8.88577 11.2794 8.83442 11.5895 8.97642C11.8847 9.09377 12.3782 9.26944 12.9027 9.41593C13.4483 9.56834 13.9765 9.67442 14.3432 9.67442C15.0478 9.67442 15.4905 10.0869 15.7273 10.5255C15.9511 10.9399 16.0176 11.4103 16.0176 11.7209V13.2093C16.0176 14.2074 15.7382 14.9131 15.3109 15.3746C14.8913 15.8277 14.3689 16 13.9711 16C13.9627 16 13.9542 15.9998 13.9458 15.9994C9.76704 15.8095 6.25871 13.6733 3.81703 10.9365C1.3855 8.2112 -0.0475019 4.82285 0.00120288 2.03755C0.00631417 1.74524 0.0521551 1.38132 0.251754 1.0475ZM2.06414 1.11628C1.8747 1.11628 1.44463 1.22765 1.20984 1.62035C1.15411 1.71355 1.1209 1.8519 1.11731 2.05706C1.07478 4.48944 2.35108 7.61671 4.64997 10.1934C6.93555 12.7551 10.173 14.7055 13.9807 14.8836C14.0832 14.8804 14.2975 14.826 14.4918 14.6161C14.6847 14.4079 14.9013 13.9973 14.9013 13.2093V11.7209C14.9013 11.5354 14.8562 11.2616 14.7451 11.0559C14.6471 10.8743 14.5317 10.7907 14.3432 10.7907C13.8169 10.7907 13.1668 10.6487 12.6024 10.491C12.0341 10.3323 11.501 10.1427 11.1729 10.0121C11.1537 10.0155 11.1169 10.0254 11.0599 10.0532C10.9095 10.1264 10.6569 10.3112 10.335 10.739C9.97389 11.2189 9.2327 11.5163 8.60049 11.0757C7.40797 10.2447 5.69596 8.59211 4.84192 7.27921C4.50081 6.75483 4.64358 6.1061 5.0812 5.73288C5.45162 5.41697 5.78639 5.10517 5.92198 4.82295C5.92603 4.81452 5.93599 4.78932 5.9286 4.72334C5.92063 4.6522 5.89579 4.56247 5.85185 4.44373C5.72046 4.08869 5.56788 3.64573 5.4473 3.2247C5.33234 2.82331 5.22693 2.37757 5.22693 2.04651C5.22693 1.70625 5.06846 1.48966 4.856 1.3379C4.61756 1.16758 4.35749 1.11628 4.29669 1.11628H2.06414Z" fill="#332F2E"/>
</svg>
