<svg width="12" height="12" viewBox="0 0 12 12" fill="none" xmlns="http://www.w3.org/2000/svg">
<path fill-rule="evenodd" clip-rule="evenodd" d="M10.8277 1.62866L10.4838 1.99164L9.94062 2.565C10.8896 2.82312 11.569 3.17291 11.8325 3.56931C11.9325 3.66073 11.9952 3.79226 11.9952 3.93844V7.60351C11.9952 8.05513 11.746 8.42339 11.4222 8.6981C11.099 8.97236 10.6567 9.19512 10.1427 9.37208C9.11055 9.72741 7.67699 9.93605 5.99761 9.93605C4.94799 9.93605 3.99439 9.85455 3.17482 9.70667L2.23738 10.6962L1.89351 11.0592L1.16755 10.3714L1.51143 10.0084L2.05236 9.43747C1.98419 9.41626 1.91758 9.39446 1.85257 9.37208C1.33856 9.19512 0.896265 8.97236 0.572985 8.6981C0.249186 8.42339 0 8.05513 0 7.60351V3.93844C0 3.79226 0.0627309 3.66073 0.162741 3.5693C0.717859 2.73416 3.11929 2.1059 5.99761 2.1059C7.00872 2.1059 7.96097 2.18343 8.79502 2.32021L9.75784 1.30389L10.1017 0.940918L10.8277 1.62866ZM1 7.60351C1 7.65794 1.02686 7.77176 1.21991 7.93554C1.41349 8.09977 1.72886 8.27188 2.17809 8.42655C2.37599 8.49468 2.59448 8.5576 2.83221 8.61429L5.53112 5.76544C3.63179 5.72016 1.98228 5.40074 1 4.93562V7.60351ZM4.01289 8.82204C4.60698 8.89514 5.2724 8.93605 5.99761 8.93605C7.6075 8.93605 8.92274 8.73446 9.81713 8.42655C10.2664 8.27188 10.5817 8.09977 10.7753 7.93554C10.9684 7.77176 10.9952 7.65794 10.9952 7.60351V4.93562C10.0932 5.36275 8.62843 5.66701 6.92426 5.74893L4.01289 8.82204ZM5.99761 3.1059C6.69172 3.1059 7.34919 3.14435 7.94956 3.21264L6.47913 4.76476C6.32081 4.76887 6.16022 4.77098 5.99761 4.77098C4.42416 4.77098 3.03898 4.57342 2.08035 4.27846C1.70947 4.16434 1.43515 4.04551 1.24751 3.93844C1.43515 3.83137 1.70947 3.71253 2.08035 3.59842C3.03898 3.30345 4.42416 3.1059 5.99761 3.1059ZM9.14697 3.40273L7.95214 4.66395C8.71167 4.57742 9.37974 4.44312 9.91488 4.27846C10.2858 4.16434 10.5601 4.04551 10.7477 3.93844C10.5601 3.83137 10.2858 3.71253 9.91488 3.59842C9.68278 3.527 9.42569 3.4613 9.14697 3.40273ZM11.0027 3.75058C11.003 3.7506 11.0012 3.75344 10.9962 3.75902C10.9999 3.75334 11.0024 3.75055 11.0027 3.75058ZM0.992532 3.75058C0.992848 3.75055 0.995329 3.75334 0.999024 3.75902C0.994063 3.75344 0.992215 3.7506 0.992532 3.75058Z" fill="#EB5757"/>
</svg>
