<svg width="15" height="17" viewBox="0 0 15 17" fill="none" xmlns="http://www.w3.org/2000/svg">
<path fill-rule="evenodd" clip-rule="evenodd" d="M11.4004 0.649508C11.201 0.450164 10.8778 0.450164 10.6785 0.649508C10.4791 0.848853 10.4791 1.17205 10.6785 1.3714L12.5295 3.22244H4.23328C3.37587 3.22244 2.55358 3.56305 1.94729 4.16933C1.34101 4.77561 1.00041 5.59791 1.00041 6.45532V7.81653C1.00041 8.09844 1.22895 8.32698 1.51086 8.32698C1.79278 8.32698 2.02132 8.09844 2.02132 7.81653V6.45532C2.02132 5.86867 2.25436 5.30605 2.66919 4.89122C3.08401 4.4764 3.64663 4.24335 4.23328 4.24335H12.5295L10.6785 6.09435C10.4791 6.29369 10.4791 6.6169 10.6785 6.81624C10.8778 7.01558 11.201 7.01558 11.4004 6.81624L14.1228 4.09382C14.3221 3.89448 14.3221 3.57127 14.1228 3.37193L11.4004 0.649508ZM4.59406 16.3505C4.39472 16.5499 4.07152 16.5499 3.87217 16.3505L1.14975 13.6281C0.950408 13.4287 0.950408 13.1055 1.14975 12.9062L3.87217 10.1838C4.07152 9.98443 4.39472 9.98443 4.59406 10.1838C4.79341 10.3831 4.79341 10.7063 4.59406 10.9057L2.74307 12.7567H11.0393C11.6259 12.7567 12.1885 12.5236 12.6033 12.1088C13.0182 11.694 13.2512 11.1314 13.2512 10.5447V9.18349C13.2512 8.90157 13.4798 8.67304 13.7617 8.67304C14.0436 8.67304 14.2721 8.90157 14.2721 9.18349V10.5447C14.2721 11.4021 13.9315 12.2244 13.3252 12.8307C12.719 13.437 11.8967 13.7776 11.0393 13.7776H2.74302L4.59406 15.6286C4.79341 15.828 4.79341 16.1512 4.59406 16.3505Z" fill="#828282"/>
<path d="M10.6785 0.649508L10.8552 0.826285L10.6785 0.649508ZM11.4004 0.649508L11.2236 0.826285L11.4004 0.649508ZM10.6785 1.3714L10.8552 1.19462V1.19462L10.6785 1.3714ZM12.5295 3.22244V3.47244C12.6306 3.47244 12.7218 3.41153 12.7605 3.31811C12.7992 3.2247 12.7778 3.11717 12.7063 3.04567L12.5295 3.22244ZM1.94729 4.16933L2.12407 4.34611L1.94729 4.16933ZM2.66919 4.89122L2.84596 5.068H2.84596L2.66919 4.89122ZM12.5295 4.24335L12.7062 4.42013C12.7777 4.34863 12.7991 4.2411 12.7604 4.14768C12.7217 4.05426 12.6306 3.99335 12.5295 3.99335V4.24335ZM10.6785 6.81624L10.8552 6.63946L10.6785 6.81624ZM11.4004 6.81624L11.2236 6.63946L11.4004 6.81624ZM14.1228 4.09382L14.2996 4.2706L14.1228 4.09382ZM14.1228 3.37193L14.2996 3.19515L14.1228 3.37193ZM3.87217 16.3505L4.04895 16.1737L4.04895 16.1737L3.87217 16.3505ZM4.59406 16.3505L4.41729 16.1737L4.41729 16.1737L4.59406 16.3505ZM1.14975 13.6281L0.972976 13.8049H0.972976L1.14975 13.6281ZM1.14975 12.9062L0.972976 12.7294H0.972976L1.14975 12.9062ZM3.87217 10.1838L4.04895 10.3606L3.87217 10.1838ZM4.59406 10.1838L4.41729 10.3606H4.41729L4.59406 10.1838ZM4.59406 10.9057L4.77084 11.0824L4.59406 10.9057ZM2.74307 12.7567L2.56629 12.5799C2.49479 12.6514 2.4734 12.7589 2.5121 12.8523C2.55079 12.9458 2.64195 13.0067 2.74307 13.0067V12.7567ZM12.6033 12.1088L12.7801 12.2856L12.6033 12.1088ZM2.74302 13.7776V13.5276C2.6419 13.5276 2.55074 13.5885 2.51205 13.6819C2.47335 13.7753 2.49474 13.8829 2.56624 13.9544L2.74302 13.7776ZM4.59406 15.6286L4.41729 15.8054L4.59406 15.6286ZM10.8552 0.826285C10.957 0.724572 11.1219 0.724572 11.2236 0.826285L11.5771 0.472732C11.2802 0.175756 10.7987 0.175756 10.5017 0.472732L10.8552 0.826285ZM10.8552 1.19462C10.7535 1.09291 10.7535 0.927999 10.8552 0.826285L10.5017 0.472732C10.2047 0.769708 10.2047 1.2512 10.5017 1.54818L10.8552 1.19462ZM12.7063 3.04567L10.8552 1.19462L10.5017 1.54818L12.3527 3.39922L12.7063 3.04567ZM4.23328 3.47244H12.5295V2.97244H4.23328V3.47244ZM2.12407 4.34611C2.68347 3.78671 3.44217 3.47244 4.23328 3.47244V2.97244C3.30957 2.97244 2.42368 3.33939 1.77052 3.99255L2.12407 4.34611ZM1.25041 6.45532C1.25041 5.66421 1.56467 4.9055 2.12407 4.34611L1.77052 3.99255C1.11735 4.64572 0.750408 5.5316 0.750408 6.45532H1.25041ZM1.25041 7.81653V6.45532H0.750408V7.81653H1.25041ZM1.51086 8.07698C1.36702 8.07698 1.25041 7.96037 1.25041 7.81653H0.750408C0.750408 8.23652 1.09087 8.57698 1.51086 8.57698V8.07698ZM1.77132 7.81653C1.77132 7.96037 1.65471 8.07698 1.51086 8.07698V8.57698C1.93085 8.57698 2.27132 8.23652 2.27132 7.81653H1.77132ZM1.77132 6.45532V7.81653H2.27132V6.45532H1.77132ZM2.49241 4.71444C2.0307 5.17615 1.77132 5.80236 1.77132 6.45532H2.27132C2.27132 5.93497 2.47802 5.43594 2.84596 5.068L2.49241 4.71444ZM4.23328 3.99335C3.58033 3.99335 2.95412 4.25274 2.49241 4.71444L2.84596 5.068C3.2139 4.70006 3.71294 4.49335 4.23328 4.49335V3.99335ZM12.5295 3.99335H4.23328V4.49335H12.5295V3.99335ZM10.8552 6.27113L12.7062 4.42013L12.3527 4.06657L10.5017 5.91757L10.8552 6.27113ZM10.8552 6.63946C10.7535 6.53775 10.7535 6.37284 10.8552 6.27113L10.5017 5.91757C10.2047 6.21455 10.2047 6.69604 10.5017 6.99302L10.8552 6.63946ZM11.2236 6.63946C11.1219 6.74118 10.957 6.74118 10.8552 6.63946L10.5017 6.99302C10.7987 7.28999 11.2802 7.28999 11.5771 6.99302L11.2236 6.63946ZM13.946 3.91704L11.2236 6.63946L11.5771 6.99302L14.2996 4.2706L13.946 3.91704ZM13.946 3.54871C14.0477 3.65042 14.0477 3.81533 13.946 3.91704L14.2996 4.2706C14.5965 3.97362 14.5965 3.49213 14.2996 3.19515L13.946 3.54871ZM11.2236 0.826285L13.946 3.54871L14.2996 3.19515L11.5771 0.472732L11.2236 0.826285ZM3.6954 16.5273C3.99237 16.8243 4.47387 16.8243 4.77084 16.5273L4.41729 16.1737C4.31557 16.2754 4.15066 16.2754 4.04895 16.1737L3.6954 16.5273ZM0.972976 13.8049L3.6954 16.5273L4.04895 16.1737L1.32653 13.4513L0.972976 13.8049ZM0.972976 12.7294C0.676 13.0264 0.676 13.5079 0.972976 13.8049L1.32653 13.4513C1.22482 13.3496 1.22482 13.1847 1.32653 13.083L0.972976 12.7294ZM3.6954 10.007L0.972976 12.7294L1.32653 13.083L4.04895 10.3606L3.6954 10.007ZM4.77084 10.007C4.47387 9.71003 3.99237 9.71003 3.6954 10.007L4.04895 10.3606C4.15066 10.2588 4.31557 10.2588 4.41729 10.3606L4.77084 10.007ZM4.77084 11.0824C5.06782 10.7855 5.06782 10.304 4.77084 10.007L4.41729 10.3606C4.519 10.4623 4.519 10.6272 4.41729 10.7289L4.77084 11.0824ZM2.91984 12.9334L4.77084 11.0824L4.41729 10.7289L2.56629 12.5799L2.91984 12.9334ZM2.74307 13.0067H11.0393V12.5067H2.74307V13.0067ZM11.0393 13.0067C11.6922 13.0067 12.3184 12.7473 12.7801 12.2856L12.4266 11.932C12.0586 12.3 11.5596 12.5067 11.0393 12.5067V13.0067ZM12.7801 12.2856C13.2418 11.8239 13.5012 11.1977 13.5012 10.5447H13.0012C13.0012 11.065 12.7945 11.5641 12.4266 11.932L12.7801 12.2856ZM13.5012 10.5447V9.18349H13.0012V10.5447H13.5012ZM13.5012 9.18349C13.5012 9.03964 13.6178 8.92304 13.7617 8.92304V8.42304C13.3417 8.42304 13.0012 8.7635 13.0012 9.18349H13.5012ZM13.7617 8.92304C13.9055 8.92304 14.0221 9.03965 14.0221 9.18349H14.5221C14.5221 8.7635 14.1817 8.42304 13.7617 8.42304V8.92304ZM14.0221 9.18349V10.5447H14.5221V9.18349H14.0221ZM14.0221 10.5447C14.0221 11.3358 13.7079 12.0945 13.1485 12.6539L13.502 13.0075C14.1552 12.3543 14.5221 11.4684 14.5221 10.5447H14.0221ZM13.1485 12.6539C12.5891 13.2133 11.8304 13.5276 11.0393 13.5276V14.0276C11.963 14.0276 12.8488 13.6606 13.502 13.0075L13.1485 12.6539ZM11.0393 13.5276H2.74302V14.0276H11.0393V13.5276ZM4.77084 15.4518L2.9198 13.6008L2.56624 13.9544L4.41729 15.8054L4.77084 15.4518ZM4.77084 16.5273C5.06782 16.2303 5.06782 15.7488 4.77084 15.4518L4.41729 15.8054C4.519 15.9071 4.519 16.072 4.41729 16.1737L4.77084 16.5273Z" fill="#828282"/>
</svg>
