<svg width="22" height="22" viewBox="0 0 22 22" fill="none" xmlns="http://www.w3.org/2000/svg">
<path fill-rule="evenodd" clip-rule="evenodd" d="M2.53846 9.97436C2.53846 5.86763 5.86763 2.53846 9.97436 2.53846C14.0811 2.53846 17.4103 5.86763 17.4103 9.97436C17.4103 11.9847 16.6125 13.8087 15.3163 15.147C15.2843 15.1703 15.2538 15.1964 15.2249 15.2252C15.1961 15.2541 15.1701 15.2846 15.1468 15.3165C13.8084 16.6126 11.9845 17.4103 9.97436 17.4103C5.86763 17.4103 2.53846 14.0811 2.53846 9.97436ZM15.7529 16.841C14.1916 18.1562 12.1755 18.9487 9.97436 18.9487C5.01796 18.9487 1 14.9308 1 9.97436C1 5.01796 5.01796 1 9.97436 1C14.9308 1 18.9487 5.01796 18.9487 9.97436C18.9487 12.1757 18.1561 14.1919 16.8408 15.7532L20.7743 19.6868C21.0747 19.9872 21.0747 20.4742 20.7743 20.7746C20.4739 21.075 19.9869 21.075 19.6865 20.7746L15.7529 16.841Z" fill="#332F2E"/>
<path d="M15.3163 15.147L15.6109 15.551C15.634 15.5342 15.6556 15.5154 15.6754 15.4949L15.3163 15.147ZM15.2249 15.2252L15.5785 15.5788L15.5785 15.5788L15.2249 15.2252ZM15.1468 15.3165L15.4946 15.6757C15.5151 15.6559 15.5339 15.6343 15.5507 15.6112L15.1468 15.3165ZM15.7529 16.841L16.1064 16.4875C15.9229 16.3039 15.6293 16.2914 15.4307 16.4586L15.7529 16.841ZM16.8408 15.7532L16.4584 15.4311C16.2911 15.6296 16.3036 15.9232 16.4872 16.1068L16.8408 15.7532ZM20.7743 20.7746L21.1279 21.1282H21.1279L20.7743 20.7746ZM19.6865 20.7746L19.3329 21.1282H19.3329L19.6865 20.7746ZM9.97436 2.03846C5.59148 2.03846 2.03846 5.59148 2.03846 9.97436H3.03846C3.03846 6.14377 6.14377 3.03846 9.97436 3.03846V2.03846ZM17.9103 9.97436C17.9103 5.59148 14.3572 2.03846 9.97436 2.03846V3.03846C13.8049 3.03846 16.9103 6.14377 16.9103 9.97436H17.9103ZM15.6754 15.4949C17.0583 14.067 17.9103 12.1197 17.9103 9.97436H16.9103C16.9103 11.8497 16.1666 13.5503 14.9571 14.7992L15.6754 15.4949ZM15.5785 15.5788C15.589 15.5683 15.5998 15.5591 15.6109 15.551L15.0216 14.7431C14.9688 14.7816 14.9186 14.8245 14.8714 14.8717L15.5785 15.5788ZM15.5507 15.6112C15.5588 15.6001 15.568 15.5893 15.5785 15.5788L14.8714 14.8717C14.8242 14.9189 14.7813 14.9691 14.7428 15.0219L15.5507 15.6112ZM9.97436 17.9103C12.1195 17.9103 14.0668 17.0585 15.4946 15.6757L14.7989 14.9574C13.5501 16.1667 11.8496 16.9103 9.97436 16.9103V17.9103ZM2.03846 9.97436C2.03846 14.3572 5.59148 17.9103 9.97436 17.9103V16.9103C6.14377 16.9103 3.03846 13.8049 3.03846 9.97436H2.03846ZM15.4307 16.4586C13.9563 17.7007 12.0533 18.4487 9.97436 18.4487V19.4487C12.2978 19.4487 14.427 18.6117 16.075 17.2234L15.4307 16.4586ZM9.97436 18.4487C5.2941 18.4487 1.5 14.6546 1.5 9.97436H0.5C0.5 15.2069 4.74181 19.4487 9.97436 19.4487V18.4487ZM1.5 9.97436C1.5 5.2941 5.2941 1.5 9.97436 1.5V0.5C4.74181 0.5 0.5 4.74181 0.5 9.97436H1.5ZM9.97436 1.5C14.6546 1.5 18.4487 5.2941 18.4487 9.97436H19.4487C19.4487 4.74181 15.2069 0.5 9.97436 0.5V1.5ZM18.4487 9.97436C18.4487 12.0535 17.7006 13.9565 16.4584 15.4311L17.2232 16.0754C18.6116 14.4273 19.4487 12.2979 19.4487 9.97436H18.4487ZM16.4872 16.1068L20.4208 20.0403L21.1279 19.3332L17.1943 15.3997L16.4872 16.1068ZM20.4208 20.0403C20.5259 20.1455 20.5259 20.3159 20.4208 20.4211L21.1279 21.1282C21.6235 20.6325 21.6235 19.8289 21.1279 19.3332L20.4208 20.0403ZM20.4208 20.4211C20.3156 20.5262 20.1452 20.5262 20.04 20.4211L19.3329 21.1282C19.8286 21.6239 20.6322 21.6239 21.1279 21.1282L20.4208 20.4211ZM20.04 20.4211L16.1064 16.4875L15.3993 17.1946L19.3329 21.1282L20.04 20.4211Z" fill="#332F2E"/>
</svg>
