<svg width="22" height="22" viewBox="0 0 22 22" fill="none" xmlns="http://www.w3.org/2000/svg">
<path fill-rule="evenodd" clip-rule="evenodd" d="M10.2478 2.58818C10.4473 2.38868 10.7179 2.2766 11 2.2766C11.2821 2.2766 11.5527 2.38868 11.7522 2.58818C11.9517 2.78769 12.0638 3.05828 12.0638 3.34043V3.41702L12.0638 3.41957C12.0654 3.81791 12.1835 4.2071 12.4034 4.53922C12.6227 4.87039 12.9338 5.1304 13.2986 5.28747C13.6712 5.45114 14.0841 5.49982 14.4846 5.42721C14.8862 5.3544 15.2567 5.16298 15.5485 4.8776L15.6048 4.82131C15.7036 4.7224 15.8209 4.64393 15.9501 4.59039C16.0792 4.53686 16.2176 4.5093 16.3574 4.5093C16.4973 4.5093 16.6357 4.53686 16.7648 4.59039C16.894 4.64393 17.0118 4.7229 17.1106 4.82181C17.2095 4.92061 17.288 5.03794 17.3415 5.16709C17.3951 5.29623 17.4226 5.43467 17.4226 5.57447C17.4226 5.71427 17.3951 5.8527 17.3415 5.98185C17.288 6.111 17.2093 6.22858 17.1104 6.32738L17.0593 6.37842L17.0543 6.38345C16.769 6.6752 16.5775 7.04575 16.5047 7.44732C16.4401 7.80359 16.4715 8.16979 16.5945 8.50861C16.6008 8.57382 16.6172 8.6378 16.6431 8.69825C16.8 9.06439 17.0606 9.37665 17.3927 9.5966C17.7248 9.81654 18.114 9.93458 18.5124 9.93617L18.5149 9.93617H18.6596C18.9417 9.93617 19.2123 10.0483 19.4118 10.2478C19.6113 10.4473 19.7234 10.7179 19.7234 11C19.7234 11.2821 19.6113 11.5527 19.4118 11.7522C19.2123 11.9517 18.9417 12.0638 18.6596 12.0638L18.583 12.0638L18.5804 12.0638C18.1821 12.0654 17.7929 12.1835 17.4608 12.4034C17.1297 12.6227 16.8697 12.9337 16.7126 13.2984C16.5489 13.671 16.5002 14.0841 16.5728 14.4846C16.6456 14.8862 16.837 15.2567 17.1224 15.5485L17.1787 15.6048C17.2776 15.7036 17.3561 15.8209 17.4096 15.9501C17.4631 16.0792 17.4907 16.2176 17.4907 16.3574C17.4907 16.4973 17.4631 16.6357 17.4096 16.7648C17.3561 16.894 17.2771 17.0118 17.1782 17.1106C17.0794 17.2095 16.9621 17.288 16.8329 17.3415C16.7038 17.3951 16.5653 17.4226 16.4255 17.4226C16.2857 17.4226 16.1473 17.3951 16.0181 17.3415C15.889 17.288 15.7714 17.2093 15.6726 17.1104L15.6216 17.0593L15.6166 17.0543C15.3248 16.769 14.9543 16.5775 14.5527 16.5047C14.1522 16.4321 13.7391 16.4808 13.3665 16.6445C13.0018 16.8016 12.6908 17.0616 12.4715 17.3927C12.2515 17.7248 12.1335 18.114 12.1319 18.5124L12.1319 18.5149V18.6596C12.1319 18.9417 12.0198 19.2123 11.8203 19.4118C11.6208 19.6113 11.3502 19.7234 11.0681 19.7234C10.7859 19.7234 10.5154 19.6113 10.3158 19.4118C10.1163 19.2123 10.0043 18.9417 10.0043 18.6596V18.583L10.0041 18.5681C9.9945 18.1583 9.86187 17.7609 9.62344 17.4276C9.38892 17.0997 9.06273 16.8486 8.68606 16.7059C8.31753 16.5475 7.91037 16.5012 7.51541 16.5728C7.11384 16.6456 6.74326 16.837 6.45151 17.1224L6.39521 17.1787C6.29641 17.2776 6.17909 17.3561 6.04994 17.4096C5.92079 17.4631 5.78236 17.4907 5.64255 17.4907C5.50275 17.4907 5.36432 17.4631 5.23517 17.4096C5.10602 17.3561 4.98819 17.2771 4.88939 17.1782C4.79048 17.0794 4.71201 16.9621 4.65848 16.8329C4.60494 16.7038 4.57738 16.5653 4.57738 16.4255C4.57738 16.2857 4.60494 16.1473 4.65848 16.0181C4.71201 15.889 4.79073 15.7714 4.88964 15.6726L4.94073 15.6216L4.94566 15.6166C5.23104 15.3248 5.42248 14.9543 5.4953 14.5527C5.5679 14.1522 5.51923 13.7393 5.35555 13.3667C5.19849 13.0019 4.93847 12.6908 4.6073 12.4715C4.27518 12.2515 3.886 12.1335 3.48765 12.1319H3.34043C3.05828 12.1319 2.78769 12.0198 2.58818 11.8203C2.38868 11.6208 2.2766 11.3502 2.2766 11.0681C2.2766 10.7859 2.38868 10.5154 2.58818 10.3158C2.78769 10.1163 3.05828 10.0043 3.34043 10.0043H3.41702L3.43195 10.0041C3.84169 9.9945 4.23907 9.86187 4.57243 9.62344C4.90033 9.38892 5.15136 9.06271 5.29414 8.68603C5.45246 8.31751 5.49882 7.91036 5.42721 7.51541C5.3544 7.11384 5.16298 6.74326 4.8776 6.45151L4.82131 6.39521C4.7224 6.29641 4.64393 6.17908 4.59039 6.04994C4.53686 5.92079 4.5093 5.78236 4.5093 5.64255C4.5093 5.50275 4.53686 5.36432 4.59039 5.23517C4.64393 5.10602 4.7229 4.98819 4.82181 4.88939C4.92061 4.79048 5.03794 4.71201 5.16709 4.65848C5.29623 4.60494 5.43466 4.57738 5.57447 4.57738C5.71427 4.57738 5.85271 4.60494 5.98185 4.65848C6.111 4.71201 6.22858 4.79073 6.32738 4.88964L6.37842 4.94073L6.38345 4.94566C6.6752 5.23104 7.04575 5.42248 7.44732 5.4953C7.80359 5.55989 8.16979 5.52849 8.5086 5.40551C8.57382 5.39917 8.6378 5.38281 8.69825 5.3569C9.06439 5.19998 9.37665 4.93942 9.5966 4.6073C9.81654 4.27518 9.93458 3.886 9.93617 3.48765L9.93617 3.48511V3.34043C9.93617 3.05828 10.0483 2.78769 10.2478 2.58818ZM17.8818 13.8109L17.2979 13.5532L17.8846 13.8046C17.9434 13.6673 18.0411 13.5502 18.1657 13.4678C18.2899 13.3855 18.4355 13.3412 18.5845 13.3404H18.6596C19.2803 13.3404 19.8756 13.0938 20.3145 12.6549C20.7534 12.216 21 11.6207 21 11C21 10.3793 20.7534 9.78399 20.3145 9.34507C19.8756 8.90616 19.2803 8.65957 18.6596 8.65957H18.5164C18.3674 8.65878 18.2218 8.61453 18.0976 8.53224C18.0004 8.46792 17.9196 8.38254 17.8609 8.28295C17.8524 8.22726 17.8366 8.17279 17.8137 8.121C17.7519 7.98099 17.7335 7.82567 17.7608 7.67508C17.7879 7.52548 17.859 7.38736 17.9648 7.27829L18.0131 7.23007C18.2305 7.01276 18.4031 6.75473 18.5208 6.47071C18.6386 6.18659 18.6992 5.88204 18.6992 5.57447C18.6992 5.2669 18.6386 4.96235 18.5208 4.67823C18.403 4.3941 18.2304 4.13598 18.0128 3.91862C17.7955 3.70125 17.5376 3.5288 17.2537 3.41111C16.9696 3.29333 16.665 3.2327 16.3574 3.2327C16.0499 3.2327 15.7453 3.29333 15.4612 3.41111C15.1772 3.52884 14.9189 3.70163 14.7016 3.91912L14.6536 3.96709C14.5446 4.07294 14.4064 4.14397 14.2568 4.1711C14.1062 4.1984 13.9509 4.17993 13.8109 4.11814L13.8046 4.11544C13.6673 4.0566 13.5502 3.95889 13.4678 3.83434C13.3855 3.71009 13.3412 3.56453 13.3404 3.41552V3.34043C13.3404 2.71971 13.0938 2.12441 12.6549 1.68549C12.216 1.24658 11.6207 1 11 1C10.3793 1 9.78399 1.24658 9.34507 1.68549C8.90616 2.12441 8.65957 2.71971 8.65957 3.34043V3.4836C8.65878 3.63262 8.61453 3.77817 8.53224 3.90243C8.46792 3.99956 8.38254 4.08036 8.28295 4.13914C8.22726 4.1476 8.17279 4.1634 8.121 4.18626C7.98099 4.24805 7.82567 4.26649 7.67508 4.23918C7.52547 4.21205 7.38735 4.14102 7.27827 4.03516L7.23007 3.98695C7.01276 3.76947 6.75473 3.59693 6.47071 3.47919C6.18659 3.36141 5.88204 3.30079 5.57447 3.30079C5.2669 3.30079 4.96235 3.36141 4.67823 3.47919C4.39421 3.59693 4.13618 3.76947 3.91887 3.98695C3.70138 4.20426 3.52884 4.4623 3.41111 4.74631C3.29333 5.03043 3.2327 5.33499 3.2327 5.64255C3.2327 5.95012 3.29333 6.25467 3.41111 6.5388C3.52884 6.82281 3.70163 7.08109 3.91912 7.2984L3.96707 7.34636C4.07294 7.45543 4.14397 7.59356 4.1711 7.74317C4.1984 7.89375 4.17997 8.04907 4.11817 8.18909C4.11274 8.20139 4.1077 8.21386 4.10306 8.22648C4.05001 8.37073 3.95479 8.49568 3.82978 8.58509C3.70649 8.67327 3.55984 8.72287 3.40843 8.72766H3.34043C2.71971 8.72766 2.12441 8.97424 1.68549 9.41316C1.24658 9.85207 1 10.4474 1 11.0681C1 11.6888 1.24658 12.2841 1.68549 12.723C2.12441 13.1619 2.71971 13.4085 3.34043 13.4085H3.4836C3.63262 13.4093 3.77817 13.4536 3.90243 13.5358C4.02697 13.6183 4.12465 13.7354 4.18349 13.8727L4.18626 13.879C4.24805 14.019 4.26649 14.1743 4.23918 14.3249C4.21206 14.4745 4.14103 14.6126 4.03518 14.7217L3.98696 14.7699C3.76947 14.9872 3.59693 15.2453 3.47919 15.5293C3.36141 15.8134 3.30079 16.118 3.30079 16.4255C3.30079 16.7331 3.36141 17.0377 3.47919 17.3218C3.59688 17.6057 3.76933 17.8636 3.9867 18.0809C4.20407 18.2985 4.46219 18.4711 4.74631 18.5889C5.03043 18.7067 5.33498 18.7673 5.64255 18.7673C5.95012 18.7673 6.25467 18.7067 6.5388 18.5889C6.82292 18.4711 7.08104 18.2985 7.2984 18.0809L7.34635 18.0329C7.45543 17.9271 7.59355 17.856 7.74317 17.8289C7.89376 17.8016 8.04907 17.82 8.18909 17.8818C8.20139 17.8873 8.21386 17.8923 8.22648 17.8969C8.37073 17.95 8.49568 18.0452 8.58509 18.1702C8.67328 18.2935 8.72287 18.4402 8.72766 18.5916V18.6596C8.72766 19.2803 8.97424 19.8756 9.41316 20.3145C9.85207 20.7534 10.4474 21 11.0681 21C11.6888 21 12.2841 20.7534 12.723 20.3145C13.1619 19.8756 13.4085 19.2803 13.4085 18.6596V18.5164C13.4093 18.3674 13.4536 18.2218 13.5358 18.0976C13.6183 17.973 13.7354 17.8754 13.8727 17.8165L13.879 17.8137C14.019 17.7519 14.1743 17.7335 14.3249 17.7608C14.4745 17.7879 14.6126 17.859 14.7217 17.9648L14.7697 18.0128C14.987 18.2304 15.2452 18.403 15.5293 18.5208C15.8134 18.6386 16.118 18.6992 16.4255 18.6992C16.7331 18.6992 17.0377 18.6386 17.3218 18.5208C17.6058 18.4031 17.8638 18.2305 18.0811 18.013C18.2986 17.7957 18.4712 17.5377 18.5889 17.2537C18.7067 16.9696 18.7673 16.665 18.7673 16.3574C18.7673 16.0499 18.7067 15.7453 18.5889 15.4612C18.4711 15.1771 18.2985 14.919 18.0809 14.7016L18.0329 14.6536C17.9271 14.5446 17.856 14.4064 17.8289 14.2568C17.8016 14.1062 17.82 13.9509 17.8818 13.8109ZM9.08486 10.9998C9.08486 9.94219 9.94219 9.08486 10.9998 9.08486C12.0573 9.08486 12.9147 9.94219 12.9147 10.9998C12.9147 12.0573 12.0573 12.9147 10.9998 12.9147C9.94219 12.9147 9.08486 12.0573 9.08486 10.9998ZM10.9998 7.80827C9.23715 7.80827 7.80827 9.23715 7.80827 10.9998C7.80827 12.7624 9.23715 14.1912 10.9998 14.1912C12.7624 14.1912 14.1912 12.7624 14.1912 10.9998C14.1912 9.23715 12.7624 7.80827 10.9998 7.80827Z" fill="#332F2E"/>
<path d="M10.2478 2.58818L10.6013 2.94174L10.6013 2.94174L10.2478 2.58818ZM12.0638 3.41702H11.5638L11.5638 3.41815L12.0638 3.41702ZM12.0638 3.41957L11.5638 3.42069L11.5638 3.42156L12.0638 3.41957ZM12.4034 4.53922L12.8203 4.26314L12.8203 4.26314L12.4034 4.53922ZM13.2986 5.28747L13.4997 4.82968L13.4963 4.82823L13.2986 5.28747ZM14.4846 5.42721L14.3954 4.93523L14.4846 5.42721ZM15.5485 4.8776L15.8981 5.23505L15.9021 5.23115L15.5485 4.8776ZM15.6048 4.82131L15.9583 5.17485L15.9585 5.17466L15.6048 4.82131ZM15.9501 4.59039L15.7586 4.12851L15.7586 4.12851L15.9501 4.59039ZM16.7648 4.59039L16.5734 5.05228H16.5734L16.7648 4.59039ZM17.1106 4.82181L16.7569 5.17517L16.7573 5.17556L17.1106 4.82181ZM17.3415 5.16709L16.8796 5.35855L16.8796 5.35856L17.3415 5.16709ZM17.3415 5.98185L16.8796 5.79038L16.8796 5.79038L17.3415 5.98185ZM17.1104 6.32738L16.757 5.97363L16.757 5.97364L17.1104 6.32738ZM17.0593 6.37842L16.7059 6.02465L16.7018 6.0288L17.0593 6.37842ZM17.0543 6.38345L17.4118 6.73308L17.4118 6.73307L17.0543 6.38345ZM16.5047 7.44732L16.9967 7.53653L16.9967 7.53653L16.5047 7.44732ZM16.5945 8.50861L17.0921 8.4602C17.0881 8.41847 17.0788 8.37742 17.0645 8.33801L16.5945 8.50861ZM16.6431 8.69825L17.1027 8.50129L17.1027 8.50128L16.6431 8.69825ZM17.3927 9.5966L17.6688 9.17973L17.6688 9.17972L17.3927 9.5966ZM18.5124 9.93617L18.5104 10.4362L18.5114 10.4362L18.5124 9.93617ZM18.5149 9.93617L18.514 10.4362H18.5149V9.93617ZM19.4118 10.2478L19.0583 10.6013L19.0583 10.6013L19.4118 10.2478ZM19.4118 11.7522L19.0583 11.3987L19.0583 11.3987L19.4118 11.7522ZM18.6596 12.0638L18.6595 12.5638H18.6596V12.0638ZM18.583 12.0638L18.583 11.5638L18.5809 11.5638L18.583 12.0638ZM18.5804 12.0638L18.5824 12.5638H18.5825L18.5804 12.0638ZM17.4608 12.4034L17.7369 12.8203L17.7369 12.8203L17.4608 12.4034ZM16.7126 13.2984L17.1704 13.4996L17.1718 13.4962L16.7126 13.2984ZM16.5728 14.4846L17.0648 14.3954V14.3954L16.5728 14.4846ZM17.1224 15.5485L16.7649 15.8981L16.7689 15.9021L17.1224 15.5485ZM17.1787 15.6048L16.8252 15.9584L16.8253 15.9585L17.1787 15.6048ZM17.4096 15.9501L17.8715 15.7586V15.7586L17.4096 15.9501ZM17.4096 16.7648L17.8715 16.9563L17.8715 16.9563L17.4096 16.7648ZM17.1782 17.1106L16.8248 16.7569L16.8244 16.7572L17.1782 17.1106ZM16.8329 17.3415L16.6414 16.8796L16.6414 16.8796L16.8329 17.3415ZM16.0181 17.3415L16.2096 16.8796L16.2096 16.8796L16.0181 17.3415ZM15.6726 17.1104L16.0264 16.757L16.0264 16.757L15.6726 17.1104ZM15.6216 17.0593L15.9754 16.7059L15.9712 16.7018L15.6216 17.0593ZM15.6166 17.0543L15.2669 17.4118L15.267 17.4118L15.6166 17.0543ZM14.5527 16.5047L14.4635 16.9967L14.4635 16.9967L14.5527 16.5047ZM13.3665 16.6445L13.5643 17.1038L13.5677 17.1023L13.3665 16.6445ZM12.4715 17.3927L12.8884 17.6688L12.8884 17.6688L12.4715 17.3927ZM12.1319 18.5124L11.6319 18.5104L11.6319 18.5114L12.1319 18.5124ZM12.1319 18.5149L11.6319 18.514V18.5149H12.1319ZM11.8203 19.4118L11.4668 19.0583L11.4668 19.0583L11.8203 19.4118ZM10.3158 19.4118L10.6694 19.0583L10.6694 19.0583L10.3158 19.4118ZM10.0043 18.583H10.5043L10.5042 18.5771L10.0043 18.583ZM10.0041 18.5681L10.5041 18.5622L10.5039 18.5564L10.0041 18.5681ZM9.62344 17.4276L9.21675 17.7184H9.21675L9.62344 17.4276ZM8.68606 16.7059L8.4887 17.1653C8.49535 17.1681 8.50207 17.1708 8.50884 17.1734L8.68606 16.7059ZM7.51541 16.5728L7.60461 17.0648H7.60462L7.51541 16.5728ZM6.45151 17.1224L6.10185 16.7649L6.09795 16.7689L6.45151 17.1224ZM6.39521 17.1787L6.04165 16.8251L6.04146 16.8253L6.39521 17.1787ZM6.04994 17.4096L6.2414 17.8715L6.24141 17.8715L6.04994 17.4096ZM5.23517 17.4096L5.0437 17.8715H5.0437L5.23517 17.4096ZM4.88939 17.1782L5.24314 16.8248L5.24275 16.8244L4.88939 17.1782ZM4.65848 16.0181L4.19659 15.8267L4.19659 15.8267L4.65848 16.0181ZM4.88964 15.6726L5.243 16.0264L5.243 16.0264L4.88964 15.6726ZM4.94073 15.6216L5.29411 15.9754L5.29823 15.9712L4.94073 15.6216ZM4.94566 15.6166L4.58823 15.2669L4.58816 15.267L4.94566 15.6166ZM5.4953 14.5527L5.00332 14.4635V14.4635L5.4953 14.5527ZM5.35555 13.3667L4.8963 13.5644L4.89778 13.5678L5.35555 13.3667ZM4.6073 12.4715L4.33122 12.8884L4.33123 12.8884L4.6073 12.4715ZM3.48765 12.1319L3.48965 11.6319H3.48765V12.1319ZM2.58818 11.8203L2.94174 11.4668L2.94174 11.4668L2.58818 11.8203ZM3.41702 10.0043V10.5043L3.42287 10.5042L3.41702 10.0043ZM3.43195 10.0041L3.43779 10.5041L3.44364 10.5039L3.43195 10.0041ZM4.57243 9.62344L4.28156 9.21675H4.28156L4.57243 9.62344ZM5.29414 8.68603L4.83474 8.48868C4.83188 8.49533 4.82916 8.50205 4.8266 8.50882L5.29414 8.68603ZM5.42721 7.51541L4.93523 7.60461L5.42721 7.51541ZM4.8776 6.45151L5.23505 6.10185L5.23115 6.09795L4.8776 6.45151ZM4.82131 6.39521L5.17486 6.04166L5.17466 6.04146L4.82131 6.39521ZM4.59039 6.04994L5.05228 5.85847L5.05228 5.85847L4.59039 6.04994ZM4.59039 5.23517L5.05228 5.42664L5.05228 5.42664L4.59039 5.23517ZM4.82181 4.88939L5.17517 5.24314L5.17556 5.24275L4.82181 4.88939ZM5.16709 4.65848L5.35855 5.12036L5.35856 5.12036L5.16709 4.65848ZM5.98185 4.65848L5.79038 5.12036L5.98185 4.65848ZM6.32738 4.88964L5.97363 5.243L5.97364 5.24301L6.32738 4.88964ZM6.37842 4.94073L6.02465 5.29412L6.02879 5.29817L6.37842 4.94073ZM6.38345 4.94566L6.73308 4.58823L6.73308 4.58822L6.38345 4.94566ZM7.44732 5.4953L7.53653 5.00332H7.53653L7.44732 5.4953ZM8.5086 5.40551L8.4602 4.90786C8.41847 4.91192 8.37742 4.92121 8.33801 4.93551L8.5086 5.40551ZM8.69825 5.3569L8.50129 4.89733L8.50129 4.89733L8.69825 5.3569ZM9.5966 4.6073L9.17973 4.33122L9.17972 4.33123L9.5966 4.6073ZM9.93617 3.48765L10.4362 3.48965L10.4362 3.48859L9.93617 3.48765ZM9.93617 3.48511L10.4362 3.48604V3.48511H9.93617ZM17.2979 13.5532L17.4948 13.0936C17.242 12.9853 16.9491 13.1015 16.8394 13.3538C16.7296 13.606 16.8443 13.8996 17.096 14.0106L17.2979 13.5532ZM17.8818 13.8109L18.3393 14.0128C18.3928 13.8915 18.396 13.7539 18.348 13.6302C18.3001 13.5066 18.205 13.407 18.0837 13.3535L17.8818 13.8109ZM17.8846 13.8046L17.6876 14.2642C17.9414 14.373 18.2353 14.2554 18.3441 14.0016L17.8846 13.8046ZM18.1657 13.4678L18.4417 13.8846L18.4417 13.8846L18.1657 13.4678ZM18.5845 13.3404V12.8404L18.5818 12.8404L18.5845 13.3404ZM20.3145 12.6549L19.961 12.3014L20.3145 12.6549ZM20.3145 9.34507L19.961 9.69862L20.3145 9.34507ZM18.5164 8.65957L18.5137 9.15957H18.5164V8.65957ZM18.0976 8.53224L17.8215 8.94911V8.94911L18.0976 8.53224ZM17.8609 8.28295L17.3665 8.35797C17.3761 8.4212 17.3978 8.48201 17.4303 8.53709L17.8609 8.28295ZM17.8137 8.121L18.2712 7.91913L18.2712 7.91912L17.8137 8.121ZM17.7608 7.67508L17.2688 7.58588L17.2688 7.58588L17.7608 7.67508ZM17.9648 7.27829L17.6112 6.92469L17.606 6.93007L17.9648 7.27829ZM18.0131 7.23007L17.6596 6.87637L17.6595 6.87651L18.0131 7.23007ZM18.5208 6.47071L18.9827 6.66218V6.66218L18.5208 6.47071ZM18.5208 4.67823L18.9827 4.48676V4.48676L18.5208 4.67823ZM18.0128 3.91862L17.6592 4.27208L17.6594 4.27237L18.0128 3.91862ZM17.2537 3.41111L17.0622 3.87299L17.0622 3.87299L17.2537 3.41111ZM15.4612 3.41111L15.6527 3.87299L15.6527 3.87299L15.4612 3.41111ZM14.7016 3.91912L15.0552 4.27266L15.0553 4.27253L14.7016 3.91912ZM14.6536 3.96709L15.0019 4.32594L15.0072 4.32064L14.6536 3.96709ZM14.2568 4.1711L14.1676 3.67912L14.1676 3.67912L14.2568 4.1711ZM13.8109 4.11814L14.0128 3.66068L14.0079 3.65857L13.8109 4.11814ZM13.8046 4.11544L13.6077 4.57501L13.6077 4.57501L13.8046 4.11544ZM13.4678 3.83434L13.8846 3.55827L13.8846 3.55827L13.4678 3.83434ZM13.3404 3.41552H12.8404L12.8404 3.41819L13.3404 3.41552ZM12.6549 1.68549L12.3014 2.03905L12.3014 2.03905L12.6549 1.68549ZM9.34507 1.68549L9.69862 2.03905L9.69862 2.03905L9.34507 1.68549ZM8.65957 3.4836L9.15957 3.48628V3.4836H8.65957ZM8.53224 3.90243L8.94911 4.1785L8.94912 4.1785L8.53224 3.90243ZM8.28295 4.13914L8.35798 4.63348C8.42121 4.62389 8.48201 4.60225 8.53709 4.56974L8.28295 4.13914ZM8.121 4.18626L7.91912 3.72883L7.91912 3.72883L8.121 4.18626ZM7.67508 4.23918L7.76429 3.7472H7.76428L7.67508 4.23918ZM7.27827 4.03516L6.92468 4.38875L6.93004 4.39395L7.27827 4.03516ZM7.23007 3.98695L6.87637 4.34036L6.87651 4.34051L7.23007 3.98695ZM6.47071 3.47919L6.27924 3.94108V3.94108L6.47071 3.47919ZM4.67823 3.47919L4.8697 3.94108V3.94108L4.67823 3.47919ZM3.91887 3.98695L4.27228 4.34065L4.27256 4.34036L3.91887 3.98695ZM3.41111 4.74631L3.87299 4.93778H3.87299L3.41111 4.74631ZM3.41111 6.5388L3.87299 6.34733H3.87299L3.41111 6.5388ZM3.91912 7.2984L4.27267 6.94485L4.27253 6.94471L3.91912 7.2984ZM3.96707 7.34636L4.32591 6.99809L4.32062 6.9928L3.96707 7.34636ZM4.1711 7.74317L3.67912 7.83237V7.83237L4.1711 7.74317ZM4.11817 8.18909L3.66074 7.9872L3.66074 7.98721L4.11817 8.18909ZM4.10306 8.22648L3.6338 8.05389L3.63379 8.05389L4.10306 8.22648ZM3.82978 8.58509L3.5389 8.17841L3.5389 8.17841L3.82978 8.58509ZM3.40843 8.72766V9.22766C3.41371 9.22766 3.41899 9.22758 3.42426 9.22741L3.40843 8.72766ZM1.68549 9.41316L2.03905 9.76671H2.03905L1.68549 9.41316ZM1.68549 12.723L2.03905 12.3695L2.03905 12.3695L1.68549 12.723ZM3.4836 13.4085L3.48628 12.9085H3.4836V13.4085ZM3.90243 13.5358L4.1785 13.119L4.1785 13.119L3.90243 13.5358ZM4.18349 13.8727L3.7239 14.0697L3.72606 14.0746L4.18349 13.8727ZM4.18626 13.879L3.72883 14.0809L3.72883 14.0809L4.18626 13.879ZM4.23918 14.3249L3.7472 14.2357L4.23918 14.3249ZM4.03518 14.7217L4.38877 15.0753L4.39399 15.0699L4.03518 14.7217ZM3.98696 14.7699L4.34037 15.1236L4.34051 15.1235L3.98696 14.7699ZM3.47919 15.5293L3.94108 15.7208H3.94108L3.47919 15.5293ZM3.47919 17.3218L3.94108 17.1303L3.94108 17.1303L3.47919 17.3218ZM3.9867 18.0809L4.34045 17.7275L4.34017 17.7272L3.9867 18.0809ZM4.74631 18.5889L4.93778 18.127L4.93778 18.127L4.74631 18.5889ZM6.5388 18.5889L6.34733 18.127L6.34733 18.127L6.5388 18.5889ZM7.2984 18.0809L6.94485 17.7273L6.94465 17.7275L7.2984 18.0809ZM7.34635 18.0329L6.99808 17.6741L6.99279 17.6794L7.34635 18.0329ZM7.74317 17.8289L7.65396 17.3369L7.65396 17.3369L7.74317 17.8289ZM8.18909 17.8818L7.9872 18.3393L7.98724 18.3393L8.18909 17.8818ZM8.22648 17.8969L8.39907 17.4277L8.39904 17.4277L8.22648 17.8969ZM8.58509 18.1702L8.99178 17.8794L8.99178 17.8793L8.58509 18.1702ZM8.72766 18.5916H9.22766C9.22766 18.5863 9.22758 18.581 9.22741 18.5757L8.72766 18.5916ZM9.41316 20.3145L9.76671 19.961L9.41316 20.3145ZM12.723 20.3145L12.3695 19.961V19.961L12.723 20.3145ZM13.4085 18.5164L12.9085 18.5137V18.5164H13.4085ZM13.5358 18.0976L13.9527 18.3736L13.9527 18.3736L13.5358 18.0976ZM13.8727 17.8165L14.0697 18.2761L14.0746 18.2739L13.8727 17.8165ZM13.879 17.8137L14.0809 18.2712L14.0809 18.2712L13.879 17.8137ZM14.3249 17.7608L14.4141 17.2688L14.4141 17.2688L14.3249 17.7608ZM14.7217 17.9648L15.0753 17.6112L15.0699 17.606L14.7217 17.9648ZM14.7697 18.0128L15.1234 17.6594L15.1232 17.6592L14.7697 18.0128ZM15.5293 18.5208L15.3378 18.9827L15.3378 18.9827L15.5293 18.5208ZM17.3218 18.5208L17.1303 18.0589L17.3218 18.5208ZM18.0811 18.013L17.7277 17.6593L17.7274 17.6596L18.0811 18.013ZM18.5889 17.2537L18.127 17.0622H18.127L18.5889 17.2537ZM18.5889 15.4612L18.127 15.6527L18.127 15.6527L18.5889 15.4612ZM18.0809 14.7016L17.7273 15.0552L17.7275 15.0553L18.0809 14.7016ZM18.0329 14.6536L17.6741 15.0019L17.6794 15.0072L18.0329 14.6536ZM17.8289 14.2568L17.3369 14.346L17.3369 14.346L17.8289 14.2568ZM11 1.7766C10.5852 1.7766 10.1875 1.94136 9.89421 2.23463L10.6013 2.94174C10.7071 2.836 10.8505 2.7766 11 2.7766V1.7766ZM12.1058 2.23463C11.8125 1.94136 11.4148 1.7766 11 1.7766V2.7766C11.1495 2.7766 11.293 2.836 11.3987 2.94174L12.1058 2.23463ZM12.5638 3.34043C12.5638 2.92567 12.3991 2.52791 12.1058 2.23463L11.3987 2.94174C11.5044 3.04748 11.5638 3.19089 11.5638 3.34043H12.5638ZM12.5638 3.41702V3.34043H11.5638V3.41702H12.5638ZM12.5638 3.41844L12.5638 3.4159L11.5638 3.41815L11.5638 3.42069L12.5638 3.41844ZM12.8203 4.26314C12.6542 4.01232 12.565 3.71841 12.5638 3.41757L11.5638 3.42156C11.5658 3.91742 11.7127 4.40187 11.9865 4.81529L12.8203 4.26314ZM13.4963 4.82823C13.2209 4.70961 12.9859 4.51324 12.8203 4.26314L11.9865 4.81529C12.2595 5.22753 12.6468 5.5512 13.1009 5.74671L13.4963 4.82823ZM14.3954 4.93523C14.093 4.99007 13.7811 4.95331 13.4997 4.8297L13.0975 5.74524C13.5613 5.94898 14.0753 6.00957 14.5738 5.91919L14.3954 4.93523ZM15.1989 4.52017C14.9786 4.73567 14.6987 4.88024 14.3954 4.93523L14.5738 5.91919C15.0736 5.82856 15.5349 5.5903 15.8981 5.23503L15.1989 4.52017ZM15.2512 4.46776L15.1949 4.52405L15.9021 5.23115L15.9583 5.17485L15.2512 4.46776ZM15.7586 4.12851C15.5687 4.2072 15.3963 4.32255 15.251 4.46795L15.9585 5.17466C16.0109 5.12224 16.0731 5.08065 16.1415 5.05228L15.7586 4.12851ZM16.3574 4.0093C16.1519 4.0093 15.9484 4.04981 15.7586 4.12851L16.1415 5.05228C16.21 5.0239 16.2834 5.0093 16.3574 5.0093V4.0093ZM16.9563 4.12851C16.7665 4.04981 16.563 4.0093 16.3574 4.0093V5.0093C16.4315 5.0093 16.5049 5.0239 16.5734 5.05228L16.9563 4.12851ZM17.4644 4.46845C17.3194 4.32329 17.1465 4.20733 16.9563 4.12851L16.5734 5.05228C16.6415 5.08052 16.7043 5.1225 16.7569 5.17517L17.4644 4.46845ZM17.8034 4.97562C17.7247 4.78577 17.6094 4.6133 17.464 4.46806L16.7573 5.17556C16.8097 5.22793 16.8513 5.29011 16.8796 5.35855L17.8034 4.97562ZM17.9226 5.57447C17.9226 5.36896 17.8821 5.16546 17.8034 4.97561L16.8796 5.35856C16.908 5.427 16.9226 5.50037 16.9226 5.57447H17.9226ZM17.8034 6.17332C17.8821 5.98348 17.9226 5.77998 17.9226 5.57447H16.9226C16.9226 5.64856 16.908 5.72193 16.8796 5.79038L17.8034 6.17332ZM17.4637 6.68113C17.609 6.53602 17.7246 6.36333 17.8034 6.17332L16.8796 5.79038C16.8513 5.85867 16.8095 5.92114 16.757 5.97363L17.4637 6.68113ZM17.4126 6.73216L17.4637 6.68112L16.757 5.97364L16.7059 6.02468L17.4126 6.73216ZM17.4118 6.73307L17.4167 6.72804L16.7018 6.0288L16.6969 6.03383L17.4118 6.73307ZM16.9967 7.53653C17.0517 7.23326 17.1963 6.95341 17.4118 6.73308L16.6969 6.03382C16.3417 6.39698 16.1034 6.85825 16.0127 7.35812L16.9967 7.53653ZM17.0645 8.33801C16.9716 8.08214 16.9479 7.80559 16.9967 7.53653L16.0127 7.35812C15.9323 7.8016 15.9714 8.25744 16.1245 8.6792L17.0645 8.33801ZM17.1027 8.50128C17.0971 8.48819 17.0935 8.47433 17.0921 8.4602L16.0968 8.55701C16.1082 8.67332 16.1373 8.78741 16.1835 8.89523L17.1027 8.50128ZM17.6688 9.17972C17.418 9.01362 17.2212 8.7778 17.1027 8.50129L16.1835 8.89522C16.3789 9.35098 16.7032 9.73969 17.1166 10.0135L17.6688 9.17972ZM18.5143 9.43617C18.2135 9.43497 17.9196 9.34583 17.6688 9.17973L17.1166 10.0135C17.53 10.2873 18.0145 10.4342 18.5104 10.4362L18.5143 9.43617ZM18.5158 9.43617L18.5133 9.43617L18.5114 10.4362L18.514 10.4362L18.5158 9.43617ZM18.6596 9.43617H18.5149V10.4362H18.6596V9.43617ZM19.7654 9.89421C19.4721 9.60093 19.0743 9.43617 18.6596 9.43617V10.4362C18.8091 10.4362 18.9525 10.4956 19.0583 10.6013L19.7654 9.89421ZM20.2234 11C20.2234 10.5852 20.0586 10.1875 19.7654 9.89421L19.0583 10.6013C19.164 10.7071 19.2234 10.8505 19.2234 11H20.2234ZM19.7654 12.1058C20.0586 11.8125 20.2234 11.4148 20.2234 11H19.2234C19.2234 11.1495 19.164 11.2929 19.0583 11.3987L19.7654 12.1058ZM18.6596 12.5638C19.0743 12.5638 19.4721 12.3991 19.7654 12.1058L19.0583 11.3987C18.9525 11.5044 18.8091 11.5638 18.6596 11.5638V12.5638ZM18.583 12.5638L18.6595 12.5638L18.6596 11.5638L18.583 11.5638L18.583 12.5638ZM18.5825 12.5638L18.585 12.5638L18.5809 11.5638L18.5784 11.5638L18.5825 12.5638ZM17.7369 12.8203C17.9877 12.6542 18.2816 12.565 18.5824 12.5638L18.5784 11.5638C18.0826 11.5658 17.5981 11.7127 17.1847 11.9865L17.7369 12.8203ZM17.1718 13.4962C17.2905 13.2208 17.4868 12.9859 17.7369 12.8203L17.1847 11.9865C16.7725 12.2595 16.4489 12.6467 16.2534 13.1007L17.1718 13.4962ZM17.0648 14.3954C17.0099 14.0929 17.0467 13.781 17.1704 13.4996L16.2549 13.0973C16.051 13.5611 15.9904 14.0752 16.0808 14.5738L17.0648 14.3954ZM17.4798 15.1989C17.2643 14.9786 17.1198 14.6987 17.0648 14.3954L16.0808 14.5738C16.1714 15.0736 16.4097 15.5349 16.765 15.8981L17.4798 15.1989ZM17.5322 15.2512L17.4759 15.1949L16.7689 15.9021L16.8252 15.9584L17.5322 15.2512ZM17.8715 15.7586C17.7928 15.5687 17.6775 15.3963 17.5321 15.251L16.8253 15.9585C16.8778 16.0109 16.9193 16.0731 16.9477 16.1415L17.8715 15.7586ZM17.9907 16.3574C17.9907 16.1519 17.9502 15.9484 17.8715 15.7586L16.9477 16.1415C16.9761 16.21 16.9907 16.2834 16.9907 16.3574H17.9907ZM17.8715 16.9563C17.9502 16.7665 17.9907 16.563 17.9907 16.3574H16.9907C16.9907 16.4315 16.9761 16.5049 16.9477 16.5734L17.8715 16.9563ZM17.5315 17.4644C17.6767 17.3194 17.7927 17.1465 17.8715 16.9563L16.9477 16.5734C16.9195 16.6415 16.8775 16.7043 16.8248 16.7569L17.5315 17.4644ZM17.0244 17.8034C17.2142 17.7247 17.3867 17.6094 17.5319 17.464L16.8244 16.7572C16.7721 16.8097 16.7099 16.8513 16.6414 16.8796L17.0244 17.8034ZM16.4255 17.9226C16.631 17.9226 16.8345 17.8821 17.0244 17.8034L16.6414 16.8796C16.573 16.908 16.4996 16.9226 16.4255 16.9226V17.9226ZM15.8267 17.8034C16.0165 17.8821 16.22 17.9226 16.4255 17.9226V16.9226C16.3514 16.9226 16.2781 16.908 16.2096 16.8796L15.8267 17.8034ZM15.3189 17.4637C15.464 17.609 15.6367 17.7246 15.8267 17.8034L16.2096 16.8796C16.1413 16.8513 16.0789 16.8095 16.0264 16.757L15.3189 17.4637ZM15.2678 17.4126L15.3189 17.4637L16.0264 16.757L15.9753 16.7059L15.2678 17.4126ZM15.267 17.4118L15.272 17.4168L15.9712 16.7018L15.9661 16.6969L15.267 17.4118ZM14.4635 16.9967C14.7667 17.0517 15.0466 17.1963 15.2669 17.4118L15.9662 16.6969C15.603 16.3417 15.1418 16.1034 14.6419 16.0127L14.4635 16.9967ZM13.5677 17.1023C13.8491 16.9786 14.161 16.9418 14.4635 16.9967L14.6419 16.0127C14.1433 15.9223 13.6292 15.983 13.1654 16.1868L13.5677 17.1023ZM12.8884 17.6688C13.054 17.4187 13.2889 17.2224 13.5643 17.1038L13.1687 16.1853C12.7148 16.3808 12.3276 16.7045 12.0546 17.1166L12.8884 17.6688ZM12.6319 18.5143C12.6331 18.2135 12.7223 17.9196 12.8884 17.6688L12.0546 17.1166C11.7808 17.53 11.6339 18.0145 11.6319 18.5104L12.6319 18.5143ZM12.6319 18.5158L12.6319 18.5133L11.6319 18.5114L11.6319 18.514L12.6319 18.5158ZM12.6319 18.6596V18.5149H11.6319V18.6596H12.6319ZM12.1739 19.7654C12.4672 19.4721 12.6319 19.0743 12.6319 18.6596H11.6319C11.6319 18.8091 11.5725 18.9525 11.4668 19.0583L12.1739 19.7654ZM11.0681 20.2234C11.4828 20.2234 11.8806 20.0586 12.1739 19.7654L11.4668 19.0583C11.361 19.164 11.2176 19.2234 11.0681 19.2234V20.2234ZM9.96229 19.7654C10.2556 20.0586 10.6533 20.2234 11.0681 20.2234V19.2234C10.9185 19.2234 10.7751 19.164 10.6694 19.0583L9.96229 19.7654ZM9.50426 18.6596C9.50426 19.0743 9.66902 19.4721 9.96229 19.7654L10.6694 19.0583C10.5637 18.9525 10.5043 18.8091 10.5043 18.6596H9.50426ZM9.50426 18.583V18.6596H10.5043V18.583H9.50426ZM9.50412 18.5739L9.50429 18.5888L10.5042 18.5771L10.504 18.5622L9.50412 18.5739ZM9.21675 17.7184C9.39682 17.9702 9.49698 18.2703 9.50422 18.5797L10.5039 18.5564C10.492 18.0463 10.3269 17.5517 10.0301 17.1367L9.21675 17.7184ZM8.50884 17.1734C8.7933 17.2812 9.03965 17.4708 9.21675 17.7184L10.0301 17.1367C9.7382 16.7285 9.33216 16.4161 8.86328 16.2383L8.50884 17.1734ZM7.60462 17.0648C7.90289 17.0107 8.21038 17.0457 8.4887 17.1653L8.88343 16.2465C8.42467 16.0494 7.91785 15.9917 7.4262 16.0808L7.60462 17.0648ZM6.80114 17.4798C7.02145 17.2643 7.30131 17.1198 7.60461 17.0648L7.4262 16.0808C6.92636 16.1714 6.46507 16.4097 6.10187 16.765L6.80114 17.4798ZM6.74877 17.5322L6.80507 17.4759L6.09795 16.7689L6.04165 16.8251L6.74877 17.5322ZM6.24141 17.8715C6.43126 17.7928 6.60373 17.6774 6.74896 17.5321L6.04146 16.8253C5.9891 16.8778 5.92691 16.9193 5.85847 16.9477L6.24141 17.8715ZM5.64255 17.9907C5.84806 17.9907 6.05156 17.9502 6.2414 17.8715L5.85847 16.9477C5.79002 16.9761 5.71665 16.9907 5.64255 16.9907V17.9907ZM5.0437 17.8715C5.23355 17.9502 5.43704 17.9907 5.64255 17.9907V16.9907C5.56846 16.9907 5.49509 16.9761 5.42664 16.9477L5.0437 17.8715ZM4.53564 17.5316C4.68064 17.6767 4.85354 17.7927 5.0437 17.8715L5.42664 16.9477C5.3585 16.9195 5.29574 16.8775 5.24314 16.8248L4.53564 17.5316ZM4.19659 17.0244C4.27529 17.2142 4.39064 17.3867 4.53604 17.5319L5.24275 16.8244C5.19033 16.7721 5.14874 16.7099 5.12036 16.6414L4.19659 17.0244ZM4.07738 16.4255C4.07738 16.631 4.11789 16.8345 4.19659 17.0244L5.12036 16.6414C5.09199 16.573 5.07738 16.4996 5.07738 16.4255H4.07738ZM4.19659 15.8267C4.11789 16.0165 4.07738 16.22 4.07738 16.4255H5.07738C5.07738 16.3514 5.09199 16.2781 5.12036 16.2096L4.19659 15.8267ZM4.53628 15.3189C4.391 15.464 4.27535 15.6367 4.19659 15.8267L5.12036 16.2096C5.14867 16.1413 5.19046 16.0789 5.243 16.0264L4.53628 15.3189ZM4.58737 15.2678L4.53628 15.3189L5.243 16.0264L5.29409 15.9753L4.58737 15.2678ZM4.58816 15.267L4.58323 15.272L5.29823 15.9712L5.30316 15.9661L4.58816 15.267ZM5.00332 14.4635C4.94833 14.7667 4.80375 15.0466 4.58823 15.2669L5.30309 15.9662C5.65833 15.603 5.89664 15.1418 5.98727 14.6419L5.00332 14.4635ZM4.89778 13.5678C5.02139 13.8492 5.05815 14.1611 5.00332 14.4635L5.98727 14.6419C6.07766 14.1434 6.01706 13.6293 5.81332 13.1656L4.89778 13.5678ZM4.33123 12.8884C4.58133 13.054 4.7777 13.2889 4.89631 13.5644L5.81479 13.169C5.61928 12.7149 5.29561 12.3276 4.88337 12.0546L4.33123 12.8884ZM3.48565 12.6319C3.78649 12.6331 4.08041 12.7223 4.33122 12.8884L4.88337 12.0546C4.46996 11.7808 3.9855 11.6339 3.48965 11.6319L3.48565 12.6319ZM3.34043 12.6319H3.48765V11.6319H3.34043V12.6319ZM2.23463 12.1739C2.52791 12.4672 2.92567 12.6319 3.34043 12.6319V11.6319C3.19089 11.6319 3.04748 11.5725 2.94174 11.4668L2.23463 12.1739ZM1.7766 11.0681C1.7766 11.4828 1.94136 11.8806 2.23463 12.1739L2.94174 11.4668C2.836 11.361 2.7766 11.2176 2.7766 11.0681H1.7766ZM2.23463 9.96229C1.94136 10.2556 1.7766 10.6533 1.7766 11.0681H2.7766C2.7766 10.9185 2.836 10.7751 2.94174 10.6694L2.23463 9.96229ZM3.34043 9.50426C2.92567 9.50426 2.52791 9.66902 2.23463 9.96229L2.94174 10.6694C3.04748 10.5637 3.19089 10.5043 3.34043 10.5043V9.50426ZM3.41702 9.50426H3.34043V10.5043H3.41702V9.50426ZM3.4261 9.50412L3.41118 9.50429L3.42287 10.5042L3.43779 10.504L3.4261 9.50412ZM4.28156 9.21675C4.0298 9.39682 3.7297 9.49698 3.42026 9.50422L3.44364 10.5039C3.95368 10.492 4.44834 10.3269 4.86331 10.0301L4.28156 9.21675ZM4.8266 8.50882C4.71877 8.79329 4.52919 9.03964 4.28156 9.21675L4.86331 10.0301C5.27147 9.7382 5.58396 9.33213 5.76168 8.86325L4.8266 8.50882ZM4.93523 7.60461C4.98931 7.90288 4.9543 8.21036 4.83474 8.48868L5.75354 8.88339C5.95061 8.42465 6.00833 7.91784 5.91919 7.4262L4.93523 7.60461ZM4.52017 6.80114C4.73567 7.02145 4.88024 7.30131 4.93523 7.60461L5.91919 7.4262C5.82856 6.92636 5.5903 6.46507 5.23503 6.10187L4.52017 6.80114ZM4.46775 6.74877L4.52405 6.80506L5.23115 6.09795L5.17486 6.04166L4.46775 6.74877ZM4.12851 6.24141C4.2072 6.43125 4.32255 6.60373 4.46795 6.74896L5.17466 6.04146C5.12224 5.9891 5.08065 5.92691 5.05228 5.85847L4.12851 6.24141ZM4.0093 5.64255C4.0093 5.84806 4.04981 6.05156 4.12851 6.24141L5.05228 5.85847C5.0239 5.79002 5.0093 5.71665 5.0093 5.64255H4.0093ZM4.12851 5.0437C4.04981 5.23355 4.0093 5.43704 4.0093 5.64255H5.0093C5.0093 5.56846 5.0239 5.49509 5.05228 5.42664L4.12851 5.0437ZM4.46845 4.53564C4.32329 4.68064 4.20733 4.85354 4.12851 5.0437L5.05228 5.42664C5.08052 5.3585 5.1225 5.29575 5.17517 5.24314L4.46845 4.53564ZM4.97562 4.19659C4.78577 4.27529 4.6133 4.39064 4.46806 4.53604L5.17556 5.24275C5.22792 5.19033 5.29011 5.14874 5.35855 5.12036L4.97562 4.19659ZM5.57447 4.07738C5.36896 4.07738 5.16546 4.11789 4.97561 4.19659L5.35856 5.12036C5.427 5.09199 5.50037 5.07738 5.57447 5.07738V4.07738ZM6.17332 4.19659C5.98348 4.11789 5.77998 4.07738 5.57447 4.07738V5.07738C5.64856 5.07738 5.72193 5.09199 5.79038 5.12036L6.17332 4.19659ZM6.68113 4.53629C6.53601 4.39101 6.36332 4.27535 6.17332 4.19659L5.79038 5.12036C5.85867 5.14867 5.92115 5.19046 5.97363 5.243L6.68113 4.53629ZM6.73216 4.58737L6.68112 4.53628L5.97364 5.24301L6.02467 5.2941L6.73216 4.58737ZM6.73308 4.58822L6.72804 4.5833L6.02879 5.29817L6.03382 5.30309L6.73308 4.58822ZM7.53653 5.00332C7.23326 4.94833 6.95341 4.80375 6.73308 4.58823L6.03382 5.30309C6.39698 5.65833 6.85824 5.89664 7.35812 5.98727L7.53653 5.00332ZM8.33801 4.93551C8.08214 5.02839 7.80558 5.0521 7.53653 5.00332L7.35812 5.98727C7.8016 6.06769 8.25743 6.02859 8.67919 5.87551L8.33801 4.93551ZM8.50129 4.89733C8.48819 4.90294 8.47433 4.90649 8.4602 4.90786L8.55701 5.90316C8.67331 5.89185 8.78741 5.86267 8.89522 5.81647L8.50129 4.89733ZM9.17972 4.33123C9.01362 4.58204 8.7778 4.77882 8.50129 4.89733L8.89522 5.81647C9.35098 5.62113 9.73968 5.29679 10.0135 4.88337L9.17972 4.33123ZM9.43617 3.48566C9.43497 3.78649 9.34583 4.08041 9.17973 4.33122L10.0135 4.88337C10.2873 4.46996 10.4342 3.9855 10.4362 3.48965L9.43617 3.48566ZM9.43617 3.48417L9.43617 3.48672L10.4362 3.48859L10.4362 3.48604L9.43617 3.48417ZM9.43617 3.34043V3.48511H10.4362V3.34043H9.43617ZM9.89421 2.23463C9.60093 2.52791 9.43617 2.92567 9.43617 3.34043H10.4362C10.4362 3.19089 10.4956 3.04748 10.6013 2.94174L9.89421 2.23463ZM17.096 14.0106L17.6799 14.2683L18.0837 13.3535L17.4998 13.0958L17.096 14.0106ZM18.0815 13.3451L17.4948 13.0936L17.1009 14.0128L17.6876 14.2642L18.0815 13.3451ZM17.8896 13.0509C17.6837 13.1872 17.5222 13.3807 17.425 13.6077L18.3441 14.0016C18.3646 13.9539 18.3985 13.9133 18.4417 13.8846L17.8896 13.0509ZM18.5818 12.8404C18.3355 12.8418 18.0949 12.9149 17.8896 13.0509L18.4417 13.8846C18.4849 13.8561 18.5354 13.8407 18.5872 13.8404L18.5818 12.8404ZM18.6596 12.8404H18.5845V13.8404H18.6596V12.8404ZM19.961 12.3014C19.6158 12.6465 19.1477 12.8404 18.6596 12.8404V13.8404C19.4129 13.8404 20.1354 13.5412 20.6681 13.0085L19.961 12.3014ZM20.5 11C20.5 11.4881 20.3061 11.9562 19.961 12.3014L20.6681 13.0085C21.2007 12.4758 21.5 11.7533 21.5 11H20.5ZM19.961 9.69862C20.3061 10.0438 20.5 10.5119 20.5 11H21.5C21.5 10.2467 21.2007 9.5242 20.6681 8.99152L19.961 9.69862ZM18.6596 9.15957C19.1477 9.15957 19.6158 9.35348 19.961 9.69862L20.6681 8.99152C20.1354 8.45883 19.4129 8.15957 18.6596 8.15957V9.15957ZM18.5164 9.15957H18.6596V8.15957H18.5164V9.15957ZM17.8215 8.94911C18.0269 9.08512 18.2674 9.15825 18.5137 9.15957L18.5191 8.15958C18.4673 8.15931 18.4168 8.14394 18.3736 8.11537L17.8215 8.94911ZM17.4303 8.53709C17.5274 8.70169 17.661 8.8428 17.8215 8.94911L18.3736 8.11537C18.3399 8.09304 18.3119 8.06339 18.2915 8.02881L17.4303 8.53709ZM17.3563 8.32288C17.3613 8.3341 17.3647 8.34591 17.3665 8.35797L18.3552 8.20793C18.3401 8.10861 18.3119 8.01148 18.2712 7.91913L17.3563 8.32288ZM17.2688 7.58588C17.2237 7.83477 17.2542 8.09147 17.3563 8.32289L18.2712 7.91912C18.2497 7.8705 18.2433 7.81657 18.2528 7.76428L17.2688 7.58588ZM17.606 6.93007C17.4311 7.11034 17.3137 7.33862 17.2688 7.58588L18.2528 7.76428C18.2622 7.71234 18.2869 7.66438 18.3236 7.62651L17.606 6.93007ZM17.6595 6.87651L17.6113 6.92473L18.3184 7.63185L18.3666 7.58362L17.6595 6.87651ZM18.0589 6.27924C17.9663 6.50258 17.8307 6.70549 17.6596 6.87637L18.3665 7.58376C18.6304 7.32003 18.8398 7.00687 18.9827 6.66218L18.0589 6.27924ZM18.1992 5.57447C18.1992 5.81633 18.1515 6.05582 18.0589 6.27924L18.9827 6.66218C19.1256 6.31736 19.1992 5.94775 19.1992 5.57447H18.1992ZM18.0589 4.86969C18.1515 5.09312 18.1992 5.33261 18.1992 5.57447H19.1992C19.1992 5.20119 19.1256 4.83158 18.9827 4.48676L18.0589 4.86969ZM17.6594 4.27237C17.8306 4.44329 17.9663 4.64627 18.0589 4.8697L18.9827 4.48676C18.8398 4.14193 18.6302 3.82867 18.3662 3.56487L17.6594 4.27237ZM17.0622 3.87299C17.2855 3.96554 17.4883 4.10115 17.6592 4.27208L18.3664 3.56515C18.1028 3.30135 17.7897 3.09205 17.4452 2.94922L17.0622 3.87299ZM16.3574 3.7327C16.5993 3.7327 16.8388 3.78038 17.0622 3.87299L17.4452 2.94922C17.1003 2.80628 16.7307 2.7327 16.3574 2.7327V3.7327ZM15.6527 3.87299C15.8761 3.78038 16.1156 3.7327 16.3574 3.7327V2.7327C15.9842 2.7327 15.6146 2.80628 15.2697 2.94922L15.6527 3.87299ZM15.0553 4.27253C15.2262 4.10145 15.4294 3.96555 15.6527 3.87299L15.2697 2.94922C14.925 3.09214 14.6116 3.30181 14.3479 3.56571L15.0553 4.27253ZM15.0072 4.32064L15.0552 4.27266L14.348 3.56557L14.3001 3.61355L15.0072 4.32064ZM14.346 4.66307C14.5933 4.61824 14.8216 4.50085 15.0018 4.3259L14.3054 3.60828C14.2675 3.64504 14.2196 3.6697 14.1676 3.67912L14.346 4.66307ZM13.609 4.57557C13.8404 4.67767 14.0971 4.70822 14.346 4.66307L14.1676 3.67912C14.1154 3.68858 14.0615 3.6822 14.0128 3.66071L13.609 4.57557ZM13.6077 4.57501L13.614 4.57771L14.0079 3.65857L14.0016 3.65587L13.6077 4.57501ZM13.0509 4.11042C13.1872 4.31626 13.3807 4.47775 13.6077 4.57501L14.0016 3.65587C13.9539 3.63544 13.9133 3.60151 13.8846 3.55827L13.0509 4.11042ZM12.8404 3.41819C12.8418 3.66448 12.9149 3.90505 13.0509 4.11042L13.8846 3.55827C13.8561 3.51513 13.8407 3.46459 13.8404 3.41284L12.8404 3.41819ZM12.8404 3.34043V3.41552H13.8404V3.34043H12.8404ZM12.3014 2.03905C12.6465 2.38419 12.8404 2.85231 12.8404 3.34043H13.8404C13.8404 2.5871 13.5412 1.86462 13.0085 1.33194L12.3014 2.03905ZM11 1.5C11.4881 1.5 11.9562 1.6939 12.3014 2.03905L13.0085 1.33194C12.4758 0.799259 11.7533 0.5 11 0.5V1.5ZM9.69862 2.03905C10.0438 1.6939 10.5119 1.5 11 1.5V0.5C10.2467 0.5 9.5242 0.799259 8.99152 1.33194L9.69862 2.03905ZM9.15957 3.34043C9.15957 2.85231 9.35348 2.3842 9.69862 2.03905L8.99152 1.33194C8.45883 1.86462 8.15957 2.5871 8.15957 3.34043H9.15957ZM9.15957 3.4836V3.34043H8.15957V3.4836H9.15957ZM8.94912 4.1785C9.08512 3.97314 9.15825 3.73257 9.15957 3.48628L8.15958 3.48093C8.15931 3.53267 8.14394 3.58321 8.11537 3.62635L8.94912 4.1785ZM8.53709 4.56974C8.70169 4.47259 8.8428 4.33904 8.94911 4.1785L8.11537 3.62635C8.09304 3.66008 8.06339 3.68814 8.02881 3.70855L8.53709 4.56974ZM8.32288 4.64369C8.33409 4.63874 8.34589 4.63532 8.35798 4.63348L8.20792 3.6448C8.10863 3.65987 8.01149 3.68806 7.91912 3.72883L8.32288 4.64369ZM7.58587 4.73116C7.83477 4.77629 8.09147 4.74582 8.32288 4.64369L7.91912 3.72883C7.8705 3.75028 7.81657 3.75668 7.76429 3.7472L7.58587 4.73116ZM6.93004 4.39395C7.11032 4.56892 7.33861 4.68632 7.58588 4.73116L7.76428 3.7472C7.71234 3.73778 7.66438 3.71312 7.6265 3.67636L6.93004 4.39395ZM6.87651 4.34051L6.92472 4.38871L7.63183 3.6816L7.58362 3.6334L6.87651 4.34051ZM6.27924 3.94108C6.50258 4.03366 6.70549 4.16934 6.87637 4.34036L7.58377 3.63354C7.32003 3.36959 7.00687 3.16019 6.66218 3.01731L6.27924 3.94108ZM5.57447 3.80079C5.81633 3.80079 6.05582 3.84846 6.27924 3.94108L6.66218 3.01731C6.31736 2.87436 5.94774 2.80079 5.57447 2.80079V3.80079ZM4.8697 3.94108C5.09312 3.84846 5.33261 3.80079 5.57447 3.80079V2.80079C5.20119 2.80079 4.83158 2.87436 4.48676 3.01731L4.8697 3.94108ZM4.27256 4.34036C4.44345 4.16934 4.64636 4.03366 4.8697 3.94108L4.48676 3.01731C4.14207 3.16019 3.82891 3.36959 3.56517 3.63354L4.27256 4.34036ZM3.87299 4.93778C3.96558 4.71444 4.10126 4.51153 4.27228 4.34065L3.56546 3.63326C3.30151 3.89699 3.09211 4.21015 2.94922 4.55484L3.87299 4.93778ZM3.7327 5.64255C3.7327 5.40069 3.78038 5.1612 3.87299 4.93778L2.94922 4.55484C2.80628 4.89966 2.7327 5.26928 2.7327 5.64255H3.7327ZM3.87299 6.34733C3.78038 6.1239 3.7327 5.88441 3.7327 5.64255H2.7327C2.7327 6.01583 2.80628 6.38545 2.94922 6.73027L3.87299 6.34733ZM4.27253 6.94471C4.10145 6.77377 3.96555 6.57059 3.87299 6.34733L2.94922 6.73027C3.09214 7.07503 3.30181 7.38842 3.56571 7.6521L4.27253 6.94471ZM4.32062 6.9928L4.27267 6.94485L3.56557 7.65196L3.61352 7.69991L4.32062 6.9928ZM4.66307 7.65396C4.61824 7.40669 4.50084 7.1784 4.32587 6.99812L3.60828 7.69459C3.64503 7.73246 3.6697 7.78042 3.67912 7.83237L4.66307 7.65396ZM4.5756 8.39097C4.67774 8.15956 4.7082 7.90285 4.66307 7.65396L3.67912 7.83237C3.6886 7.88466 3.6822 7.93859 3.66074 7.9872L4.5756 8.39097ZM4.57233 8.39908C4.57334 8.39634 4.57443 8.39363 4.57561 8.39096L3.66074 7.98721C3.65106 8.00915 3.64207 8.03138 3.6338 8.05389L4.57233 8.39908ZM4.12065 8.99178C4.32727 8.844 4.48465 8.63748 4.57233 8.39907L3.63379 8.05389C3.61537 8.10398 3.58231 8.14736 3.5389 8.17841L4.12065 8.99178ZM3.42426 9.22741C3.67451 9.21948 3.91688 9.13752 4.12065 8.99178L3.5389 8.17841C3.49609 8.20903 3.44518 8.22625 3.39261 8.22791L3.42426 9.22741ZM3.34043 9.22766H3.40843V8.22766H3.34043V9.22766ZM2.03905 9.76671C2.3842 9.42156 2.85231 9.22766 3.34043 9.22766V8.22766C2.5871 8.22766 1.86462 8.52692 1.33194 9.0596L2.03905 9.76671ZM1.5 11.0681C1.5 10.58 1.6939 10.1119 2.03905 9.76671L1.33194 9.0596C0.799258 9.59228 0.5 10.3148 0.5 11.0681H1.5ZM2.03905 12.3695C1.6939 12.0243 1.5 11.5562 1.5 11.0681H0.5C0.5 11.8214 0.799258 12.5439 1.33194 13.0766L2.03905 12.3695ZM3.34043 12.9085C2.85231 12.9085 2.3842 12.7146 2.03905 12.3695L1.33194 13.0766C1.86462 13.6093 2.5871 13.9085 3.34043 13.9085V12.9085ZM3.4836 12.9085H3.34043V13.9085H3.4836V12.9085ZM4.1785 13.119C3.97314 12.983 3.73257 12.9098 3.48628 12.9085L3.48093 13.9085C3.53267 13.9088 3.58321 13.9241 3.62635 13.9527L4.1785 13.119ZM4.64306 13.6758C4.54584 13.4489 4.38442 13.2553 4.1785 13.119L3.62635 13.9527C3.66953 13.9813 3.70346 14.022 3.72392 14.0697L4.64306 13.6758ZM4.64369 13.6771L4.64093 13.6709L3.72606 14.0746L3.72883 14.0809L4.64369 13.6771ZM4.73116 14.4141C4.77629 14.1652 4.74582 13.9085 4.64369 13.6771L3.72883 14.0809C3.75028 14.1295 3.75668 14.1834 3.7472 14.2357L4.73116 14.4141ZM4.39399 15.0699C4.56894 14.8897 4.68633 14.6614 4.73116 14.4141L3.7472 14.2357C3.73778 14.2877 3.71312 14.3356 3.67637 14.3735L4.39399 15.0699ZM4.34051 15.1235L4.38873 15.0753L3.68162 14.3682L3.6334 14.4164L4.34051 15.1235ZM3.94108 15.7208C4.03366 15.4974 4.16934 15.2945 4.34037 15.1236L3.63354 14.4162C3.36959 14.68 3.16019 14.9931 3.01731 15.3378L3.94108 15.7208ZM3.80079 16.4255C3.80079 16.1837 3.84846 15.9442 3.94108 15.7208L3.01731 15.3378C2.87436 15.6826 2.80079 16.0523 2.80079 16.4255H3.80079ZM3.94108 17.1303C3.84846 16.9069 3.80079 16.6674 3.80079 16.4255H2.80079C2.80079 16.7988 2.87436 17.1684 3.01731 17.5132L3.94108 17.1303ZM4.34017 17.7272C4.16924 17.5564 4.03363 17.3536 3.94108 17.1303L3.01731 17.5132C3.16014 17.8578 3.36943 18.1709 3.63324 18.4345L4.34017 17.7272ZM4.93778 18.127C4.71436 18.0344 4.51138 17.8986 4.34045 17.7275L3.63295 18.4342C3.89675 18.6983 4.21002 18.9078 4.55484 19.0508L4.93778 18.127ZM5.64255 18.2673C5.40069 18.2673 5.1612 18.2196 4.93778 18.127L4.55484 19.0508C4.89966 19.1937 5.26928 19.2673 5.64255 19.2673V18.2673ZM6.34733 18.127C6.1239 18.2196 5.88441 18.2673 5.64255 18.2673V19.2673C6.01583 19.2673 6.38545 19.1937 6.73027 19.0508L6.34733 18.127ZM6.94465 17.7275C6.77373 17.8986 6.57075 18.0344 6.34733 18.127L6.73027 19.0508C7.07509 18.9078 7.38835 18.6983 7.65215 18.4342L6.94465 17.7275ZM6.99279 17.6794L6.94485 17.7273L7.65196 18.4344L7.69991 18.3865L6.99279 17.6794ZM7.65396 17.3369C7.40669 17.3818 7.17839 17.4992 6.99812 17.6741L7.69459 18.3917C7.73246 18.355 7.78042 18.3303 7.83237 18.3209L7.65396 17.3369ZM8.39097 17.4244C8.15955 17.3223 7.90285 17.2918 7.65396 17.3369L7.83237 18.3209C7.88466 18.3114 7.93859 18.3178 7.9872 18.3393L8.39097 17.4244ZM8.39904 17.4277C8.39636 17.4267 8.39366 17.4256 8.39093 17.4244L7.98724 18.3393C8.00912 18.3489 8.03136 18.3579 8.05392 18.3662L8.39904 17.4277ZM8.99178 17.8793C8.844 17.6727 8.63748 17.5154 8.39907 17.4277L8.05389 18.3662C8.10397 18.3846 8.14736 18.4177 8.17841 18.4611L8.99178 17.8793ZM9.22741 18.5757C9.21948 18.3255 9.13752 18.0831 8.99178 17.8794L8.17841 18.4611C8.20903 18.5039 8.22625 18.5548 8.22791 18.6074L9.22741 18.5757ZM9.22766 18.6596V18.5916H8.22766V18.6596H9.22766ZM9.76671 19.961C9.42156 19.6158 9.22766 19.1477 9.22766 18.6596H8.22766C8.22766 19.4129 8.52692 20.1354 9.0596 20.6681L9.76671 19.961ZM11.0681 20.5C10.58 20.5 10.1119 20.3061 9.76671 19.961L9.0596 20.6681C9.59228 21.2007 10.3148 21.5 11.0681 21.5V20.5ZM12.3695 19.961C12.0243 20.3061 11.5562 20.5 11.0681 20.5V21.5C11.8214 21.5 12.5439 21.2007 13.0766 20.6681L12.3695 19.961ZM12.9085 18.6596C12.9085 19.1477 12.7146 19.6158 12.3695 19.961L13.0766 20.6681C13.6093 20.1354 13.9085 19.4129 13.9085 18.6596H12.9085ZM12.9085 18.5164V18.6596H13.9085V18.5164H12.9085ZM13.119 17.8215C12.983 18.0269 12.9098 18.2674 12.9085 18.5137L13.9085 18.5191C13.9088 18.4673 13.9241 18.4168 13.9527 18.3736L13.119 17.8215ZM13.6758 17.3569C13.4489 17.4542 13.2553 17.6156 13.119 17.8215L13.9527 18.3736C13.9813 18.3305 14.022 18.2965 14.0697 18.2761L13.6758 17.3569ZM13.6771 17.3563L13.6709 17.3591L14.0746 18.2739L14.0809 18.2712L13.6771 17.3563ZM14.4141 17.2688C14.1652 17.2237 13.9085 17.2542 13.6771 17.3563L14.0809 18.2712C14.1295 18.2497 14.1834 18.2433 14.2357 18.2528L14.4141 17.2688ZM15.0699 17.606C14.8896 17.4311 14.6614 17.3137 14.4141 17.2688L14.2357 18.2528C14.2877 18.2622 14.3356 18.2869 14.3735 18.3236L15.0699 17.606ZM15.1232 17.6592L15.0752 17.6112L14.3682 18.3184L14.4161 18.3664L15.1232 17.6592ZM15.7208 18.0589C15.4973 17.9663 15.2944 17.8306 15.1234 17.6594L14.4159 18.3662C14.6797 18.6302 14.993 18.8398 15.3378 18.9827L15.7208 18.0589ZM16.4255 18.1992C16.1837 18.1992 15.9442 18.1515 15.7208 18.0589L15.3378 18.9827C15.6826 19.1256 16.0523 19.1992 16.4255 19.1992V18.1992ZM17.1303 18.0589C16.9069 18.1515 16.6674 18.1992 16.4255 18.1992V19.1992C16.7988 19.1992 17.1684 19.1256 17.5132 18.9827L17.1303 18.0589ZM17.7274 17.6596C17.5566 17.8307 17.3536 17.9663 17.1303 18.0589L17.5132 18.9827C17.8579 18.8398 18.1711 18.6304 18.4348 18.3665L17.7274 17.6596ZM18.127 17.0622C18.0344 17.2856 17.8987 17.4885 17.7277 17.6593L18.4345 18.3667C18.6985 18.103 18.9079 17.7898 19.0508 17.4452L18.127 17.0622ZM18.2673 16.3574C18.2673 16.5993 18.2196 16.8388 18.127 17.0622L19.0508 17.4452C19.1937 17.1003 19.2673 16.7307 19.2673 16.3574H18.2673ZM18.127 15.6527C18.2196 15.8761 18.2673 16.1156 18.2673 16.3574H19.2673C19.2673 15.9842 19.1937 15.6146 19.0508 15.2697L18.127 15.6527ZM17.7275 15.0553C17.8986 15.2263 18.0344 15.4292 18.127 15.6527L19.0508 15.2697C18.9078 14.9249 18.6983 14.6116 18.4342 14.3478L17.7275 15.0553ZM17.6794 15.0072L17.7273 15.0552L18.4344 14.348L18.3865 14.3001L17.6794 15.0072ZM17.3369 14.346C17.3818 14.5933 17.4992 14.8216 17.6741 15.0019L18.3917 14.3054C18.355 14.2675 18.3303 14.2196 18.3209 14.1676L17.3369 14.346ZM17.4244 13.609C17.3223 13.8404 17.2918 14.0971 17.3369 14.346L18.3209 14.1676C18.3114 14.1153 18.3178 14.0614 18.3393 14.0128L17.4244 13.609ZM10.9998 8.58486C9.66605 8.58486 8.58486 9.66605 8.58486 10.9998H9.58486C9.58486 10.2183 10.2183 9.58486 10.9998 9.58486V8.58486ZM13.4147 10.9998C13.4147 9.66605 12.3335 8.58486 10.9998 8.58486V9.58486C11.7812 9.58486 12.4147 10.2183 12.4147 10.9998H13.4147ZM10.9998 13.4147C12.3335 13.4147 13.4147 12.3335 13.4147 10.9998H12.4147C12.4147 11.7812 11.7812 12.4147 10.9998 12.4147V13.4147ZM8.58486 10.9998C8.58486 12.3335 9.66605 13.4147 10.9998 13.4147V12.4147C10.2183 12.4147 9.58486 11.7812 9.58486 10.9998H8.58486ZM8.30827 10.9998C8.30827 9.51329 9.51329 8.30827 10.9998 8.30827V7.30827C8.961 7.30827 7.30827 8.961 7.30827 10.9998H8.30827ZM10.9998 13.6912C9.51329 13.6912 8.30827 12.4862 8.30827 10.9998H7.30827C7.30827 13.0385 8.961 14.6912 10.9998 14.6912V13.6912ZM13.6912 10.9998C13.6912 12.4862 12.4862 13.6912 10.9998 13.6912V14.6912C13.0385 14.6912 14.6912 13.0385 14.6912 10.9998H13.6912ZM10.9998 8.30827C12.4862 8.30827 13.6912 9.51329 13.6912 10.9998H14.6912C14.6912 8.961 13.0385 7.30827 10.9998 7.30827V8.30827Z" fill="#332F2E"/>
</svg>
