<svg width="21" height="20" viewBox="0 0 21 20" fill="none" xmlns="http://www.w3.org/2000/svg">
<path fill-rule="evenodd" clip-rule="evenodd" d="M1.5957 0H8.5957C9.14799 0 9.5957 0.447715 9.5957 1V8C9.5957 8.55229 9.14799 9 8.5957 9H1.5957C1.04342 9 0.595703 8.55229 0.595703 8V1C0.595703 0.447715 1.04342 0 1.5957 0ZM12.5957 0H19.5957C20.148 0 20.5957 0.447715 20.5957 1V8C20.5957 8.55229 20.148 9 19.5957 9H12.5957C12.0434 9 11.5957 8.55229 11.5957 8V1C11.5957 0.447715 12.0434 0 12.5957 0ZM8.5957 10.875H1.5957C1.04342 10.875 0.595703 11.3227 0.595703 11.875V18.875C0.595703 19.4273 1.04342 19.875 1.5957 19.875H8.5957C9.14799 19.875 9.5957 19.4273 9.5957 18.875V11.875C9.5957 11.3227 9.14799 10.875 8.5957 10.875ZM12.5957 10.875H19.5957C20.148 10.875 20.5957 11.3227 20.5957 11.875V18.875C20.5957 19.4273 20.148 19.875 19.5957 19.875H12.5957C12.0434 19.875 11.5957 19.4273 11.5957 18.875V11.875C11.5957 11.3227 12.0434 10.875 12.5957 10.875Z" fill="#E0E0E0"/>
</svg>
