<svg width="27" height="20" viewBox="0 0 27 20" fill="none" xmlns="http://www.w3.org/2000/svg">
<path fill-rule="evenodd" clip-rule="evenodd" d="M0.821777 1.91357C0.821777 1.49936 1.15756 1.16357 1.57178 1.16357H25.6419C26.0561 1.16357 26.3919 1.49936 26.3919 1.91357C26.3919 2.32779 26.0561 2.66357 25.6419 2.66357H1.57178C1.15756 2.66357 0.821777 2.32779 0.821777 1.91357ZM0.823048 9.93828C0.823048 9.52407 1.15883 9.18828 1.57305 9.18828H25.6432C26.0574 9.18828 26.3932 9.52407 26.3932 9.93828C26.3932 10.3525 26.0574 10.6883 25.6432 10.6883H1.57305C1.15883 10.6883 0.823048 10.3525 0.823048 9.93828ZM1.57305 17.2117C1.15883 17.2117 0.823048 17.5475 0.823048 17.9617C0.823048 18.3759 1.15883 18.7117 1.57305 18.7117H25.6432C26.0574 18.7117 26.3932 18.3759 26.3932 17.9617C26.3932 17.5475 26.0574 17.2117 25.6432 17.2117H1.57305Z" fill="#E0E0E0"/>
<path d="M1.57178 0.663574C0.881421 0.663574 0.321777 1.22322 0.321777 1.91357H1.32178C1.32178 1.7755 1.43371 1.66357 1.57178 1.66357V0.663574ZM25.6419 0.663574H1.57178V1.66357H25.6419V0.663574ZM26.8919 1.91357C26.8919 1.22322 26.3323 0.663574 25.6419 0.663574V1.66357C25.78 1.66357 25.8919 1.7755 25.8919 1.91357H26.8919ZM25.6419 3.16357C26.3323 3.16357 26.8919 2.60393 26.8919 1.91357H25.8919C25.8919 2.05165 25.78 2.16357 25.6419 2.16357V3.16357ZM1.57178 3.16357H25.6419V2.16357H1.57178V3.16357ZM0.321777 1.91357C0.321777 2.60393 0.881421 3.16357 1.57178 3.16357V2.16357C1.43371 2.16357 1.32178 2.05165 1.32178 1.91357H0.321777ZM1.57305 8.68828C0.882692 8.68828 0.323048 9.24793 0.323048 9.93828H1.32305C1.32305 9.80021 1.43498 9.68828 1.57305 9.68828V8.68828ZM25.6432 8.68828H1.57305V9.68828H25.6432V8.68828ZM26.8932 9.93828C26.8932 9.24793 26.3335 8.68828 25.6432 8.68828V9.68828C25.7813 9.68828 25.8932 9.80021 25.8932 9.93828H26.8932ZM25.6432 11.1883C26.3335 11.1883 26.8932 10.6286 26.8932 9.93828H25.8932C25.8932 10.0764 25.7813 10.1883 25.6432 10.1883V11.1883ZM1.57305 11.1883H25.6432V10.1883H1.57305V11.1883ZM0.323048 9.93828C0.323048 10.6286 0.882692 11.1883 1.57305 11.1883V10.1883C1.43498 10.1883 1.32305 10.0764 1.32305 9.93828H0.323048ZM1.32305 17.9617C1.32305 17.8236 1.43498 17.7117 1.57305 17.7117V16.7117C0.882692 16.7117 0.323048 17.2713 0.323048 17.9617H1.32305ZM1.57305 18.2117C1.43498 18.2117 1.32305 18.0998 1.32305 17.9617H0.323048C0.323048 18.6521 0.882692 19.2117 1.57305 19.2117V18.2117ZM25.6432 18.2117H1.57305V19.2117H25.6432V18.2117ZM25.8932 17.9617C25.8932 18.0998 25.7813 18.2117 25.6432 18.2117V19.2117C26.3335 19.2117 26.8932 18.6521 26.8932 17.9617H25.8932ZM25.6432 17.7117C25.7813 17.7117 25.8932 17.8236 25.8932 17.9617H26.8932C26.8932 17.2713 26.3335 16.7117 25.6432 16.7117V17.7117ZM1.57305 17.7117H25.6432V16.7117H1.57305V17.7117Z" fill="#E0E0E0"/>
</svg>
