<svg width="279" height="241" viewBox="0 0 279 241" fill="none" xmlns="http://www.w3.org/2000/svg">
<path fill-rule="evenodd" clip-rule="evenodd" d="M0.408842 105.836C0.204418 102.103 0 98.369 0 94.4388C0 74.1996 4.29291 55.1384 11.8566 37.6497C13.2876 34.3091 15.9451 31.9511 19.4203 30.5756C22.8955 29.2 26.5751 29.3966 30.0503 30.9686L102.212 64.5709C111.411 68.8934 116.522 78.1288 114.886 87.9546C113.251 97.7795 105.483 105.05 95.2613 106.425L15.5362 117.43C11.6522 118.02 8.17696 117.037 5.31502 114.679C2.24866 112.517 0.613266 109.57 0.408842 105.836ZM38.0228 22.3225L105.483 53.7632C112.229 56.9068 119.588 56.9068 126.334 53.3699C133.08 50.0293 137.373 44.1345 138.395 36.8636L149.638 -36.8248C150.252 -40.9513 149.025 -44.6849 145.959 -47.6325C142.892 -50.58 139.008 -51.9555 134.716 -51.366C93.8305 -46.8464 57.8519 -26.8032 33.3211 2.47573C30.6636 5.61975 29.8459 9.35332 30.6636 13.2834C31.6857 17.6064 34.1388 20.554 38.0228 22.3225ZM177.031 -50.187C221.186 -43.3094 259.005 -18.1571 281.9 17.0169C284.763 21.5365 284.558 27.0386 281.287 31.3615L234.065 93.4561C227.32 102.103 215.463 105.05 205.242 100.334L159.86 79.3087C150.66 74.9852 145.55 65.946 147.185 56.1211L161.699 -39.3794C162.312 -42.9164 163.948 -45.8639 167.014 -47.829C169.876 -49.9905 173.351 -50.7765 177.031 -50.187ZM300.707 60.6407C299.481 55.7278 295.597 51.9948 290.282 51.012C284.967 50.0293 280.06 51.7977 276.79 56.1211L249.397 92.0809C245.308 97.5833 243.878 103.871 245.717 110.552C247.352 117.233 251.646 122.146 257.983 125.093L282.104 136.294C285.989 138.063 289.873 138.063 293.757 136.294C297.641 134.526 300.094 131.578 301.116 127.648C303.774 117.037 305 105.836 305 94.4388C304.796 82.8455 303.365 71.4484 300.707 60.6407ZM285.785 165.377C261.663 207.035 217.098 236.313 165.174 240.441C160.882 240.833 156.998 239.262 154.135 236.313C151.274 233.366 150.047 229.436 150.865 225.506C151.478 222.166 152.909 219.021 155.157 216.074L214.85 137.473C221.595 128.827 233.452 125.879 243.673 130.596L280.06 147.494C283.536 149.067 285.785 151.622 287.011 155.158C288.033 158.695 287.624 162.232 285.785 165.377ZM114.886 236.51C120.201 237.886 125.721 235.921 128.991 231.598L199.517 139.045C203.607 133.543 205.037 127.255 203.198 120.574C201.766 115.071 198.495 110.552 193.59 107.408C190.728 105.64 187.661 105.05 184.39 105.443L20.6468 128.041C20.238 128.041 19.8291 128.238 19.4203 128.238C15.3318 129.023 12.2655 131.185 10.2212 134.526C8.17696 137.866 7.97253 141.6 9.40349 145.333C26.5751 190.135 66.0289 224.72 114.886 236.51Z" fill="#732F37" fill-opacity="0.04"/>
</svg>
