<svg width="315" height="55" viewBox="0 0 315 55" fill="none" xmlns="http://www.w3.org/2000/svg">
<g clip-path="url(#clip0)">
<path fill-rule="evenodd" clip-rule="evenodd" d="M0.0737544 29.8658C0.0368766 29.169 0 28.4721 0 27.7386C0 23.9611 0.774435 20.4034 2.13891 17.1392C2.39706 16.5157 2.87647 16.0756 3.50339 15.8189C4.13031 15.5622 4.79411 15.5988 5.42103 15.8923L18.4389 22.1639C20.0984 22.9707 21.0203 24.6944 20.7253 26.5283C20.4303 28.3621 19.0289 29.7192 17.185 29.9758L2.8027 32.0298C2.10203 32.1398 1.47511 31.9564 0.958822 31.5163C0.405655 31.1128 0.110632 30.5627 0.0737544 29.8658ZM6.85927 14.2785L19.0289 20.1467C20.2459 20.7335 21.5734 20.7335 22.7905 20.0733C24.0075 19.4498 24.7819 18.3496 24.9662 16.9925L26.9945 3.23903C27.1052 2.46885 26.8839 1.77199 26.3308 1.22185C25.7775 0.671714 25.0769 0.414982 24.3025 0.52501C16.9269 1.36856 10.4364 5.10951 6.01108 10.5742C5.53167 11.1611 5.38416 11.8579 5.53167 12.5914C5.71605 13.3983 6.15859 13.9484 6.85927 14.2785ZM31.9361 0.745064C39.9017 2.02873 46.7241 6.72325 50.8544 13.2883C51.3708 14.1318 51.3339 15.1587 50.7437 15.9656L42.225 27.5552C41.0081 29.169 38.8692 29.7192 37.0253 28.8388L28.8384 24.9146C27.1789 24.1077 26.257 22.4206 26.552 20.5868L29.1703 2.76224C29.2809 2.10208 29.5759 1.55194 30.1291 1.18518C30.6455 0.781741 31.2723 0.635037 31.9361 0.745064ZM54.2472 21.4304C54.0259 20.5134 53.3253 19.8167 52.3664 19.6332C51.4077 19.4498 50.5225 19.7799 49.9325 20.5868L44.9909 27.2985C44.2533 28.3255 43.9952 29.4991 44.327 30.746C44.622 31.993 45.3966 32.91 46.5397 33.4601L50.8912 35.5507C51.592 35.8807 52.2927 35.8807 52.9933 35.5507C53.6941 35.2206 54.1366 34.6703 54.3209 33.9369C54.8003 31.9564 55.0216 29.8658 55.0216 27.7386C54.9847 25.5748 54.7266 23.4476 54.2472 21.4304ZM51.5552 40.9787C47.2036 48.754 39.1642 54.2186 29.7972 54.9889C29.0228 55.0622 28.3222 54.7689 27.8058 54.2186C27.2895 53.6685 27.0683 52.935 27.2158 52.2014C27.3264 51.5781 27.5845 50.9912 27.9902 50.4411L38.7586 35.7707C39.9755 34.157 42.1144 33.6067 43.9583 34.4871L50.5225 37.6411C51.1495 37.9345 51.5552 38.4114 51.7764 39.0715C51.9608 39.7317 51.887 40.3918 51.5552 40.9787ZM20.7253 54.2554C21.6841 54.5121 22.6798 54.1454 23.2698 53.3384L35.9927 36.0641C36.7303 35.0372 36.9884 33.8635 36.6566 32.6165C36.3983 31.5895 35.8083 30.746 34.9233 30.1592C34.407 29.8292 33.8537 29.7192 33.2638 29.7924L3.72466 34.0102C3.65091 34.0102 3.57714 34.047 3.50339 34.047C2.76583 34.1936 2.21267 34.5971 1.84389 35.2206C1.47511 35.8439 1.43823 36.5409 1.69638 37.2378C4.79411 45.5998 11.9115 52.0548 20.7253 54.2554Z" fill="#732F37"/>
<path d="M71.1273 35.925H68.6581L63.0859 20.0764H65.6425L69.7725 32.8076L69.9255 33.5488L70.0784 32.8294L74.1865 20.0764H76.6558L71.1273 35.925Z" fill="#732F37"/>
<path d="M83.7712 20.0764V35.925H81.455V20.0764H83.7712Z" fill="#732F37"/>
<path d="M97.5656 21.5806C96.779 21.5806 96.036 21.7258 95.3367 22.0166C94.6375 22.2926 94.0183 22.7068 93.4793 23.2592C92.9549 23.8113 92.5397 24.4871 92.2338 25.2866C91.9279 26.0858 91.7749 26.9941 91.7749 28.0116C91.7749 29.0144 91.9279 29.9153 92.2338 30.7148C92.5397 31.514 92.9549 32.1898 93.4793 32.7422C94.0038 33.2798 94.6156 33.694 95.3149 33.9848C96.0141 34.2753 96.7571 34.4208 97.5438 34.4208C97.8642 34.4208 98.2138 34.4061 98.5926 34.3772C98.986 34.3336 99.4157 34.239 99.8819 34.0938V28.5784H102.133V35.1184C101.346 35.5252 100.537 35.8013 99.7071 35.9468C98.8912 36.1065 98.1701 36.1866 97.5438 36.1866C96.3638 36.1866 95.2638 35.9975 94.2442 35.6198C93.2245 35.2274 92.3431 34.675 91.6001 33.963C90.8571 33.2507 90.2745 32.3934 89.852 31.3906C89.4294 30.3731 89.2183 29.2468 89.2183 28.0116C89.2183 26.8052 89.4294 25.7008 89.852 24.698C90.289 23.6952 90.879 22.8303 91.622 22.1038C92.3649 21.377 93.2463 20.8102 94.266 20.4034C95.2857 19.9963 96.3856 19.793 97.5656 19.793C98.192 19.793 98.8841 19.8655 99.6415 20.011C100.414 20.1418 101.193 20.3887 101.98 20.7522L101.346 22.3654C100.545 22.031 99.8382 21.8204 99.2263 21.7332C98.629 21.6313 98.0755 21.5806 97.5656 21.5806Z" fill="#732F37"/>
<path d="M109.955 20.0764V35.925H107.639V20.0764H109.955Z" fill="#732F37"/>
<path d="M116.495 35.925V20.0764H118.898V34.1374H125.279C125.279 34.428 125.272 34.726 125.257 35.0312C125.257 35.3364 125.257 35.6343 125.257 35.925H116.495Z" fill="#732F37"/>
<path d="M135.209 20.0764H137.547L143.272 35.925H140.738L136.455 23.4336L136.302 22.7578L136.127 23.4554L133.854 30.0608L133.614 30.4968L133.876 30.4532H136.455C136.731 30.4532 136.972 30.504 137.176 30.6058C137.394 30.7075 137.584 30.8456 137.744 31.02C137.904 31.1798 138.035 31.3688 138.137 31.5868C138.254 31.7902 138.348 32.001 138.421 32.219H133.133L131.866 35.925H129.506L135.209 20.0764Z" fill="#732F37"/>
<path d="M158.924 35.925C157.642 33.8758 156.36 31.8484 155.078 29.8428C153.811 27.8226 152.536 25.7807 151.254 23.717L150.926 22.954L150.97 23.6952V35.925H148.938V20.0764H151.298L157.919 30.6494L158.705 31.892L158.99 32.655L158.946 31.8702V20.0764H161.044V35.925H158.924Z" fill="#732F37"/>
<path d="M175.485 36.1866C174.305 36.1866 173.219 35.9904 172.229 35.598C171.237 35.2056 170.385 34.6532 169.671 33.9412C168.958 33.2289 168.404 32.3716 168.011 31.3688C167.617 30.366 167.421 29.2468 167.421 28.0116C167.421 26.8197 167.617 25.7226 168.011 24.7198C168.419 23.717 168.98 22.8521 169.693 22.1256C170.407 21.3844 171.253 20.8102 172.229 20.4034C173.219 19.9963 174.305 19.793 175.485 19.793C176.722 19.793 178.011 20.0399 179.351 20.5342L178.718 22.1256C178.078 21.922 177.502 21.7839 176.992 21.7114C176.497 21.6242 175.993 21.5806 175.485 21.5806C174.698 21.5806 173.969 21.7258 173.299 22.0166C172.628 22.3071 172.046 22.736 171.551 23.3028C171.056 23.8549 170.67 24.5307 170.393 25.3302C170.116 26.115 169.977 27.0088 169.977 28.0116C169.977 28.9272 170.116 29.7774 170.393 30.5622C170.67 31.347 171.056 32.0299 171.551 32.6114C172.046 33.1782 172.628 33.6213 173.299 33.9412C173.969 34.2608 174.698 34.4208 175.485 34.4208C175.993 34.4208 176.511 34.3554 177.036 34.2246C177.574 34.0938 178.136 33.8829 178.718 33.5924L179.351 35.1838C178.682 35.5326 178.02 35.7868 177.364 35.9468C176.722 36.1065 176.096 36.1866 175.485 36.1866Z" fill="#732F37"/>
<path d="M189.726 26.7472H193.003V28.4694H187.759C187.831 28.2514 187.919 28.0406 188.02 27.8372C188.138 27.6337 188.276 27.452 188.437 27.2922C188.596 27.1323 188.778 27.0015 188.983 26.8998C189.202 26.798 189.449 26.7472 189.726 26.7472ZM184.546 35.925V20.0764H193.746V21.8422H186.928V34.1592H194.074V35.925H184.546Z" fill="#732F37"/>
<path d="M215.879 36.1866C214.7 36.1866 213.614 35.9904 212.624 35.598C211.634 35.2056 210.782 34.6532 210.067 33.9412C209.353 33.2289 208.8 32.3716 208.407 31.3688C208.013 30.366 207.817 29.2468 207.817 28.0116C207.817 26.8197 208.013 25.7226 208.407 24.7198C208.815 23.717 209.375 22.8521 210.089 22.1256C210.802 21.3844 211.647 20.8102 212.624 20.4034C213.614 19.9963 214.7 19.793 215.879 19.793C217.119 19.793 218.408 20.0399 219.748 20.5342L219.115 22.1256C218.473 21.922 217.897 21.7839 217.387 21.7114C216.892 21.6242 216.39 21.5806 215.879 21.5806C215.092 21.5806 214.365 21.7258 213.694 22.0166C213.025 22.3071 212.441 22.736 211.946 23.3028C211.451 23.8549 211.065 24.5307 210.789 25.3302C210.512 26.115 210.374 27.0088 210.374 28.0116C210.374 28.9272 210.512 29.7774 210.789 30.5622C211.065 31.347 211.451 32.0299 211.946 32.6114C212.441 33.1782 213.025 33.6213 213.694 33.9412C214.365 34.2608 215.092 34.4208 215.879 34.4208C216.39 34.4208 216.907 34.3554 217.431 34.2246C217.971 34.0938 218.531 33.8829 219.115 33.5924L219.748 35.1838C219.077 35.5326 218.415 35.7868 217.759 35.9468C217.119 36.1065 216.492 36.1866 215.879 36.1866Z" fill="#732F37"/>
<path d="M226.559 27.9898C226.559 28.9054 226.676 29.7627 226.909 30.5622C227.157 31.347 227.498 32.0299 227.935 32.6114C228.372 33.1927 228.897 33.6505 229.509 33.9848C230.121 34.3045 230.798 34.4644 231.541 34.4644C232.255 34.4644 232.919 34.3045 233.53 33.9848C234.141 33.6649 234.667 33.2145 235.104 32.6332C235.541 32.0517 235.882 31.3688 236.13 30.584C236.377 29.7992 236.502 28.9343 236.502 27.9898C236.502 27.0159 236.377 26.1368 236.13 25.352C235.882 24.5525 235.532 23.8696 235.082 23.3028C234.645 22.736 234.12 22.3 233.508 21.9948C232.91 21.6896 232.255 21.537 231.541 21.537C230.814 21.537 230.143 21.6967 229.532 22.0166C228.934 22.3218 228.41 22.7578 227.958 23.3246C227.521 23.8914 227.177 24.5743 226.93 25.3738C226.682 26.1586 226.559 27.0306 226.559 27.9898ZM224.002 27.9898C224.002 26.6671 224.214 25.4973 224.635 24.48C225.059 23.4481 225.619 22.5834 226.319 21.8858C227.019 21.1882 227.819 20.6577 228.722 20.2944C229.625 19.9309 230.564 19.7494 231.541 19.7494C232.794 19.7494 233.887 19.9745 234.819 20.4252C235.766 20.8757 236.553 21.4861 237.18 22.2564C237.806 23.0121 238.272 23.8914 238.578 24.8942C238.899 25.8823 239.058 26.9143 239.058 27.9898C239.058 29.1959 238.861 30.3077 238.469 31.3252C238.09 32.328 237.566 33.1927 236.895 33.9194C236.225 34.6459 235.432 35.2127 234.513 35.6198C233.595 36.0267 232.604 36.2302 231.541 36.2302C230.448 36.2302 229.436 36.0411 228.504 35.6634C227.585 35.271 226.792 34.7187 226.122 34.0066C225.467 33.2799 224.95 32.4079 224.571 31.3906C224.192 30.3731 224.002 29.2395 224.002 27.9898Z" fill="#732F37"/>
<path d="M252.52 36.1866C251.341 36.1866 250.255 35.9904 249.265 35.598C248.273 35.2056 247.421 34.6532 246.707 33.9412C245.994 33.2289 245.441 32.3716 245.046 31.3688C244.654 30.366 244.457 29.2468 244.457 28.0116C244.457 26.8197 244.654 25.7226 245.046 24.7198C245.454 23.717 246.016 22.8521 246.73 22.1256C247.443 21.3844 248.288 20.8102 249.265 20.4034C250.255 19.9963 251.341 19.793 252.52 19.793C253.758 19.793 255.047 20.0399 256.387 20.5342L255.754 22.1256C255.114 21.922 254.538 21.7839 254.028 21.7114C253.533 21.6242 253.029 21.5806 252.52 21.5806C251.733 21.5806 251.004 21.7258 250.335 22.0166C249.664 22.3071 249.082 22.736 248.587 23.3028C248.092 23.8549 247.704 24.5307 247.428 25.3302C247.151 26.115 247.013 27.0088 247.013 28.0116C247.013 28.9272 247.151 29.7774 247.428 30.5622C247.704 31.347 248.092 32.0299 248.587 32.6114C249.082 33.1782 249.664 33.6213 250.335 33.9412C251.004 34.2608 251.733 34.4208 252.52 34.4208C253.029 34.4208 253.546 34.3554 254.072 34.2246C254.61 34.0938 255.172 33.8829 255.754 33.5924L256.387 35.1838C255.718 35.5326 255.055 35.7868 254.4 35.9468C253.758 36.1065 253.131 36.1866 252.52 36.1866Z" fill="#732F37"/>
<path d="M263.963 35.925H261.582V20.0764H263.963V35.925ZM273.273 20.0764L268.356 26.4638L274.015 35.925H271.197L267.154 28.513L267.002 28.0988L266.784 28.513L265.145 30.6276C265.056 30.366 264.998 30.0753 264.969 29.7556C264.94 29.4358 264.947 29.1088 264.991 28.7746C265.049 28.4258 265.136 28.077 265.254 27.7282C265.384 27.3794 265.551 27.0524 265.756 26.7472C266.499 25.6572 267.286 24.5526 268.115 23.4336C268.96 22.3 269.792 21.1809 270.608 20.0764H273.273Z" fill="#732F37"/>
<path d="M289.591 24.6326C289.591 25.3302 289.446 25.9624 289.154 26.5292C288.878 27.096 288.499 27.5827 288.019 27.9898C287.553 28.3822 287.013 28.7018 286.401 28.949C285.789 29.1814 285.156 29.3267 284.501 29.385C284.18 29.4139 283.838 29.4212 283.473 29.4068C283.109 29.3776 282.723 29.3049 282.315 29.1888C282.476 28.8108 282.715 28.4694 283.036 28.1642C283.357 27.859 283.749 27.699 284.215 27.6846C284.565 27.6699 284.915 27.59 285.265 27.4448C285.615 27.2848 285.921 27.0668 286.182 26.7908C286.46 26.5145 286.679 26.1948 286.838 25.8316C287.013 25.4681 287.101 25.0686 287.101 24.6326C287.101 24.1966 287.013 23.7895 286.838 23.4118C286.664 23.0338 286.423 22.7142 286.117 22.4526C285.812 22.1763 285.446 21.9583 285.025 21.7986C284.617 21.6386 284.173 21.5588 283.691 21.5588C283.283 21.5588 282.904 21.5732 282.556 21.6024C282.206 21.6168 281.834 21.646 281.441 21.6896V35.925L279.06 35.9032V20.2508C279.526 20.1636 279.954 20.0908 280.349 20.0328C280.741 19.9745 281.114 19.9309 281.463 19.902C281.827 19.8584 282.191 19.8292 282.556 19.8148C282.92 19.8001 283.299 19.793 283.691 19.793C284.565 19.793 285.368 19.9164 286.095 20.1636C286.824 20.4105 287.444 20.7522 287.952 21.1882C288.477 21.6095 288.878 22.1182 289.154 22.7142C289.446 23.2954 289.591 23.935 289.591 24.6326Z" fill="#732F37"/>
<path d="M297.636 20.0764V35.925H295.321V20.0764H297.636Z" fill="#732F37"/>
<path d="M306.952 21.8422H302.472V20.0764H313.857V21.8422H309.355V35.925H306.952V21.8422Z" fill="#732F37"/>
</g>
<defs>
<clipPath id="clip0">
<rect width="314.118" height="54.5" fill="white" transform="translate(0 0.5)"/>
</clipPath>
</defs>
</svg>
