<svg width="22" height="25" viewBox="0 0 22 25" fill="none" xmlns="http://www.w3.org/2000/svg">
<path fill-rule="evenodd" clip-rule="evenodd" d="M5.20641 2.532C5.20641 3.93038 4.0728 5.064 2.67441 5.064C1.27603 5.064 0.142414 3.93038 0.142414 2.532C0.142414 1.13361 1.27603 0 2.67441 0C4.0728 0 5.20641 1.13361 5.20641 2.532ZM17.1685 11.3585C18.3688 11.7679 19.4824 12.3653 20.5037 13.1183C21.1207 13.5724 21.167 14.5223 20.7036 15.0912C20.2023 15.7073 19.343 15.7426 18.7294 15.291C18.0321 14.7761 17.2421 14.3782 16.3977 14.0584C16.2582 14.1086 16.1043 14.1426 15.9244 14.1443C14.6518 14.1498 13.5319 14.5125 12.5076 15.2149C14.0583 17.5751 14.6523 20.3193 14.5077 23.3692C14.4188 25.2332 11.5297 25.0653 11.6186 23.2029C11.7635 20.1467 11.0433 17.6997 9.11079 15.5649C8.7243 15.4339 8.37819 15.2013 8.13116 14.8556L6.81719 13.0153L6.81415 13.011C5.82973 11.6323 4.84516 10.2533 3.86099 8.87452C3.08162 7.78263 3.02124 6.34635 4.10292 5.4037C4.2292 5.29358 4.37207 5.19876 4.52386 5.11798C6.51076 3.78969 8.40413 2.34872 10.0564 0.613955C11.2992 -0.690097 13.4783 1.07911 12.2296 2.38912C10.9072 3.77778 9.46327 5.01381 7.9326 6.14863L8.32574 6.69946L8.71919 7.25072C9.45987 6.695 10.0505 5.97728 10.4323 5.05122C11.1398 3.33389 13.8695 4.29651 13.1569 6.02703C12.5561 7.485 11.6156 8.70189 10.4029 9.60967C10.883 10.2819 11.363 10.9545 11.8426 11.6268C11.9685 11.8028 12.0731 11.9886 12.1594 12.1782C13.2547 11.6544 14.4503 11.3542 15.677 11.3491C15.7871 11.3487 15.8921 11.3593 15.9908 11.3789C16.3462 11.2254 16.7676 11.2216 17.1685 11.3585ZM4.66311 23.9868C3.76724 23.8095 2.8803 23.588 2.02949 23.2869C1.60728 23.1305 1.1906 22.9557 0.817707 22.7151C0.449919 22.4791 0.0957367 22.1695 0.0115494 21.6963C-0.0267176 21.9306 0.0328087 22.184 0.150161 22.4021C0.265387 22.6237 0.432061 22.8103 0.607238 22.9812C0.969074 23.3142 1.38533 23.5722 1.81605 23.7836C2.67961 24.2113 3.60099 24.4711 4.52535 24.668C5.45354 24.8504 6.39193 24.9618 7.33287 24.9898C8.27254 25.0209 9.21348 24.9843 10.1446 24.8393C9.58275 24.7512 9.02474 24.6752 8.46957 24.5996L8.46949 24.5996C8.1055 24.5501 7.74274 24.5007 7.38092 24.4481C6.46719 24.3121 5.55856 24.1739 4.66311 23.9868ZM5.71111 21.8643C6.22219 22.0263 6.7541 22.1403 7.28941 22.2513L8.9149 22.5587C8.95044 22.5652 8.98599 22.5717 9.02155 22.5782C9.53532 22.6723 10.0522 22.767 10.5787 22.9026C10.0153 23.0476 9.44086 23.1004 8.86728 23.1008C8.29413 23.1008 7.71842 23.051 7.15122 22.9341C6.58445 22.8176 6.02277 22.6403 5.49724 22.3618C5.23447 22.2232 4.98276 22.0514 4.76634 21.8312C4.56055 21.616 4.36709 21.2997 4.44745 21.0008C4.53079 21.2831 4.75018 21.4391 4.97723 21.5637C5.20471 21.6909 5.4577 21.7806 5.71111 21.8643Z" fill="#828282"/>
</svg>
