<svg width="25" height="25" viewBox="0 0 25 25" fill="none" xmlns="http://www.w3.org/2000/svg">
<path fill-rule="evenodd" clip-rule="evenodd" d="M0.0335116 13.3429C0.0167555 13.0263 0 12.7096 0 12.3763C0 10.6599 0.351878 9.04345 0.971849 7.56033C1.08915 7.27703 1.30697 7.07706 1.59183 6.96041C1.87668 6.84376 2.17829 6.86042 2.46314 6.99374L8.37804 9.84338C9.13208 10.2099 9.55094 10.9932 9.41691 11.8264C9.28287 12.6596 8.64611 13.2762 7.8083 13.3928L1.27346 14.3261C0.955094 14.3761 0.670242 14.2927 0.435657 14.0928C0.184316 13.9095 0.0502677 13.6595 0.0335116 13.3429ZM3.11663 6.26051L8.64611 8.92684C9.19909 9.19343 9.80226 9.19343 10.3552 8.89348C10.9082 8.61018 11.2601 8.11028 11.3438 7.49367L12.2654 1.24453C12.3157 0.89458 12.2152 0.577953 11.9639 0.327987C11.7125 0.0780213 11.3941 -0.0386296 11.0423 0.0113635C7.69103 0.394644 4.74196 2.09441 2.73124 4.57741C2.51341 4.84403 2.44638 5.16066 2.51341 5.49395C2.59718 5.86056 2.79826 6.11053 3.11663 6.26051ZM14.5107 0.111349C18.13 0.694603 21.2299 2.82764 23.1066 5.81056C23.3412 6.19385 23.3245 6.66045 23.0563 7.02706L19.1857 12.293C18.6328 13.0263 17.6609 13.2762 16.8231 12.8762L13.1032 11.0932C12.3492 10.7266 11.9303 9.96 12.0644 9.1268L13.254 1.02789C13.3043 0.727931 13.4383 0.477966 13.6897 0.311322C13.9243 0.128014 14.2091 0.0613564 14.5107 0.111349ZM24.6482 9.51008C24.5476 9.09344 24.2293 8.77686 23.7936 8.69352C23.358 8.61018 22.9558 8.76015 22.6877 9.1268L20.4424 12.1764C20.1072 12.643 19.99 13.1762 20.1408 13.7428C20.2748 14.3094 20.6267 14.726 21.1461 14.976L23.1233 15.9259C23.4417 16.0758 23.7601 16.0758 24.0784 15.9259C24.3968 15.7759 24.5979 15.5259 24.6817 15.1927C24.8995 14.2927 25 13.3429 25 12.3763C24.9832 11.3932 24.866 10.4266 24.6482 9.51008ZM23.425 18.3922C21.4478 21.925 17.7949 24.408 13.5389 24.758C13.187 24.7913 12.8687 24.658 12.634 24.408C12.3995 24.158 12.2989 23.8247 12.366 23.4914C12.4162 23.2082 12.5335 22.9415 12.7178 22.6916L17.6106 16.0259C18.1635 15.2926 19.1354 15.0426 19.9732 15.4426L22.9558 16.8757C23.2407 17.009 23.425 17.2257 23.5255 17.5256C23.6093 17.8256 23.5758 18.1255 23.425 18.3922ZM9.41691 24.4247C9.85253 24.5413 10.305 24.3747 10.5731 24.0081L16.3539 16.1592C16.6891 15.6926 16.8063 15.1593 16.6555 14.5927C16.5382 14.1261 16.2701 13.7428 15.868 13.4762C15.6334 13.3262 15.382 13.2762 15.114 13.3095L1.69236 15.2259C1.65885 15.2259 1.62534 15.2426 1.59183 15.2426C1.2567 15.3093 1.00537 15.4926 0.837804 15.7759C0.670242 16.0591 0.653486 16.3758 0.770778 16.6924C2.17829 20.4919 5.4122 23.4248 9.41691 24.4247Z" fill="#828282"/>
</svg>
