<svg width="27" height="26" viewBox="0 0 27 26" fill="none" xmlns="http://www.w3.org/2000/svg">
<path d="M26 17.4189C26 13.775 23.5447 10.5912 20.0823 9.63181C19.8646 4.5596 15.6708 0.5 10.5459 0.5C5.28219 0.5 1 4.78219 1 10.0459C1 11.6185 1.38371 13.153 2.11557 14.5274C2.24324 14.7671 2.28279 15.0459 2.21037 15.3077L1.50556 17.8557C1.29842 18.6046 1.98707 19.2932 2.73592 19.0861L5.28411 18.3814C5.5459 18.309 5.82465 18.3486 6.0644 18.4762C7.3177 19.1434 8.70447 19.5203 10.1316 19.5819C11.0908 23.0445 14.2748 25.5 17.9189 25.5C19.2304 25.5 20.5093 25.1851 21.6592 24.5836C21.9001 24.4576 22.1789 24.4175 22.4409 24.49L24.2638 24.9942C25.0127 25.2014 25.7014 24.5127 25.4942 23.7638L24.99 21.9409C24.9175 21.6789 24.9576 21.4001 25.0836 21.1592C25.6851 20.0093 26 18.7304 26 17.4189ZM6.2 16.8601C6.02495 16.7482 5.81059 16.7159 5.61033 16.7713L3.13604 17.4558L3.82052 14.9815C3.87592 14.7812 3.84363 14.5668 3.7317 14.3918C2.90296 13.0952 2.46484 11.5924 2.46484 10.0459C2.46484 5.58995 6.08995 1.96484 10.5459 1.96484C15.0018 1.96484 18.627 5.58995 18.627 10.0459C18.627 14.5018 15.0018 18.127 10.5459 18.127C8.99942 18.127 7.49681 17.6888 6.2 16.8601ZM23.864 23.364L22.1123 22.8793C21.9102 22.8234 21.6938 22.8569 21.5181 22.9712C20.4468 23.6672 19.202 24.0352 17.9189 24.0352C15.0549 24.0352 12.5381 22.1833 11.6464 19.5279C16.0322 19.0223 19.5223 15.5322 20.0281 11.1462C22.6833 12.0381 24.5352 14.5549 24.5352 17.4189C24.5352 18.702 24.1672 19.9468 23.4712 21.0181C23.3569 21.1938 23.3234 21.4102 23.3793 21.6123L23.864 23.364Z" fill="#828282" stroke="#828282" stroke-width="0.5"/>
<path fill-rule="evenodd" clip-rule="evenodd" d="M9.4089 6.15355C9.84673 5.89624 10.3615 5.80218 10.862 5.88803C11.3625 5.97389 11.8165 6.23411 12.1436 6.62262C12.4706 7.01113 12.6496 7.50285 12.6489 8.01068L12.6489 8.01148C12.6489 8.62246 12.1835 9.15421 11.5444 9.58032C11.2411 9.78251 10.934 9.93644 10.7006 10.0402C10.5847 10.0917 10.4888 10.13 10.4232 10.155C10.3904 10.1675 10.3653 10.1766 10.3492 10.1823L10.3319 10.1884L10.3291 10.1894C10.0485 10.283 9.89672 10.5864 9.99025 10.867C10.0838 11.1477 10.3872 11.2994 10.6679 11.2058L10.4985 10.6976C10.6679 11.2058 10.6677 11.2059 10.6679 11.2058L10.6686 11.2056L10.6696 11.2053L10.6722 11.2043L10.6805 11.2015L10.7081 11.1919C10.7313 11.1836 10.7639 11.1717 10.8046 11.1562C10.8859 11.1253 10.9999 11.0796 11.1358 11.0193C11.406 10.8991 11.7704 10.7173 12.1387 10.4718C12.8425 10.0026 13.7201 9.1914 13.7203 8.01181C13.7213 7.25111 13.4531 6.51458 12.9633 5.93262C12.4733 5.35054 11.7931 4.96066 11.0431 4.83203C10.2932 4.7034 9.522 4.84432 8.86603 5.22984C8.21006 5.61535 7.7117 6.22059 7.45921 6.93834C7.36103 7.21744 7.5077 7.52329 7.7868 7.62147C8.0659 7.71965 8.37175 7.57298 8.46993 7.29388C8.63845 6.81482 8.97108 6.41086 9.4089 6.15355ZM10.5696 15.1748C11.0641 15.1748 11.465 14.774 11.465 14.2795C11.465 13.785 11.0641 13.3841 10.5696 13.3841C10.0751 13.3841 9.67428 13.785 9.67428 14.2795C9.67428 14.774 10.0751 15.1748 10.5696 15.1748Z" fill="#828282"/>
<path d="M10.6679 11.2058C10.3872 11.2994 10.0838 11.1477 9.99025 10.867C9.89672 10.5864 10.0485 10.283 10.3291 10.1894L10.3319 10.1884L10.3492 10.1823C10.3653 10.1766 10.3904 10.1675 10.4232 10.155C10.4888 10.13 10.5847 10.0917 10.7006 10.0402C10.934 9.93644 11.2411 9.78251 11.5444 9.58032C12.1835 9.15421 12.6489 8.62246 12.6489 8.01148L12.6489 8.01068C12.6496 7.50285 12.4706 7.01113 12.1436 6.62262C11.8165 6.23411 11.3625 5.97389 10.862 5.88803C10.3615 5.80218 9.84673 5.89624 9.4089 6.15355C8.97108 6.41086 8.63845 6.81482 8.46993 7.29388C8.37175 7.57298 8.0659 7.71965 7.7868 7.62147C7.5077 7.52329 7.36103 7.21744 7.45921 6.93834C7.7117 6.22059 8.21006 5.61535 8.86603 5.22984C9.522 4.84432 10.2932 4.7034 11.0431 4.83203C11.7931 4.96066 12.4733 5.35054 12.9633 5.93262C13.4531 6.51458 13.7213 7.25111 13.7203 8.01181M10.6679 11.2058L10.4985 10.6976C10.6679 11.2058 10.6677 11.2059 10.6679 11.2058ZM10.6679 11.2058L10.6686 11.2056L10.6696 11.2053L10.6722 11.2043L10.6805 11.2015L10.7081 11.1919C10.7313 11.1836 10.7639 11.1717 10.8046 11.1562C10.8859 11.1253 10.9999 11.0796 11.1358 11.0193C11.406 10.8991 11.7704 10.7173 12.1387 10.4718C12.8425 10.0026 13.7201 9.1914 13.7203 8.01181M13.7203 8.01181L13.1846 8.01148M11.465 14.2795C11.465 14.774 11.0641 15.1748 10.5696 15.1748C10.0751 15.1748 9.67428 14.774 9.67428 14.2795C9.67428 13.785 10.0751 13.3841 10.5696 13.3841C11.0641 13.3841 11.465 13.785 11.465 14.2795Z" stroke="#828282" stroke-width="0.5"/>
</svg>
