<svg width="23" height="26" viewBox="0 0 23 26" fill="none" xmlns="http://www.w3.org/2000/svg">
<path fill-rule="evenodd" clip-rule="evenodd" d="M7.00774 6.5079C7.00774 4.2944 8.80213 2.5 11.0156 2.5C13.2291 2.5 15.0235 4.2944 15.0235 6.5079C15.0235 8.7214 13.2291 10.5158 11.0156 10.5158C8.80213 10.5158 7.00774 8.7214 7.00774 6.5079ZM11.0156 0.5C7.69756 0.5 5.00774 3.18983 5.00774 6.5079C5.00774 9.82597 7.69756 12.5158 11.0156 12.5158C14.3337 12.5158 17.0235 9.82597 17.0235 6.5079C17.0235 3.18983 14.3337 0.5 11.0156 0.5ZM6.0079 15.5237C4.4145 15.5237 2.88637 16.1567 1.75967 17.2834C0.632973 18.4101 0 19.9382 0 21.5316V24.0356C0 24.5878 0.447715 25.0356 1 25.0356C1.55228 25.0356 2 24.5878 2 24.0356V21.5316C2 20.4686 2.42226 19.4492 3.17389 18.6976C3.92551 17.946 4.94494 17.5237 6.0079 17.5237H16.0237C17.0866 17.5237 18.1061 17.946 18.8577 18.6976C19.6093 19.4492 20.0316 20.4686 20.0316 21.5316V24.0356C20.0316 24.5878 20.4793 25.0356 21.0316 25.0356C21.5839 25.0356 22.0316 24.5878 22.0316 24.0356V21.5316C22.0316 19.9382 21.3986 18.4101 20.2719 17.2834C19.1452 16.1567 17.6171 15.5237 16.0237 15.5237H6.0079Z" fill="#828282"/>
</svg>
